<svg width="240" height="201" viewBox="0 0 240 201" fill="none" xmlns="http://www.w3.org/2000/svg">
<g clip-path="url(#clip0)">
<path d="M11.152 191.532C14.4811 197.726 21.5465 200.385 21.5465 200.385C21.5465 200.385 23.2145 193.001 19.8854 186.807C16.5564 180.613 9.49098 177.955 9.49098 177.955C9.49098 177.955 7.82301 185.338 11.152 191.532Z" fill="#2F2E41"/>
<path d="M13.4401 189.494C19.4504 193.122 21.7652 200.327 21.7652 200.327C21.7652 200.327 14.3353 201.651 8.32504 198.024C2.31475 194.396 0 187.19 0 187.19C0 187.19 7.42985 185.866 13.4401 189.494Z" fill="#E1E2E1"/>
<path d="M148.192 9.64941H110.692V10.1869H148.192V9.64941Z" fill="#F2F2F2"/>
<path d="M138.013 10.0525H137.477V15.0239H138.013V10.0525Z" fill="#F2F2F2"/>
<path d="M121.674 10.0525H121.138V15.0239H121.674V10.0525Z" fill="#F2F2F2"/>
<path d="M167.209 35.447H129.709V35.9845H167.209V35.447Z" fill="#F2F2F2"/>
<path d="M140.424 30.6101H139.888V35.5816H140.424V30.6101Z" fill="#F2F2F2"/>
<path d="M156.763 30.6101H156.227V35.5816H156.763V30.6101Z" fill="#F2F2F2"/>
<path d="M217.031 47.5398H179.531V48.0773H217.031V47.5398Z" fill="#F2F2F2"/>
<path d="M190.245 42.7026H189.709V47.6741H190.245V42.7026Z" fill="#F2F2F2"/>
<path d="M206.584 42.7026H206.049V47.6741H206.584V42.7026Z" fill="#F2F2F2"/>
<path d="M213.281 172.229H175.781V172.767H213.281V172.229Z" fill="#F2F2F2"/>
<path d="M186.495 167.392H185.959V172.364H186.495V167.392Z" fill="#F2F2F2"/>
<path d="M202.834 167.392H202.299V172.364H202.834V167.392Z" fill="#F2F2F2"/>
<path d="M149.263 85.9678H111.763V86.5052H149.263V85.9678Z" fill="#F2F2F2"/>
<path d="M122.477 81.1306H121.942V86.1021H122.477V81.1306Z" fill="#F2F2F2"/>
<path d="M138.816 81.1306H138.281V86.1021H138.816V81.1306Z" fill="#F2F2F2"/>
<path d="M161.049 150.731H123.549V151.268H161.049V150.731Z" fill="#F2F2F2"/>
<path d="M134.263 145.894H133.727V150.865H134.263V145.894Z" fill="#F2F2F2"/>
<path d="M150.602 145.894H150.067V150.865H150.602V145.894Z" fill="#F2F2F2"/>
<path d="M221.049 131.114H183.549V131.651H221.049V131.114Z" fill="#F2F2F2"/>
<path d="M194.263 126.277H193.727V131.248H194.263V126.277Z" fill="#F2F2F2"/>
<path d="M210.602 126.277H210.067V131.248H210.602V126.277Z" fill="#F2F2F2"/>
<path d="M96.9804 188.696H33.5555V188.238H96.5239V166.036H38.8875L36.0876 160.184L36.499 159.986L39.1747 165.578H96.9804V188.696Z" fill="#2F2E41"/>
<path d="M41.9969 199.911C44.6429 199.911 46.788 197.759 46.788 195.104C46.788 192.45 44.6429 190.298 41.9969 190.298C39.3509 190.298 37.2058 192.45 37.2058 195.104C37.2058 197.759 39.3509 199.911 41.9969 199.911Z" fill="#3F3D56"/>
<path d="M89.2233 199.911C91.8694 199.911 94.0144 197.759 94.0144 195.104C94.0144 192.45 91.8694 190.298 89.2233 190.298C86.5773 190.298 84.4323 192.45 84.4323 195.104C84.4323 197.759 86.5773 199.911 89.2233 199.911Z" fill="#3F3D56"/>
<path d="M144.891 95.996C146.529 95.996 147.857 94.6638 147.857 93.0205C147.857 91.3771 146.529 90.0449 144.891 90.0449C143.253 90.0449 141.925 91.3771 141.925 93.0205C141.925 94.6638 143.253 95.996 144.891 95.996Z" fill="#3F3D56"/>
<path d="M103.764 158.482H32.4741L17.0487 107.898H119.65L119.556 108.196L103.764 158.482ZM32.8117 158.025H103.429L119.028 108.356H17.6654L32.8117 158.025Z" fill="#2F2E41"/>
<path d="M98.1991 155.85H35.5827L22.0339 110.988H112.152L112.07 111.252L98.1991 155.85Z" fill="#F2F2F2"/>
<path d="M120.928 103.379L120.487 103.262L123.498 91.876H141.013V92.3339H123.849L120.928 103.379Z" fill="#2F2E41"/>
<path d="M114.523 123.234H22.0334V123.691H114.523V123.234Z" fill="#2F2E41"/>
<path d="M109.226 140.099H27.1765V140.557H109.226V140.099Z" fill="#2F2E41"/>
<path d="M68.576 108.127H68.1198V158.254H68.576V108.127Z" fill="#2F2E41"/>
<path d="M89.0052 108.113L85.7297 158.238L86.1851 158.268L89.4606 108.143L89.0052 108.113Z" fill="#2F2E41"/>
<path d="M47.7002 108.112L47.2448 108.142L50.5012 158.269L50.9566 158.239L47.7002 108.112Z" fill="#2F2E41"/>
<path d="M240 200.202H0V200.739H240V200.202Z" fill="#2F2E41"/>
<path d="M159.485 16.6278C159.485 16.6278 163.401 27.8085 160.991 29.5286C158.581 31.2487 169.124 45.2963 169.124 45.2963L181.774 41.8561L174.846 30.102C174.846 30.102 173.943 18.3479 173.943 16.6278C173.943 14.9077 159.485 16.6278 159.485 16.6278Z" fill="#A0616A"/>
<path opacity="0.1" d="M159.485 16.6278C159.485 16.6278 163.401 27.8085 160.991 29.5286C158.581 31.2487 169.124 45.2963 169.124 45.2963L181.774 41.8561L174.846 30.102C174.846 30.102 173.943 18.3479 173.943 16.6278C173.943 14.9077 159.485 16.6278 159.485 16.6278Z" fill="black"/>
<path d="M152.913 96.3263C152.913 96.3263 151.77 110.661 152.913 118.114C154.056 125.568 155.77 146.21 155.77 146.21C155.77 146.21 155.77 185.199 162.057 185.772C168.343 186.345 172.916 186.919 173.487 184.625C174.059 182.332 170.63 181.185 172.344 180.038C174.059 178.892 174.63 174.878 172.344 170.291C170.058 165.704 172.344 119.261 172.344 119.261L183.203 148.503C183.203 148.503 184.346 172.585 185.489 176.025C186.632 179.465 184.346 185.772 188.346 186.345C192.347 186.919 196.919 183.479 199.205 182.332C201.491 181.185 195.776 181.185 196.919 180.612C198.062 180.038 201.491 178.318 200.348 177.745C199.205 177.171 198.062 149.65 198.062 149.65C198.062 149.65 194.919 90.8793 190.918 88.5858C186.918 86.2923 184.346 90.2427 184.346 90.2427L152.913 96.3263Z" fill="#2F2E41"/>
<path d="M163.2 183.479V188.065C163.2 188.065 158.056 200.534 163.2 200.534C168.343 200.534 172.344 201.826 172.344 200.106V184.625L163.2 183.479Z" fill="#2F2E41"/>
<path d="M196.919 183.47V188.057C196.919 188.057 202.063 200.526 196.919 200.526C191.776 200.526 187.775 201.818 187.775 200.098V184.617L196.919 183.47Z" fill="#2F2E41"/>
<path d="M167.486 24.9416C173.168 24.9416 177.774 20.3209 177.774 14.621C177.774 8.92101 173.168 4.30029 167.486 4.30029C161.805 4.30029 157.199 8.92101 157.199 14.621C157.199 20.3209 161.805 24.9416 167.486 24.9416Z" fill="#A0616A"/>
<path d="M164.343 33.8289C164.343 33.8289 167.201 42.4294 171.773 40.7093L176.345 38.9892L184.346 94.0327C184.346 94.0327 178.059 103.207 168.915 97.473C159.771 91.7393 164.343 33.8289 164.343 33.8289Z" fill="#E1E2E1"/>
<path d="M172.344 32.1086L174.916 26.6616C174.916 26.6616 190.061 33.8288 192.347 36.1222C194.633 38.4157 194.633 41.8559 194.633 41.8559L190.633 56.1902C190.633 56.1902 191.776 87.7256 191.776 88.8723C191.776 90.0191 195.776 96.3261 192.919 94.0326C190.061 91.7392 189.49 89.4457 187.203 92.8859C184.917 96.3261 179.774 100.34 179.774 100.34L172.344 32.1086Z" fill="#3F3D56"/>
<path d="M192.347 73.3914L190.633 89.4457C190.633 89.4457 180.345 98.6196 182.631 99.193C184.917 99.7664 186.06 97.4729 186.06 97.4729C186.06 97.4729 190.061 101.486 192.347 99.193C194.633 96.8995 200.348 75.1115 200.348 75.1115L192.347 73.3914Z" fill="#A0616A"/>
<path d="M167.705 0.0348998C165.425 -0.0468925 162.984 -0.0873523 161.061 1.1456C160.177 1.76437 159.401 2.52645 158.765 3.40063C156.893 5.77577 155.274 8.76422 155.97 11.7111L156.778 11.395C156.778 12.1816 156.604 12.9584 156.268 13.6691C156.381 13.3372 156.763 13.8737 156.66 14.2095L155.771 17.1388C157.234 16.6007 159.054 17.6902 159.276 19.2375C159.378 15.835 159.73 11.9336 162.481 9.9413C163.868 8.93662 165.624 8.62992 167.313 8.35756C168.872 8.10631 170.506 7.86671 171.998 8.38144C173.491 8.89618 174.762 10.4278 174.424 11.9746C175.112 11.7367 175.882 12.2179 176.222 12.8637C176.562 13.5094 176.58 14.2711 176.591 15.0014C177.324 15.5216 178.159 14.4886 178.458 13.6387C179.16 11.6435 179.784 9.51978 179.406 7.43833C179.028 5.35687 177.337 3.36773 175.228 3.36067C175.484 3.07859 175.621 2.70769 175.609 2.32641L173.871 2.17906C174.312 2.11638 174.718 1.90172 175.019 1.57186C174.321 2.34228 168.834 0.0753728 167.705 0.0348998Z" fill="#2F2E41"/>
<path d="M167.2 30.3887C167.2 30.3887 162.548 25.8147 160.874 26.0949C159.199 26.3751 156.913 30.3887 156.913 30.3887C156.913 30.3887 143.197 34.9756 143.768 39.5626C144.34 44.1495 150.627 66.511 150.627 66.511C150.627 66.511 155.77 93.4594 151.198 96.3262C146.626 99.1931 172.916 106.647 173.487 103.207C174.059 99.7665 175.202 65.3643 173.487 60.2039C171.773 55.0436 167.2 30.3887 167.2 30.3887Z" fill="#3F3D56"/>
<path d="M187.203 39.5625H194.27C194.27 39.5625 199.205 61.3506 199.777 63.6441C200.348 65.9375 201.491 76.8316 200.92 76.8316C200.348 76.8316 188.918 74.5381 188.918 76.2582L187.203 39.5625Z" fill="#3F3D56"/>
<path d="M186.964 93.5169H159.911C157.271 81.3329 157.05 69.5609 159.911 58.3137H186.964C182.598 69.3586 182.326 81.0499 186.964 93.5169Z" fill="#F2F2F2"/>
<path d="M148.912 78.5519L156.913 81.9921C156.913 81.9921 172.344 84.2856 172.344 77.9785C172.344 71.6715 156.913 75.1117 156.913 75.1117L151.769 73.4617L148.912 78.5519Z" fill="#A0616A"/>
<path d="M150.626 36.1223L143.768 37.8424L138.625 68.231C138.625 68.231 136.91 76.2582 139.768 76.8316C142.625 77.405 150.626 81.9919 150.626 81.9919C150.626 81.9919 151.769 73.3914 154.055 73.3914L148.34 68.8044L151.769 48.7365L150.626 36.1223Z" fill="#3F3D56"/>
<path d="M53.6379 94.8357H16.1379V95.3731H53.6379V94.8357Z" fill="#F2F2F2"/>
<path d="M26.8522 89.9988H26.3165V94.9702H26.8522V89.9988Z" fill="#F2F2F2"/>
<path d="M43.1915 89.9988H42.6558V94.9702H43.1915V89.9988Z" fill="#F2F2F2"/>
<path d="M66.763 15.2927H29.2629V15.8302H66.763V15.2927Z" fill="#F2F2F2"/>
<path d="M56.5844 15.6958H56.0487V20.6672H56.5844V15.6958Z" fill="#F2F2F2"/>
<path d="M40.2451 15.6958H39.7094V20.6672H40.2451V15.6958Z" fill="#F2F2F2"/>
<path d="M104.531 68.2319H67.0308V68.7694H104.531V68.2319Z" fill="#F2F2F2"/>
<path d="M94.3523 68.635H93.8165V73.6065H94.3523V68.635Z" fill="#F2F2F2"/>
<path d="M78.013 68.635H77.4773V73.6065H78.013V68.635Z" fill="#F2F2F2"/>
<path d="M40.7808 67.9631H3.28076V68.5006H40.7808V67.9631Z" fill="#F2F2F2"/>
<path d="M30.6022 68.3662H30.0665V73.3377H30.6022V68.3662Z" fill="#F2F2F2"/>
<path d="M14.2629 68.3662H13.7272V73.3377H14.2629V68.3662Z" fill="#F2F2F2"/>
<path d="M85.7808 41.0903H48.2808V41.6278H85.7808V41.0903Z" fill="#F2F2F2"/>
<path d="M58.9951 36.2534H58.4594V41.2249H58.9951V36.2534Z" fill="#F2F2F2"/>
<path d="M75.3344 36.2534H74.7987V41.2249H75.3344V36.2534Z" fill="#F2F2F2"/>
</g>
<defs>
<clipPath id="clip0">
<rect width="240" height="201" fill="white"/>
</clipPath>
</defs>
</svg>
