<svg width="25" height="25" viewBox="0 0 25 25" fill="none" xmlns="http://www.w3.org/2000/svg">
<path d="M22.1218 22.6563V14.4918L22.2826 13.6878C22.6897 11.6496 22.8974 9.57668 22.9027 7.49826L24.114 4.47004C24.2375 4.15785 24.2506 3.81281 24.151 3.49218C24.0514 3.17155 23.8452 2.89462 23.5665 2.70735L23.5387 2.68884C22.6571 2.09888 21.6202 1.78394 20.5594 1.78394C19.4986 1.78394 18.4617 2.09888 17.5801 2.68884L17.5524 2.70735C17.2737 2.8946 17.0674 3.17153 16.9678 3.49217C16.8682 3.8128 16.8813 4.15785 17.0048 4.47004L18.2161 7.49831C18.2215 9.57672 18.4291 11.6497 18.8362 13.6878L18.997 14.4919V22.6563C18.997 23.0707 19.1617 23.4681 19.4547 23.7611C19.7477 24.0542 20.1451 24.2188 20.5595 24.2188C20.9739 24.2188 21.3714 24.0542 21.6644 23.7611C21.9574 23.4681 22.122 23.0707 22.122 22.6563H22.1218ZM18.8706 7.03127L17.73 4.17971C17.6724 4.03401 17.6663 3.87297 17.7128 3.72333C17.7592 3.57369 17.8555 3.44444 17.9856 3.35705L18.0133 3.33855C18.7667 2.83441 19.6528 2.56529 20.5593 2.56529C21.4658 2.56529 22.3519 2.83441 23.1052 3.33855L23.133 3.35705C23.2631 3.44444 23.3594 3.57367 23.4059 3.72331C23.4524 3.87295 23.4463 4.03399 23.3887 4.17971L22.248 7.03127H21.4264L21.7235 5.54538C21.7339 5.49496 21.7342 5.44298 21.7245 5.39243C21.7147 5.34188 21.695 5.29376 21.6666 5.25085C21.6381 5.20793 21.6015 5.17105 21.5588 5.14235C21.516 5.11364 21.468 5.09366 21.4176 5.08356C21.3671 5.07346 21.3151 5.07345 21.2646 5.08351C21.2141 5.09357 21.1661 5.11351 21.1234 5.14219C21.0806 5.17087 21.0439 5.20772 21.0155 5.25062C20.987 5.29352 20.9673 5.34162 20.9575 5.39216L20.6299 7.03127H20.4891L20.1611 5.39216C20.1513 5.34162 20.1316 5.29352 20.1032 5.25062C20.0747 5.20772 20.038 5.17087 19.9953 5.14219C19.9525 5.11351 19.9045 5.09357 19.854 5.08351C19.8035 5.07345 19.7515 5.07346 19.7011 5.08356C19.6506 5.09366 19.6026 5.11364 19.5599 5.14235C19.5171 5.17105 19.4805 5.20793 19.452 5.25085C19.4236 5.29376 19.4039 5.34188 19.3942 5.39243C19.3844 5.44298 19.3847 5.49496 19.3951 5.54538L19.6924 7.03127H18.8706ZM21.3405 22.6563C21.3405 22.8635 21.2582 23.0622 21.1117 23.2087C20.9652 23.3552 20.7665 23.4375 20.5593 23.4375C20.3521 23.4375 20.1534 23.3552 20.0069 23.2087C19.8603 23.0622 19.778 22.8635 19.778 22.6563V14.8438H21.3405V22.6563ZM21.4111 14.0625H19.7076L19.6021 13.5346C19.2255 11.6498 19.0236 9.73437 18.999 7.81252H22.1192C22.1094 8.59416 22.0699 9.37541 22.0006 10.1563H20.9499C20.8463 10.1563 20.747 10.1974 20.6737 10.2707C20.6004 10.3439 20.5593 10.4433 20.5593 10.5469C20.5593 10.6505 20.6004 10.7499 20.6737 10.8231C20.747 10.8964 20.8463 10.9375 20.9499 10.9375H21.9221C21.8232 11.8091 21.688 12.6748 21.5165 13.5346L21.4111 14.0625Z" fill="black" fill-opacity="0.5"/>
<path d="M16.3762 12.5992L15.61 12.3439C15.4779 12.2999 15.3372 12.2879 15.1995 12.3089C15.0618 12.3299 14.9311 12.3833 14.8182 12.4647C14.7052 12.5461 14.6132 12.6532 14.5497 12.7772C14.4862 12.9011 14.4531 13.0384 14.4531 13.1776V17.1877C14.3495 17.1877 14.2502 17.2288 14.1769 17.3021C14.1037 17.3754 14.0625 17.4747 14.0625 17.5783V23.8283C14.0625 23.9319 14.1037 24.0313 14.1769 24.1045C14.2502 24.1778 14.3495 24.2189 14.4531 24.2189H17.5781C17.6817 24.2189 17.7811 24.1778 17.8543 24.1045C17.9276 24.0313 17.9688 23.9319 17.9688 23.8283V17.5783C17.9688 17.4747 17.9276 17.3754 17.8543 17.3021C17.7811 17.2288 17.6817 17.1877 17.5781 17.1877V14.2669C17.5784 13.8979 17.4625 13.5381 17.2467 13.2387C17.031 12.9394 16.7264 12.7156 16.3762 12.5992ZM15.2344 13.1776C15.2344 13.1621 15.238 13.1469 15.2451 13.1331C15.2521 13.1193 15.2623 13.1074 15.2749 13.0983C15.2874 13.0892 15.302 13.0833 15.3173 13.0809C15.3326 13.0786 15.3482 13.0799 15.3629 13.0848L16.1291 13.3402C16.3237 13.4049 16.4929 13.5292 16.6128 13.6956C16.7327 13.8619 16.7971 14.0618 16.7969 14.2669V17.1877H15.2344V13.1776ZM17.1875 23.4377H14.8438V19.5314H17.1875V23.4377ZM17.1875 18.7502H14.8438V17.9689H17.1875V18.7502Z" fill="black" fill-opacity="0.5"/>
<path d="M0.78125 20.7031V20.8984C0.782245 21.7787 1.13238 22.6227 1.75485 23.2452C2.37731 23.8676 3.22127 24.2178 4.10156 24.2187H9.96094C10.8412 24.2178 11.6852 23.8676 12.3077 23.2452C12.9301 22.6227 13.2803 21.7787 13.2812 20.8984V20.7031C13.2812 20.5995 13.2401 20.5002 13.1668 20.4269C13.0936 20.3537 12.9942 20.3125 12.8906 20.3125H11.9727C12.3679 19.4789 12.5458 18.5589 12.49 17.6381C12.4341 16.7173 12.1461 15.8256 11.653 15.046C11.1598 14.2663 10.4774 13.6241 9.66936 13.1791C8.86128 12.7341 7.95376 12.5007 7.03125 12.5007C6.10874 12.5007 5.20122 12.7341 4.39314 13.1791C3.58506 13.6241 2.90269 14.2663 2.40953 15.046C1.91637 15.8256 1.62844 16.7173 1.57255 17.6381C1.51665 18.5589 1.6946 19.4789 2.08984 20.3125H1.17188C1.06827 20.3125 0.968918 20.3537 0.895661 20.4269C0.822405 20.5002 0.78125 20.5995 0.78125 20.7031ZM7.03125 13.2812C7.85405 13.2813 8.66234 13.498 9.3749 13.9094C10.0875 14.3208 10.6792 14.9125 11.0906 15.6251C11.502 16.3376 11.7187 17.1459 11.7187 17.9687C11.7188 18.7915 11.5024 19.5999 11.0911 20.3125H10.1576C10.5929 19.732 10.8579 19.0418 10.923 18.3192C10.9881 17.5966 10.8508 16.8702 10.5263 16.2212C10.2018 15.5723 9.70301 15.0266 9.08583 14.6451C8.46864 14.2637 7.75744 14.0617 7.03191 14.0617C6.30638 14.0617 5.59517 14.2637 4.97799 14.6451C4.36081 15.0266 3.86203 15.5723 3.53754 16.2212C3.21305 16.8702 3.07567 17.5966 3.14079 18.3192C3.20592 19.0418 3.47097 19.732 3.90625 20.3125H2.97144C2.56015 19.5999 2.34367 18.7915 2.34375 17.9687C2.34383 17.1459 2.56047 16.3376 2.9719 15.6251C3.38332 14.9125 3.97504 14.3208 4.6876 13.9094C5.40016 13.498 6.20845 13.2813 7.03125 13.2812ZM7.58022 14.893C7.90316 14.9503 8.21496 15.0585 8.504 15.2135L4.70283 20.0514C4.51553 19.842 4.3573 19.6084 4.23242 19.3568L7.58022 14.893ZM3.94277 18.4409C3.87933 18.0301 3.89861 17.6108 3.99947 17.2076C4.10033 16.8044 4.28075 16.4254 4.53011 16.0929C4.77948 15.7604 5.09278 15.4811 5.4516 15.2713C5.81042 15.0616 6.20754 14.9257 6.61963 14.8715L3.94277 18.4409ZM9.1417 15.6664C9.46163 15.9599 9.71719 16.3166 9.89224 16.7139C9.89224 16.7139 7.08535 20.2906 7.07402 20.3125H5.49121L9.1417 15.6664ZM5.85938 21.0937H8.20312C8.30673 21.0937 8.40608 21.1349 8.47934 21.2082C8.5526 21.2814 8.59375 21.3808 8.59375 21.4844C8.59375 21.588 8.5526 21.6873 8.47934 21.7606C8.40608 21.8338 8.30673 21.875 8.20312 21.875H5.85938C5.75577 21.875 5.65642 21.8338 5.58316 21.7606C5.5099 21.6873 5.46875 21.588 5.46875 21.4844C5.46875 21.3808 5.5099 21.2814 5.58316 21.2082C5.65642 21.1349 5.75577 21.0937 5.85938 21.0937ZM8.0582 20.3125L10.141 17.6616C10.1508 17.7627 10.1562 17.8651 10.1562 17.9687C10.1571 18.4123 10.063 18.851 9.88035 19.2552C9.6977 19.6594 9.4307 20.0199 9.09727 20.3125H8.0582ZM4.75469 21.0937C4.69211 21.2705 4.67286 21.4597 4.69857 21.6454C4.72428 21.8311 4.79419 22.008 4.90243 22.1611C5.01067 22.3141 5.15407 22.439 5.32059 22.5252C5.48711 22.6114 5.67188 22.6563 5.85938 22.6562H8.20312C8.39059 22.6563 8.57533 22.6114 8.74184 22.5253C8.90834 22.4391 9.05174 22.3143 9.15998 22.1612C9.26822 22.0082 9.33815 21.8314 9.3639 21.6457C9.38964 21.46 9.37044 21.2708 9.30791 21.0941L9.30952 21.0937H12.4926C12.4426 21.7312 12.1543 22.3264 11.6851 22.7607C11.2159 23.1951 10.6003 23.4367 9.96094 23.4375H4.10156C3.46218 23.4367 2.84656 23.1951 2.37737 22.7607C1.90819 22.3264 1.61989 21.7312 1.56992 21.0937H4.75469Z" fill="black" fill-opacity="0.5"/>
<path d="M11.8927 6.57511L12.5187 6.99245C12.8198 7.19341 13.0633 7.46935 13.2253 7.79308L13.3225 7.98751C13.355 8.05239 13.4048 8.10695 13.4665 8.14508C13.5282 8.18321 13.5993 8.20341 13.6719 8.20341C13.7444 8.20341 13.8155 8.18321 13.8772 8.14508C13.9389 8.10695 13.9888 8.05239 14.0212 7.98751L14.1185 7.79308C14.2804 7.4693 14.5239 7.1933 14.825 6.9923L15.4511 6.57496C15.5119 6.5344 15.5602 6.47757 15.5903 6.41095C15.6204 6.34432 15.6313 6.27057 15.6216 6.19809C15.6119 6.12561 15.582 6.05731 15.5354 6.00096C15.4888 5.94461 15.4273 5.90248 15.3579 5.87936C15.052 5.77657 14.774 5.60431 14.5458 5.37608C14.3175 5.14786 14.1453 4.86988 14.0425 4.56393C14.0166 4.48613 13.9668 4.41846 13.9003 4.37051C13.8338 4.32256 13.7539 4.29675 13.6719 4.29675C13.5899 4.29675 13.51 4.32256 13.4434 4.37051C13.3769 4.41846 13.3272 4.48613 13.3013 4.56393C13.1985 4.86988 13.0262 5.14786 12.798 5.37608C12.5698 5.60431 12.2918 5.77657 11.9858 5.87936C11.9165 5.90248 11.855 5.94461 11.8084 6.00096C11.7617 6.05731 11.7319 6.12561 11.7222 6.19809C11.7125 6.27057 11.7233 6.34432 11.7534 6.41095C11.7836 6.47757 11.8318 6.5344 11.8927 6.57496V6.57511ZM13.6719 5.54537C13.8819 5.84464 14.1469 6.10131 14.4527 6.30177L14.3917 6.34245C14.1134 6.5281 13.8698 6.76106 13.6719 7.03078C13.474 6.761 13.2304 6.52798 12.952 6.3423L12.8911 6.30162C13.1968 6.10121 13.4618 5.84459 13.6719 5.54537Z" fill="black" fill-opacity="0.5"/>
<path d="M11.061 8.22323C10.7551 8.12044 10.4771 7.94818 10.2489 7.71995C10.0207 7.49173 9.8484 7.21375 9.7456 6.9078C9.71969 6.83001 9.66995 6.76234 9.60343 6.71438C9.53692 6.66643 9.457 6.64062 9.375 6.64062C9.293 6.64062 9.21308 6.66643 9.14656 6.71438C9.08004 6.76234 9.0303 6.83001 9.00439 6.9078C8.9016 7.21375 8.72933 7.49173 8.50111 7.71995C8.27289 7.94818 7.99491 8.12044 7.68896 8.22323C7.61958 8.24635 7.55809 8.28849 7.51148 8.34483C7.46487 8.40118 7.43501 8.46948 7.4253 8.54196C7.41559 8.61444 7.42643 8.68819 7.45657 8.75482C7.48671 8.82145 7.53495 8.87827 7.59579 8.91884L8.22182 9.33617C8.52291 9.53713 8.76644 9.81307 8.92841 10.1368L9.02563 10.3312C9.05808 10.3961 9.10795 10.4507 9.16965 10.4888C9.23136 10.5269 9.30246 10.5471 9.375 10.5471C9.44753 10.5471 9.51863 10.5269 9.58034 10.4888C9.64204 10.4507 9.69191 10.3961 9.72436 10.3312L9.82158 10.1368C9.98353 9.81302 10.2271 9.53703 10.5282 9.33602L11.1542 8.91869C11.215 8.87813 11.2633 8.8213 11.2934 8.75467C11.3236 8.68805 11.3344 8.6143 11.3247 8.54182C11.315 8.46933 11.2851 8.40104 11.2385 8.34469C11.1919 8.28834 11.1304 8.24621 11.061 8.22309V8.22323ZM10.0948 8.68617C9.81653 8.87182 9.5729 9.10479 9.375 9.3745C9.17711 9.10472 8.93349 8.87171 8.65517 8.68602L8.59418 8.64535C8.89996 8.44494 9.16491 8.18831 9.375 7.8891C9.58506 8.18837 9.85002 8.44504 10.1558 8.6455L10.0948 8.68617Z" fill="black" fill-opacity="0.5"/>
<path d="M12.0907 3.47665L12.7167 3.05932C12.7775 3.01874 12.8257 2.96192 12.8558 2.89531C12.8859 2.8287 12.8967 2.75498 12.887 2.68253C12.8773 2.61007 12.8475 2.5418 12.8009 2.48546C12.7543 2.42913 12.6929 2.387 12.6235 2.36386C12.3176 2.26106 12.0396 2.0888 11.8114 1.86058C11.5832 1.63236 11.4109 1.35438 11.3081 1.04843C11.2822 0.97063 11.2324 0.902961 11.1659 0.855008C11.0994 0.807055 11.0195 0.78125 10.9375 0.78125C10.8555 0.78125 10.7756 0.807055 10.7091 0.855008C10.6425 0.902961 10.5928 0.97063 10.5669 1.04843C10.4641 1.35438 10.2918 1.63236 10.0636 1.86058C9.83539 2.0888 9.55741 2.26106 9.25146 2.36386C9.18208 2.38698 9.12059 2.42911 9.07398 2.48546C9.02737 2.54181 8.99751 2.61011 8.9878 2.68259C8.97809 2.75507 8.98893 2.82882 9.01907 2.89544C9.04921 2.96207 9.09745 3.0189 9.15829 3.05946L9.78432 3.47665C10.0854 3.67765 10.329 3.95364 10.4909 4.27743L10.5881 4.47186C10.6206 4.53674 10.6704 4.5913 10.7322 4.62943C10.7939 4.66756 10.865 4.68776 10.9375 4.68776C11.01 4.68776 11.0811 4.66756 11.1428 4.62943C11.2045 4.5913 11.2544 4.53674 11.2869 4.47186L11.3841 4.27743C11.546 3.95364 11.7896 3.67765 12.0907 3.47665ZM10.9375 3.51513C10.7396 3.24535 10.496 3.01233 10.2177 2.82665L10.1567 2.78598C10.4625 2.58556 10.7274 2.32894 10.9375 2.02973C11.1476 2.32899 11.4125 2.58566 11.7183 2.78612L11.6573 2.8268C11.379 3.01245 11.1354 3.24541 10.9375 3.51513Z" fill="black" fill-opacity="0.5"/>
</svg>
