<svg width="27" height="20" viewBox="0 0 27 20" fill="none" xmlns="http://www.w3.org/2000/svg">
<path d="M24.8906 0.3125H2.10938C0.946318 0.3125 0 1.25882 0 2.42188V17.6094C0 18.7724 0.946318 19.7188 2.10938 19.7188H24.8906C26.0537 19.7188 27 18.7724 27 17.6094V2.42188C27 1.25882 26.0537 0.3125 24.8906 0.3125Z" fill="#5D647F"/>
<path d="M9.28125 8.75H4.21875C3.75274 8.75 3.375 8.37226 3.375 7.90625V4.53125C3.375 4.06524 3.75274 3.6875 4.21875 3.6875H9.28125C9.74726 3.6875 10.125 4.06524 10.125 4.53125V7.90625C10.125 8.37226 9.74726 8.75 9.28125 8.75Z" fill="#FFD100"/>
<path d="M6.32812 14.2344H4.21875C3.75274 14.2344 3.375 13.8566 3.375 13.3906V12.9688C3.375 12.5027 3.75274 12.125 4.21875 12.125H6.32812C6.79414 12.125 7.17188 12.5027 7.17188 12.9688V13.3906C7.17188 13.8566 6.79414 14.2344 6.32812 14.2344Z" fill="#B8BAC0"/>
<path d="M11.8125 14.2344H9.70312C9.23711 14.2344 8.85938 13.8566 8.85938 13.3906V12.9688C8.85938 12.5027 9.23711 12.125 9.70312 12.125H11.8125C12.2785 12.125 12.6562 12.5027 12.6562 12.9688V13.3906C12.6562 13.8566 12.2785 14.2344 11.8125 14.2344Z" fill="#B8BAC0"/>
<path d="M17.2969 14.2344H15.1875C14.7215 14.2344 14.3438 13.8566 14.3438 13.3906V12.9688C14.3438 12.5027 14.7215 12.125 15.1875 12.125H17.2969C17.7629 12.125 18.1406 12.5027 18.1406 12.9688V13.3906C18.1406 13.8566 17.7629 14.2344 17.2969 14.2344Z" fill="#B8BAC0"/>
<path d="M22.7812 14.2344H20.6719C20.2059 14.2344 19.8281 13.8566 19.8281 13.3906V12.9688C19.8281 12.5027 20.2059 12.125 20.6719 12.125H22.7812C23.2473 12.125 23.625 12.5027 23.625 12.9688V13.3906C23.625 13.8566 23.2473 14.2344 22.7812 14.2344Z" fill="#B8BAC0"/>
<path d="M12.2344 16.7656H3.79688C3.56368 16.7656 3.375 16.5767 3.375 16.3438C3.375 16.1108 3.56368 15.9219 3.79688 15.9219H12.2344C12.4676 15.9219 12.6562 16.1108 12.6562 16.3438C12.6562 16.5767 12.4676 16.7656 12.2344 16.7656Z" fill="#8A8895"/>
<path d="M17.7188 16.7656H13.9219C13.6887 16.7656 13.5 16.5767 13.5 16.3438C13.5 16.1108 13.6887 15.9219 13.9219 15.9219H17.7188C17.9519 15.9219 18.1406 16.1108 18.1406 16.3438C18.1406 16.5767 17.9519 16.7656 17.7188 16.7656Z" fill="#8A8895"/>
<path d="M19.4063 7.90636C18.9428 8.42415 18.2693 8.75 17.5197 8.75C16.1217 8.75 14.9884 7.61674 14.9884 6.21875C14.9884 4.82076 16.1217 3.6875 17.5197 3.6875C18.2692 3.6875 18.9426 4.01324 19.4061 4.53088" fill="#FF4F19"/>
<path d="M10.125 6.64062H5.90625V5.79688H10.125V4.95312H5.90625V3.6875H5.0625V8.75H5.90625V7.48438H10.125V6.64062Z" fill="#FF9500"/>
<path d="M21.0938 8.75C22.4917 8.75 23.625 7.61672 23.625 6.21875C23.625 4.82078 22.4917 3.6875 21.0938 3.6875C19.6958 3.6875 18.5625 4.82078 18.5625 6.21875C18.5625 7.61672 19.6958 8.75 21.0938 8.75Z" fill="#FFD100"/>
</svg>
