<svg width="25" height="25" viewBox="0 0 25 25" fill="none" xmlns="http://www.w3.org/2000/svg">
<g clip-path="url(#clip0)">
<path d="M2.36168 19.2477C2.36168 20.0304 2.99845 20.6672 3.78111 20.6672C4.56383 20.6672 5.2006 20.0304 5.2006 19.2477C5.2006 18.465 4.56383 17.8282 3.78111 17.8282C2.99845 17.8282 2.36168 18.465 2.36168 19.2477ZM4.46822 19.2477C4.46822 19.6266 4.16002 19.9348 3.78116 19.9348C3.4023 19.9348 3.09415 19.6266 3.09415 19.2477C3.09415 18.8689 3.40235 18.5607 3.78116 18.5607C4.15997 18.5607 4.46822 18.8689 4.46822 19.2477Z" fill="black" fill-opacity="0.5"/>
<path d="M5.5857 17.2911C6.20191 17.2911 6.70328 16.7898 6.70328 16.1736C6.70328 15.5573 6.20191 15.056 5.5857 15.056C4.96949 15.056 4.46817 15.5573 4.46817 16.1736C4.46817 16.7898 4.96949 17.2911 5.5857 17.2911ZM5.5857 15.7884C5.7981 15.7884 5.97086 15.9612 5.97086 16.1735C5.97086 16.3859 5.7981 16.5586 5.5857 16.5586C5.37335 16.5586 5.20059 16.3859 5.20059 16.1735C5.20059 15.9612 5.37339 15.7884 5.5857 15.7884Z" fill="black" fill-opacity="0.5"/>
<path d="M9.48278 21.8742C9.48278 21.258 8.98141 20.7567 8.3652 20.7567C7.74899 20.7567 7.24762 21.258 7.24762 21.8742C7.24762 22.4905 7.74899 22.9918 8.3652 22.9918C8.98141 22.9918 9.48278 22.4905 9.48278 21.8742ZM7.98009 21.8742C7.98009 21.6619 8.15284 21.4891 8.36525 21.4891C8.57765 21.4891 8.7504 21.6619 8.7504 21.8742C8.7504 22.0866 8.57765 22.2593 8.36525 22.2593C8.15284 22.2593 7.98009 22.0866 7.98009 21.8742Z" fill="black" fill-opacity="0.5"/>
<path d="M24.2182 15.6957C24.1127 14.9286 23.45 14.3501 22.6768 14.3501H22.4173L22.6673 13.7001C22.7399 13.5113 22.6457 13.2994 22.4569 13.2269C22.2681 13.1542 22.0562 13.2485 21.9837 13.4372L21.6327 14.3501H20.1087C20.0571 14.3253 20.0048 14.3021 19.9516 14.2822C19.5709 14.1403 19.3779 13.9193 19.3779 13.6254C19.3779 13.3515 19.8409 13.1293 20.0403 13.0464C20.632 12.7995 21.056 12.2773 21.1747 11.6493C21.4205 10.3452 21.5321 8.9499 21.5769 8.23379C21.5996 7.86191 21.5154 7.4981 21.3334 7.18169C20.3774 5.51938 18.6456 4.3875 18.0664 4.04102V2.86992H18.0854C18.2877 2.86992 18.4517 2.70596 18.4517 2.50371V1.18687C18.4517 0.532422 17.9192 0 17.2647 0H14.3644C13.7101 0 13.1776 0.532422 13.1776 1.18687V2.50371C13.1776 2.70596 13.3415 2.86992 13.5438 2.86992H13.563V4.04087C13.1892 4.26445 12.3352 4.81558 11.5195 5.62485V5.36792C11.9367 5.14224 12.2207 4.70073 12.2207 4.19409C12.2207 3.45869 11.6224 2.86045 10.887 2.86045H5.10059C4.36519 2.86045 3.76695 3.45874 3.76695 4.19409C3.76695 4.70083 4.05108 5.14243 4.46836 5.36807V6.48852C3.96709 6.78096 2.60532 7.6502 1.40572 9.09126C1.19019 9.35088 1.05283 9.66592 1.0085 10.0025C0.94888 10.4554 0.859524 11.1949 0.772513 12.1453C0.754056 12.3467 0.902395 12.5249 1.10381 12.5434C1.11514 12.5444 1.12642 12.5449 1.1376 12.5449C1.32476 12.5449 1.48448 12.4021 1.50186 12.2121C1.5878 11.2736 1.67583 10.5444 1.73462 10.0981C1.75376 9.95293 1.8023 9.81479 1.87613 9.69131H10.1751C10.2397 10.3005 10.33 10.9869 10.4545 11.6491C10.5726 12.2771 10.9967 12.7995 11.5893 13.0465C11.7882 13.1292 12.2509 13.3513 12.2509 13.6253C12.2509 13.9194 12.0581 14.1404 11.6775 14.2823C10.9942 14.5375 10.5124 15.1671 10.4501 15.8861C10.306 17.5448 10.199 20.7543 11.1024 23.614C11.1785 23.8549 11.2971 24.0727 11.4483 24.2607C11.378 24.265 11.3075 24.2676 11.2368 24.2676H4.75049C2.97998 24.2676 1.49151 22.887 1.36182 21.1246C1.19434 18.848 1.2024 16.3377 1.38584 13.6633C1.39966 13.4615 1.24732 13.2868 1.04556 13.2729C0.843948 13.2589 0.668948 13.4114 0.65513 13.6132C0.469339 16.3221 0.461331 18.8673 0.631399 21.1783C0.708059 22.2207 1.17285 23.1864 1.94014 23.8978C2.70674 24.6085 3.70484 25 4.75049 25H11.2368C11.5907 25 11.941 24.9551 12.2803 24.8668C12.5048 24.953 12.748 24.9998 13.0005 24.9998L22.6768 25C23.45 25 24.1127 24.4215 24.2182 23.6543C24.5812 21.0139 24.5812 18.3362 24.2182 15.6957ZM23.7239 21.059C23.4322 21.2375 23.1003 21.3313 22.7543 21.3313C21.728 21.3313 20.8931 20.4965 20.8931 19.4705C20.8931 18.4442 21.7281 17.6092 22.7543 17.6092C23.0909 17.6092 23.4144 17.698 23.6998 17.8669C23.7673 18.9298 23.7756 19.9955 23.7239 21.059ZM20.8458 8.18853C20.8109 8.74815 20.7341 9.73262 20.5825 10.7523H11.0471C10.8957 9.73354 10.8184 8.74863 10.783 8.18896C10.769 7.96045 10.82 7.73857 10.9307 7.54668C10.9754 7.46899 11.0222 7.39258 11.0707 7.31729H20.5584C20.607 7.39258 20.6539 7.46904 20.6985 7.54673C20.8089 7.73853 20.8598 7.9606 20.8458 8.18853ZM5.20078 5.52778H10.7871V6.33682H5.20078V5.52778ZM13.91 1.18687C13.91 0.936279 14.1139 0.732422 14.3644 0.732422H17.2647C17.5153 0.732422 17.7192 0.936279 17.7192 1.18687V2.1375H13.91V1.18687ZM17.3339 2.86992V3.88647H14.2954V2.86992H17.3339ZM14.0257 4.6189H17.6035C17.9127 4.79951 19.0747 5.51582 20.0045 6.58491H11.6246C12.5544 5.51562 13.7169 4.79927 14.0257 4.6189ZM5.10059 3.59287H10.887C11.2185 3.59287 11.4882 3.8626 11.4882 4.19409C11.4882 4.52549 11.2187 4.79507 10.8874 4.79531H5.1001C4.76875 4.79507 4.49932 4.52544 4.49932 4.19409C4.49932 3.8626 4.76904 3.59287 5.10059 3.59287ZM2.51138 8.95889C3.56821 7.87544 4.63999 7.23281 4.92876 7.06934H10.3626C10.3402 7.10645 10.3178 7.14346 10.2961 7.1811C10.1137 7.49731 10.0292 7.86128 10.052 8.23442C10.0644 8.43027 10.0819 8.67725 10.1056 8.95889H2.51138ZM22.6768 24.2676H18.6289V24.2673H18.3721C17.9649 24.2649 17.6167 23.9594 17.5611 23.5546C17.5034 23.1349 17.4549 22.7124 17.4169 22.299C17.3984 22.0976 17.2202 21.9491 17.0187 21.9678C16.8173 21.9863 16.6691 22.1646 16.6876 22.366C16.7266 22.7903 16.7764 23.2237 16.8355 23.6543C16.8663 23.878 16.9446 24.0854 17.059 24.2673H13.0005C12.448 24.2673 11.9659 23.9161 11.8009 23.3933C10.9356 20.6544 11.0404 17.5539 11.1798 15.9494C11.2178 15.5103 11.5138 15.1252 11.9336 14.9684C12.6007 14.7197 12.9833 14.2301 12.9833 13.6253C12.9833 13.2639 12.7903 12.7528 11.8709 12.3703C11.5071 12.2187 11.2467 11.8984 11.1744 11.5137C11.1726 11.5041 11.1708 11.4943 11.169 11.4847H20.4603C20.4585 11.4942 20.4568 11.5039 20.455 11.5134C20.3822 11.8983 20.1218 12.2187 19.7586 12.3702C18.8385 12.753 18.6454 13.264 18.6454 13.6253C18.6454 13.8932 18.7208 14.1383 18.8624 14.3501H18.3769C17.6036 14.3501 16.9409 14.9286 16.8354 15.6957C16.599 17.4121 16.516 19.161 16.5886 20.8937C16.5971 21.0958 16.7698 21.2525 16.9698 21.2443C17.1719 21.2358 17.3289 21.0651 17.3204 20.8631C17.2497 19.1739 17.3306 17.4689 17.561 15.7955C17.6169 15.3891 17.9677 15.0825 18.3769 15.0825H22.6768C23.086 15.0825 23.4367 15.3891 23.4927 15.7955C23.5491 16.206 23.5955 16.6175 23.6339 17.0295C23.3546 16.9289 23.0582 16.8768 22.7543 16.8768C21.3242 16.8768 20.1606 18.0403 20.1606 19.4705C20.1606 20.9004 21.3242 22.0637 22.7543 22.0637C23.0715 22.0637 23.3803 22.0071 23.6702 21.8976C23.6269 22.4511 23.5684 23.0037 23.4927 23.5545C23.4367 23.961 23.086 24.2676 22.6768 24.2676Z" fill="black" fill-opacity="0.5"/>
</g>
<defs>
<clipPath id="clip0">
<rect width="25" height="25" fill="white"/>
</clipPath>
</defs>
</svg>
