<svg width="25" height="25" viewBox="0 0 25 25" fill="none" xmlns="http://www.w3.org/2000/svg">
<path d="M24.5833 0H13.75C13.5199 0 13.3333 0.186564 13.3333 0.416667V23.75C13.3333 23.9801 13.5199 24.1667 13.75 24.1667H14.1666V25H15V24.1667H23.3333V25H24.1666V24.1667H24.5833C24.8134 24.1667 25 23.9801 25 23.75V0.416667C25 0.186564 24.8134 0 24.5833 0ZM24.1666 23.3333H14.1666V8.75H24.1666V23.3333ZM24.1666 7.91667H14.1666V0.833333H24.1666V7.91667Z" fill="#008E3A"/>
<path d="M15.4167 2.91663H16.25V7.08329H15.4167V2.91663Z" fill="#008E3A"/>
<path d="M15.4167 9.58337H16.25V15.4167H15.4167V9.58337Z" fill="#008E3A"/>
<path d="M0.416667 24.1667H0.833333V25H1.66667V24.1667H10.8333V25H11.6667V24.1667H12.0833C12.3134 24.1667 12.5 23.9801 12.5 23.75V9.16667C12.5 8.93656 12.3134 8.75 12.0833 8.75H0.416667C0.186564 8.75 0 8.93656 0 9.16667V23.75C0 23.9801 0.186564 24.1667 0.416667 24.1667ZM0.833333 9.58333H11.6667V12.0833H0.833333V9.58333ZM0.833333 12.9167H11.6667V23.3333H0.833333V12.9167Z" fill="#008E3A"/>
<path d="M6.25002 13.3334C3.71869 13.3334 1.66669 15.3854 1.66669 17.9167C1.66669 20.448 3.71869 22.5 6.25002 22.5C8.78135 22.5 10.8334 20.448 10.8334 17.9167C10.8303 15.3866 8.78013 13.3364 6.25002 13.3334ZM6.25002 21.6667C4.60309 21.6694 3.14699 20.5972 2.66095 19.0235C2.17491 17.45 2.77244 15.7432 4.13393 14.8165C5.49542 13.89 7.30227 13.9602 8.58787 14.9897L7.99583 15.5833C6.79262 14.6707 5.09218 14.8249 4.07269 15.9394C3.05341 17.0537 3.05076 18.761 4.06679 19.8784C5.08282 20.9959 6.78265 21.1552 7.98871 20.2462L8.58787 20.8454C7.92503 21.3778 7.10024 21.6675 6.25002 21.6667ZM7.20542 19.4613L7.39423 19.6501C6.52427 20.2281 5.36074 20.0729 4.67307 19.2867C3.98521 18.5006 3.98602 17.3267 4.6747 16.5414C5.36338 15.7561 6.52712 15.6021 7.39626 16.1813L7.20542 16.3721C7.1273 16.4502 7.08335 16.5562 7.08335 16.6667V19.1667C7.08335 19.2772 7.1273 19.3832 7.20542 19.4613ZM9.17706 20.2529L7.91669 18.9942V16.8392L9.17706 15.5789C10.2743 16.9442 10.2743 18.8892 9.17706 20.2546V20.2529Z" fill="#008E3A"/>
<path d="M1.66669 10.4166H2.50002V11.25H1.66669V10.4166Z" fill="#008E3A"/>
<path d="M3.33331 10.4166H4.16665V11.25H3.33331V10.4166Z" fill="#008E3A"/>
<path d="M5 10.4166H5.83333V11.25H5V10.4166Z" fill="#008E3A"/>
<path d="M8.33331 10.4166H10.8333V11.25H8.33331V10.4166Z" fill="#008E3A"/>
<path d="M0.416667 7.91667H12.0833C12.3134 7.91667 12.5 7.7301 12.5 7.5V0.416667C12.5 0.186564 12.3134 0 12.0833 0H0.416667C0.186564 0 0 0.186564 0 0.416667V7.5C0 7.7301 0.186564 7.91667 0.416667 7.91667ZM9.16667 0.833333H11.6667V7.08333H9.16667V0.833333ZM0.833333 0.833333H8.33333V7.08333H0.833333V0.833333Z" fill="#008E3A"/>
<path d="M10 1.66663H10.8333V2.49996H10V1.66663Z" fill="#008E3A"/>
<path d="M10 3.33337H10.8333V4.16671H10V3.33337Z" fill="#008E3A"/>
<path d="M7.08335 1.66663H2.08335C1.85325 1.66663 1.66669 1.85319 1.66669 2.08329V5.83329C1.66669 6.0634 1.85325 6.24996 2.08335 6.24996H7.08335C7.31346 6.24996 7.50002 6.0634 7.50002 5.83329V2.08329C7.50002 1.85319 7.31346 1.66663 7.08335 1.66663ZM6.66669 5.41663H2.50002V2.49996H6.66669V5.41663Z" fill="#008E3A"/>
<path d="M10.4167 5.20837C10.0714 5.20837 9.79169 5.48812 9.79169 5.83337C9.79169 6.17863 10.0714 6.45837 10.4167 6.45837C10.7619 6.45837 11.0417 6.17863 11.0417 5.83337C11.0417 5.48812 10.7619 5.20837 10.4167 5.20837ZM10.4167 6.04171C10.3015 6.04171 10.2084 5.94853 10.2084 5.83337C10.2084 5.71822 10.3015 5.62504 10.4167 5.62504C10.5318 5.62504 10.625 5.71822 10.625 5.83337C10.625 5.94853 10.5318 6.04171 10.4167 6.04171Z" fill="#008E3A"/>
</svg>
