<svg width="270" height="210" viewBox="0 0 270 210" fill="none" xmlns="http://www.w3.org/2000/svg">
<g clip-path="url(#clip0_723:1351)">
<path d="M263.698 209.763H101.701C100.03 209.761 98.4284 209.042 97.2469 207.764C96.0655 206.486 95.4009 204.753 95.399 202.945V6.8183C95.4009 5.0106 96.0655 3.27752 97.2469 1.99928C98.4284 0.721043 100.03 0.00203501 101.701 0H263.698C265.369 0.00203501 266.971 0.721043 268.152 1.99928C269.334 3.27752 269.998 5.0106 270 6.8183V202.945C269.998 204.753 269.334 206.486 268.152 207.764C266.971 209.042 265.369 209.761 263.698 209.763ZM101.701 0.802153C100.227 0.803958 98.8134 1.43838 97.7709 2.56623C96.7285 3.69409 96.1421 5.22328 96.1405 6.8183V202.945C96.1421 204.54 96.7285 206.069 97.7709 207.197C98.8134 208.325 100.227 208.959 101.701 208.961H263.698C265.172 208.959 266.586 208.325 267.628 207.197C268.671 206.069 269.257 204.54 269.259 202.945V6.8183C269.257 5.22328 268.671 3.69409 267.628 2.56623C266.586 1.43838 265.172 0.803958 263.698 0.802153H101.701Z" fill="black"/>
<path d="M269.629 16.6809H95.7698V17.4831H269.629V16.6809Z" fill="black"/>
<path d="M104.296 12.0322C105.934 12.0322 107.262 10.5957 107.262 8.8236C107.262 7.05154 105.934 5.61499 104.296 5.61499C102.658 5.61499 101.33 7.05154 101.33 8.8236C101.33 10.5957 102.658 12.0322 104.296 12.0322Z" fill="#E1E2E1"/>
<path d="M113.564 12.0322C115.201 12.0322 116.529 10.5957 116.529 8.8236C116.529 7.05154 115.201 5.61499 113.564 5.61499C111.926 5.61499 110.598 7.05154 110.598 8.8236C110.598 10.5957 111.926 12.0322 113.564 12.0322Z" fill="#E1E2E1"/>
<path d="M122.831 12.0322C124.469 12.0322 125.797 10.5957 125.797 8.8236C125.797 7.05154 124.469 5.61499 122.831 5.61499C121.193 5.61499 119.865 7.05154 119.865 8.8236C119.865 10.5957 121.193 12.0322 122.831 12.0322Z" fill="#E1E2E1"/>
<path d="M240.529 46.1238H124.87C123.592 46.1238 122.366 45.5745 121.462 44.5966C120.559 43.6188 120.051 42.2926 120.051 40.9098C120.051 39.527 120.559 38.2008 121.462 37.2229C122.366 36.2451 123.592 35.6958 124.87 35.6958H240.529C241.807 35.6958 243.033 36.2451 243.937 37.2229C244.841 38.2008 245.348 39.527 245.348 40.9098C245.348 42.2926 244.841 43.6188 243.937 44.5966C243.033 45.5745 241.807 46.1238 240.529 46.1238ZM124.87 36.498C123.788 36.498 122.751 36.9628 121.987 37.7902C121.222 38.6175 120.792 39.7397 120.792 40.9098C120.792 42.0799 121.222 43.2021 121.987 44.0294C122.751 44.8568 123.788 45.3216 124.87 45.3216H240.529C241.611 45.3216 242.648 44.8568 243.413 44.0294C244.177 43.2021 244.607 42.0799 244.607 40.9098C244.607 39.7397 244.177 38.6175 243.413 37.7902C242.648 36.9628 241.611 36.498 240.529 36.498H124.87Z" fill="black"/>
<path d="M211.931 87.2707H159.291C158.505 87.2707 157.75 86.9327 157.194 86.331C156.638 85.7292 156.326 84.9131 156.326 84.0621C156.326 83.2112 156.638 82.395 157.194 81.7933C157.75 81.1916 158.505 80.8535 159.291 80.8535H211.931C212.718 80.8535 213.472 81.1916 214.028 81.7933C214.584 82.395 214.897 83.2112 214.897 84.0621C214.897 84.9131 214.584 85.7292 214.028 86.331C213.472 86.9327 212.718 87.2707 211.931 87.2707Z" fill="#CCCCCC"/>
<path d="M242.329 98.0998H159.291C158.505 98.0998 157.75 97.7618 157.194 97.1601C156.638 96.5583 156.326 95.7422 156.326 94.8912C156.326 94.0403 156.638 93.2241 157.194 92.6224C157.75 92.0207 158.505 91.6826 159.291 91.6826H242.329C243.115 91.6826 243.87 92.0207 244.426 92.6224C244.982 93.2241 245.294 94.0403 245.294 94.8912C245.294 95.7422 244.982 96.5583 244.426 97.1601C243.87 97.7618 243.115 98.0998 242.329 98.0998Z" fill="#CCCCCC"/>
<path d="M139.567 98.7012H123.626C122.693 98.7001 121.798 98.2983 121.137 97.584C120.477 96.8697 120.106 95.9012 120.105 94.891V84.0619C120.106 83.0518 120.477 82.0833 121.137 81.369C121.798 80.6547 122.693 80.2529 123.626 80.2517H139.567C140.5 80.2529 141.395 80.6547 142.056 81.369C142.716 82.0833 143.087 83.0518 143.088 84.0619V94.891C143.087 95.9012 142.716 96.8697 142.056 97.584C141.395 98.2983 140.5 98.7001 139.567 98.7012ZM123.626 81.0539C122.889 81.0547 122.183 81.3719 121.661 81.9359C121.14 82.4998 120.847 83.2644 120.846 84.0619V94.891C120.847 95.6885 121.14 96.4531 121.661 97.017C122.183 97.581 122.889 97.8982 123.626 97.8991H139.567C140.304 97.8982 141.01 97.581 141.532 97.017C142.053 96.4531 142.346 95.6885 142.347 94.891V84.0619C142.346 83.2644 142.053 82.4998 141.532 81.9359C141.01 81.3719 140.304 81.0547 139.567 81.0539H123.626Z" fill="#CCCCCC"/>
<path d="M211.931 125.373H159.291C158.505 125.373 157.75 125.035 157.194 124.433C156.638 123.831 156.326 123.015 156.326 122.164C156.326 121.313 156.638 120.497 157.194 119.895C157.75 119.293 158.505 118.955 159.291 118.955H211.931C212.718 118.955 213.472 119.293 214.028 119.895C214.584 120.497 214.897 121.313 214.897 122.164C214.897 123.015 214.584 123.831 214.028 124.433C213.472 125.035 212.718 125.373 211.931 125.373Z" fill="#CCCCCC"/>
<path d="M242.329 136.202H159.291C158.505 136.202 157.75 135.864 157.194 135.262C156.638 134.66 156.326 133.844 156.326 132.993C156.326 132.142 156.638 131.326 157.194 130.724C157.75 130.122 158.505 129.784 159.291 129.784H242.329C243.115 129.784 243.87 130.122 244.426 130.724C244.982 131.326 245.294 132.142 245.294 132.993C245.294 133.844 244.982 134.66 244.426 135.262C243.87 135.864 243.115 136.202 242.329 136.202Z" fill="#CCCCCC"/>
<path d="M139.567 136.803H123.626C122.693 136.802 121.798 136.4 121.137 135.686C120.477 134.972 120.106 134.003 120.105 132.993V122.164C120.106 121.154 120.477 120.185 121.137 119.471C121.798 118.757 122.693 118.355 123.626 118.354H139.567C140.5 118.355 141.395 118.757 142.056 119.471C142.716 120.185 143.087 121.154 143.088 122.164V132.993C143.087 134.003 142.716 134.972 142.056 135.686C141.395 136.4 140.5 136.802 139.567 136.803ZM123.626 119.156C122.889 119.157 122.183 119.474 121.661 120.038C121.14 120.602 120.847 121.366 120.846 122.164V132.993C120.847 133.791 121.14 134.555 121.661 135.119C122.183 135.683 122.889 136 123.626 136.001H139.567C140.304 136 141.01 135.683 141.532 135.119C142.053 134.555 142.346 133.791 142.347 132.993V122.164C142.346 121.366 142.053 120.602 141.532 120.038C141.01 119.474 140.304 119.157 139.567 119.156H123.626Z" fill="#CCCCCC"/>
<path d="M211.931 163.475H159.291C158.505 163.475 157.75 163.137 157.194 162.535C156.638 161.933 156.326 161.117 156.326 160.266C156.326 159.415 156.638 158.599 157.194 157.997C157.75 157.396 158.505 157.058 159.291 157.058H211.931C212.718 157.058 213.472 157.396 214.028 157.997C214.584 158.599 214.897 159.415 214.897 160.266C214.897 161.117 214.584 161.933 214.028 162.535C213.472 163.137 212.718 163.475 211.931 163.475Z" fill="#F2F2F2"/>
<path d="M242.329 174.304H159.291C158.505 174.304 157.75 173.966 157.194 173.364C156.638 172.762 156.326 171.946 156.326 171.095C156.326 170.244 156.638 169.428 157.194 168.826C157.75 168.225 158.505 167.887 159.291 167.887H242.329C243.115 167.887 243.87 168.225 244.426 168.826C244.982 169.428 245.294 170.244 245.294 171.095C245.294 171.946 244.982 172.762 244.426 173.364C243.87 173.966 243.115 174.304 242.329 174.304Z" fill="#F2F2F2"/>
<path d="M139.567 174.906H123.626C122.693 174.904 121.798 174.503 121.137 173.788C120.477 173.074 120.106 172.106 120.105 171.095V160.266C120.106 159.256 120.477 158.288 121.137 157.573C121.798 156.859 122.693 156.457 123.626 156.456H139.567C140.5 156.457 141.395 156.859 142.056 157.573C142.716 158.288 143.087 159.256 143.088 160.266V171.095C143.087 172.106 142.716 173.074 142.056 173.788C141.395 174.503 140.5 174.904 139.567 174.906Z" fill="#F2F2F2"/>
<path d="M131.597 95.3876L130.738 94.5498C127.69 91.522 125.678 89.5567 125.678 87.1087C125.67 86.6429 125.749 86.1802 125.91 85.748C126.07 85.3158 126.31 84.9229 126.613 84.5925C126.917 84.2621 127.278 84.0009 127.677 83.8244C128.075 83.648 128.503 83.5598 128.933 83.5652C129.441 83.5681 129.943 83.6906 130.403 83.9243C130.863 84.1579 131.27 84.4971 131.597 84.9182C131.923 84.4971 132.331 84.1579 132.791 83.9243C133.251 83.6906 133.752 83.5681 134.26 83.5652C134.691 83.5598 135.118 83.648 135.516 83.8244C135.915 84.0009 136.276 84.2621 136.58 84.5925C136.884 84.9229 137.123 85.3158 137.283 85.748C137.444 86.1802 137.523 86.6429 137.515 87.1087C137.515 89.5568 135.503 91.522 132.455 94.5498L131.597 95.3876Z" fill="#2F2E41"/>
<path d="M131.597 133.49L130.738 132.652C127.69 129.624 125.678 127.659 125.678 125.211C125.67 124.745 125.749 124.282 125.91 123.85C126.07 123.418 126.31 123.025 126.613 122.695C126.917 122.364 127.278 122.103 127.677 121.927C128.075 121.75 128.503 121.662 128.933 121.667C129.441 121.67 129.943 121.793 130.403 122.027C130.863 122.26 131.27 122.599 131.597 123.02C131.923 122.599 132.331 122.26 132.791 122.027C133.251 121.793 133.752 121.67 134.26 121.667C134.691 121.662 135.118 121.75 135.516 121.927C135.915 122.103 136.276 122.364 136.58 122.695C136.884 123.025 137.123 123.418 137.283 123.85C137.444 124.282 137.523 124.745 137.515 125.211C137.515 127.659 135.503 129.624 132.455 132.652L131.597 133.49Z" fill="#2F2E41"/>
<path d="M64.2541 127.08H48.3139C47.3802 127.079 46.4851 126.677 45.8249 125.963C45.1647 125.249 44.7933 124.28 44.7922 123.27V112.441C44.7933 111.431 45.1647 110.462 45.8249 109.748C46.4851 109.034 47.3802 108.632 48.3139 108.631H64.2541C65.1878 108.632 66.0829 109.034 66.7432 109.748C67.4034 110.462 67.7747 111.431 67.7758 112.441V123.27C67.7747 124.28 67.4034 125.249 66.7432 125.963C66.0829 126.677 65.1878 127.079 64.2541 127.08ZM48.3139 109.433C47.5768 109.434 46.8701 109.751 46.3489 110.315C45.8277 110.879 45.5345 111.643 45.5336 112.441V123.27C45.5345 124.067 45.8277 124.832 46.3489 125.396C46.8701 125.96 47.5768 126.277 48.3139 126.278H64.2541C64.9913 126.277 65.698 125.96 66.2192 125.396C66.7404 124.832 67.0336 124.067 67.0344 123.27V112.441C67.0336 111.643 66.7404 110.879 66.2192 110.315C65.698 109.751 64.9913 109.434 64.2541 109.433H48.3139Z" fill="#3F3D56"/>
<path d="M56.2841 123.767L55.4257 122.929C52.3776 119.901 50.3652 117.936 50.3652 115.488C50.3577 115.022 50.4366 114.559 50.5973 114.127C50.7579 113.695 50.9971 113.302 51.3007 112.972C51.6042 112.641 51.9659 112.38 52.3644 112.204C52.7629 112.027 53.1901 111.939 53.6206 111.944C54.1287 111.947 54.6301 112.07 55.0901 112.303C55.55 112.537 55.9575 112.876 56.2841 113.297C56.6107 112.876 57.0181 112.537 57.4781 112.303C57.938 112.07 58.4395 111.947 58.9476 111.944C59.3781 111.939 59.8053 112.027 60.2038 112.204C60.6023 112.38 60.964 112.641 61.2675 112.972C61.5711 113.302 61.8102 113.695 61.9709 114.127C62.1316 114.559 62.2105 115.022 62.2029 115.488C62.2029 117.936 60.1906 119.901 57.1424 122.929L56.2841 123.767Z" fill="#2F2E41"/>
<path d="M47.0662 205.394L51.1892 204.333L49.3683 186.622L43.2832 188.188L47.0662 205.394Z" fill="#FFB8B8"/>
<path d="M60.051 206.428L47.0933 209.763L45.9024 204.347L53.8538 202.3C54.5112 202.131 55.193 202.104 55.8603 202.22C56.5275 202.335 57.1671 202.592 57.7426 202.976C58.3181 203.359 58.8181 203.861 59.2142 204.454C59.6103 205.046 59.8946 205.717 60.051 206.428Z" fill="#2F2E41"/>
<path d="M43.0194 193.99L34.0649 160.786L45.2546 157.783L51.819 192.948C51.8671 193.205 51.8627 193.471 51.8059 193.727C51.7492 193.982 51.6416 194.221 51.4906 194.427C51.3396 194.633 51.1488 194.801 50.9317 194.919C50.7146 195.036 50.4763 195.102 50.2335 195.109L44.6703 195.288C44.6536 195.289 44.6369 195.289 44.6203 195.289C44.2594 195.289 43.9084 195.162 43.6198 194.928C43.3311 194.694 43.1204 194.364 43.0194 193.99Z" fill="#B1ACAC"/>
<path d="M21.5342 205.505L25.7721 205.505L27.7876 187.819L21.5327 187.82L21.5342 205.505Z" fill="#FFB8B8"/>
<path d="M33.9457 209.762L20.6264 209.763L20.626 204.195L28.7991 204.195C30.164 204.195 31.4729 204.781 32.4381 205.825C33.4033 206.869 33.9456 208.285 33.9457 209.762Z" fill="#2F2E41"/>
<path d="M20.79 198.634C20.6343 198.47 20.51 198.275 20.4245 198.06C20.3389 197.845 20.2937 197.613 20.2916 197.378L16.4306 164.255C16.429 163.778 16.6023 163.319 16.9126 162.979C17.2229 162.639 17.645 162.446 18.0866 162.442L26.7048 162.374H26.7171C27.1547 162.375 27.5745 162.562 27.8862 162.894C28.198 163.227 28.377 163.678 28.3849 164.151L28.843 196.781C28.8499 197.257 28.6824 197.717 28.3771 198.06C28.0718 198.403 27.6536 198.601 27.2135 198.612L21.9819 199.15C21.9738 199.15 21.9657 199.15 21.9577 199.15C21.5207 199.151 21.101 198.966 20.79 198.634Z" fill="#B1ACAC"/>
<path d="M22.6368 89.0025C27.6653 89.0025 31.7417 84.5921 31.7417 79.1516C31.7417 73.7112 27.6653 69.3008 22.6368 69.3008C17.6084 69.3008 13.532 73.7112 13.532 79.1516C13.532 84.5921 17.6084 89.0025 22.6368 89.0025Z" fill="#FFB8B8"/>
<path d="M10.642 162.525C4.71805 157.517 4.78076 151.675 6.80214 143.871C7.37159 141.673 7.9862 139.445 8.63683 137.086C11.6599 126.127 15.0863 113.705 13.7855 103.448L13.9691 103.421L13.7855 103.448C13.4292 100.639 14.3374 97.6845 16.2771 95.3419C18.2168 92.9989 20.8277 91.7007 23.4522 91.7739C26.0721 91.8495 28.6197 93.2985 30.4415 95.7496C32.2545 98.1888 33.1198 106.766 33.3763 107.995C34.5538 113.637 35.2645 117.042 35.7742 122.475C36.3771 128.897 43.597 148.1 45.8977 151.32C46.5083 152.17 46.9454 153.151 47.1803 154.197C47.4153 155.243 47.4427 156.331 47.2607 157.39C47.0911 158.396 46.7235 159.352 46.1827 160.192C45.6419 161.032 44.9406 161.736 44.1263 162.257C40.3926 164.726 36.2899 166.473 32.002 167.419C30.1421 167.809 28.2519 168.006 26.3573 168.007C20.4791 168.007 14.8625 166.093 10.642 162.525Z" fill="#2F2E41"/>
<path d="M48.5047 125.413C48.2689 124.925 47.9373 124.5 47.5332 124.167C47.1291 123.833 46.6623 123.6 46.1658 123.483C45.6693 123.366 45.1551 123.368 44.6594 123.489C44.1637 123.61 43.6986 123.847 43.2969 124.184L36.3976 119.925L32.9827 123.83L42.8038 129.697C43.3713 130.389 44.154 130.833 45.0035 130.943C45.853 131.053 46.7103 130.822 47.413 130.294C48.1157 129.766 48.615 128.978 48.8162 128.078C49.0174 127.178 48.9065 126.23 48.5047 125.413V125.413Z" fill="#FFB8B8"/>
<path d="M37.9873 128.3L25.6217 124.097C23.9615 123.528 22.5023 122.423 21.4411 120.929C20.3799 119.435 19.7677 117.625 19.687 115.743L19.1549 102.744C19.125 102.012 19.2318 101.282 19.4687 100.596C19.7057 99.9108 20.0681 99.284 20.5341 98.7534C21.0002 98.2228 21.5603 97.7993 22.1811 97.5083C22.8019 97.2174 23.4706 97.0649 24.1471 97.0599C24.8237 97.055 25.4942 97.1978 26.1186 97.4797C26.7429 97.7616 27.3083 98.1768 27.7809 98.7006C28.2535 99.2244 28.6237 99.8459 28.8691 100.528C29.1146 101.21 29.2304 101.939 29.2096 102.67L28.8695 114.63L42.0301 120.437C42.2625 120.54 42.4705 120.698 42.6386 120.9C42.8067 121.101 42.9306 121.341 43.0011 121.602C43.0716 121.862 43.0868 122.137 43.0456 122.405C43.0045 122.673 42.908 122.927 42.7633 123.149L39.8507 127.618C39.6474 127.931 39.3571 128.166 39.0221 128.289C38.687 128.411 38.3245 128.415 37.9873 128.3H37.9873Z" fill="#B1ACAC"/>
<path d="M7.96341 91.4098C8.37946 88.7101 8.36417 85.912 8.34932 83.2059C8.34534 82.4713 8.34126 81.7369 8.34543 81.0039C8.3648 77.5973 8.5602 73.9866 9.84743 70.6627C11.2484 67.0452 13.8428 64.4329 16.7874 63.675C20.1073 62.8196 23.7096 64.7106 24.7941 67.8242C25.511 67.3861 26.3089 67.1256 27.1301 67.0616C27.9514 66.9976 28.7755 67.1316 29.5431 67.4539C30.3106 67.7763 31.0025 68.279 31.5687 68.9257C32.135 69.5724 32.5615 70.3471 32.8175 71.1938C33.0734 72.0405 33.1525 72.9381 33.049 73.8218C32.9454 74.7056 32.6619 75.5535 32.2188 76.3043C31.7756 77.0551 31.184 77.6902 30.4865 78.1636C29.7891 78.637 29.0032 78.937 28.1855 79.042L28.0464 79.0553L26.9616 76.005C26.9554 76.0584 26.9495 76.1125 26.9436 76.1669C26.8745 76.7995 26.8031 77.4534 26.3204 77.8312C25.7179 78.3027 24.9674 79.8547 25.1867 81.4271C25.3234 82.2317 25.5272 83.0212 25.7954 83.786C26.0936 84.6256 26.31 85.4966 26.4413 86.3848C26.5792 87.5233 26.3038 88.6754 25.6731 89.5989C25.4861 89.8684 25.2504 90.0939 24.9803 90.2616C24.7101 90.4293 24.4112 90.5357 24.1018 90.5743L11.8732 91.9425L11.3264 87.5232L7.84802 92.1583L7.96341 91.4098Z" fill="#2F2E41"/>
<path d="M71.5456 210H0.370703C0.272386 210 0.178096 209.958 0.108576 209.882C0.0390558 209.807 0 209.705 0 209.599C0 209.492 0.0390558 209.39 0.108576 209.315C0.178096 209.24 0.272386 209.198 0.370703 209.198H71.5456C71.6439 209.198 71.7382 209.24 71.8077 209.315C71.8773 209.39 71.9163 209.492 71.9163 209.599C71.9163 209.705 71.8773 209.807 71.8077 209.882C71.7382 209.958 71.6439 210 71.5456 210Z" fill="#CCCCCC"/>
</g>
<defs>
<clipPath id="clip0_723:1351">
<rect width="270" height="210" fill="white"/>
</clipPath>
</defs>
</svg>
