<svg width="15" height="15" viewBox="0 0 15 15" fill="none" xmlns="http://www.w3.org/2000/svg">
<g clip-path="url(#clip0)">
<path d="M14.1936 1.12946e-06H0.820331C0.584463 -0.000445029 0.368226 0.13132 0.260405 0.341162C0.151096 0.55383 0.170281 0.809924 0.309928 1.00415L5.20932 7.9059C5.21096 7.90828 5.21274 7.91051 5.21438 7.91289C5.3924 8.15322 5.48862 8.44426 5.48921 8.74348V14.3704C5.48817 14.5371 5.55361 14.6971 5.67109 14.8154C5.78858 14.9336 5.94831 14.9999 6.11487 14.9999C6.19964 14.9999 6.28337 14.983 6.3616 14.9506L9.11468 13.9008C9.36141 13.8255 9.52514 13.5928 9.52514 13.3124V8.74348C9.52559 8.44441 9.62196 8.15322 9.79983 7.91289C9.80146 7.91051 9.80325 7.90828 9.80488 7.9059L14.7041 1.00385C14.8438 0.809775 14.863 0.55383 14.7537 0.341162C14.6458 0.13132 14.4296 -0.000445029 14.1936 1.12946e-06ZM9.18592 7.46182C8.91227 7.83317 8.7643 8.28216 8.76341 8.74348V13.2199L6.25065 14.178V8.74348C6.24976 8.28216 6.10178 7.83317 5.82799 7.46182L1.07152 0.761442H13.9425L9.18592 7.46182Z" fill="#008E3A"/>
</g>
<defs>
<clipPath id="clip0">
<rect width="15" height="15" fill="white"/>
</clipPath>
</defs>
</svg>
