<svg width="27" height="27" viewBox="0 0 27 27" fill="none" xmlns="http://www.w3.org/2000/svg">
<path d="M27 21.214C27 22.0955 26.2854 22.8101 25.404 22.8101H1.59601C0.714551 22.8101 0 22.0954 0 21.214V5.78576C0 4.90425 0.714551 4.1897 1.59601 4.1897H25.4039C26.2854 4.1897 26.9999 4.9043 26.9999 5.78576L27 21.214Z" fill="#E7E8E3"/>
<path opacity="0.15" d="M1.13469 21.214V5.78576C1.13469 4.90425 1.84934 4.1897 2.7308 4.1897H1.59595C0.714551 4.1897 0 4.90435 0 5.78576V21.2139C0 22.0954 0.714551 22.81 1.59601 22.81H2.73085C1.84939 22.8101 1.13469 22.0954 1.13469 21.214Z" fill="#202121"/>
<path d="M20.2663 10.951C19.9745 10.1882 19.5537 9.56053 18.9788 9.03182C18.6947 8.78565 18.3664 8.56522 18.0031 8.37691C17.7524 8.2436 17.4726 8.12442 17.1715 8.0228C16.4628 7.77932 15.6688 7.64469 14.875 7.6333H6.79585C6.77972 7.6333 6.76648 7.64643 6.76648 7.66267V19.7816C6.76648 19.7978 6.77966 19.811 6.79585 19.811H14.8751H14.8755C16.5479 19.7871 18.0435 19.31 18.9787 18.5023C20.162 17.4976 20.762 15.8817 20.762 13.6998C20.762 12.6982 20.5952 11.7733 20.2663 10.951ZM7.72298 8.58969H14.6507C14.7145 8.58969 14.7775 8.59059 14.8402 8.59185L14.8692 8.59254C15.6211 8.61121 16.3265 8.72991 16.9655 8.94507C17.5138 9.13765 17.9894 9.40829 18.3791 9.74921C19.3994 10.6561 19.8953 11.9483 19.8953 13.6994C19.8841 15.473 19.4539 16.749 18.5802 17.6004C17.7141 18.4443 16.4288 18.8544 14.6508 18.8544H7.72298V8.58969Z" fill="#686868"/>
<path d="M10.6108 14.395H8.36682V18.2104H10.6108V14.395Z" fill="#686868"/>
<path d="M9.48911 13.9121C10.1863 13.9121 10.7514 13.3469 10.7514 12.6498C10.7514 11.9526 10.1863 11.3875 9.48911 11.3875C8.79196 11.3875 8.22681 11.9526 8.22681 12.6498C8.22681 13.3469 8.79196 13.9121 9.48911 13.9121Z" fill="#686868"/>
<path d="M16.4832 12.8086C16.4698 12.7706 16.4535 12.7237 16.4431 12.6928C16.4248 12.6402 16.4035 12.5757 16.3819 12.51C16.3512 12.417 16.3195 12.3207 16.2941 12.2529C16.2898 12.2414 16.2786 12.2339 16.2666 12.2339H16.2665C16.2545 12.2339 16.2433 12.2413 16.2391 12.2529C16.2136 12.3206 16.182 12.4167 16.1514 12.5095C16.1297 12.5753 16.1084 12.64 16.0898 12.6933C16.0838 12.711 16.0764 12.7343 16.0687 12.7583C16.0577 12.7925 16.0463 12.8279 16.0387 12.8498C16.0356 12.8587 16.037 12.8686 16.0425 12.8764C16.048 12.8841 16.0569 12.8887 16.0664 12.8887H16.4696C16.4696 12.8887 16.4704 12.8886 16.4707 12.8887C16.487 12.8887 16.5001 12.8756 16.5001 12.8593C16.5001 12.853 16.4982 12.8472 16.4948 12.8425L16.4832 12.8086Z" fill="#CC1B69"/>
<path d="M19.2049 13.9708C19.1994 13.9652 19.1918 13.9621 19.1841 13.9621H17.5975V11.7317H18.212V13.2733C18.212 13.2895 18.2252 13.3027 18.2413 13.3027H19.1616H19.1624C19.179 13.3027 19.1921 13.2896 19.1921 13.2733C19.1921 13.2697 19.1915 13.2664 19.1904 13.2633C19.0236 10.7186 17.383 9.42871 14.3141 9.42871H11.5087C11.4926 9.42871 11.4794 9.44184 11.4794 9.45808V11.263V11.7024V11.7308H11.9353C12.5017 11.7308 12.9275 12.086 12.9275 12.8119C12.9275 13.4459 12.6029 13.9175 11.9353 13.9175H11.4794V13.9914V14.3954V18.2554C11.4794 18.2716 11.4926 18.2848 11.5087 18.2848H14.3141C15.7596 18.2848 16.8478 18.0263 17.6407 17.4944C18.6741 16.8012 19.2033 15.6228 19.2135 13.9917C19.2136 13.9839 19.2104 13.9763 19.2049 13.9708ZM14.8458 12.1219H13.753C13.7368 12.1219 13.7236 12.135 13.7236 12.1512V12.6002C13.7236 12.6163 13.7367 12.6295 13.753 12.6295H14.8458V13.0196H13.753C13.7368 13.0196 13.7236 13.0327 13.7236 13.049V13.4977C13.7236 13.5139 13.7367 13.5271 13.753 13.5271H14.8458V13.9173H13.3336V11.7318H14.8458V12.1219ZM16.848 13.9171C16.6206 13.293 16.6027 13.2929 16.5779 13.2929H15.9551C15.9305 13.2929 15.9124 13.293 15.6849 13.9171H15.165L16.0173 11.7317H16.5161L17.3903 13.9171H16.848Z" fill="#CC1B69"/>
<path d="M12.4467 12.8578C12.4467 12.4168 12.2936 12.135 11.8158 12.135H11.4907H11.4794H11.4728V12.1485V12.2122V13.5133H11.9016C12.1803 13.5132 12.4467 13.3417 12.4467 12.8578Z" fill="#CC1B69"/>
</svg>
