<svg width="194" height="212" viewBox="0 0 194 212" fill="none" xmlns="http://www.w3.org/2000/svg">
<path d="M82.4514 135.877C82.4256 135.295 82.2804 134.725 82.0262 134.209C81.7719 133.693 81.4148 133.243 80.9799 132.89C80.545 132.537 80.0429 132.291 79.5091 132.167C78.9752 132.044 78.4225 132.047 77.8899 132.177L72.9492 124.743L67.9855 126.847L75.101 137.24C75.364 138.181 75.9411 138.986 76.723 139.503C77.5048 140.02 78.4371 140.212 79.3432 140.044C80.2492 139.876 81.066 139.359 81.6389 138.591C82.2118 137.823 82.5009 136.858 82.4514 135.877L82.4514 135.877Z" fill="#A0616A"/>
<path d="M77.0315 129.484L68.2469 113.711L71.8259 103.521L66.9514 89.6436L66.7716 89.7259C66.6538 89.7798 63.8841 91.0993 63.4736 95.8248L57.8719 114.62L72.822 135.326L77.0315 129.484Z" fill="#008E3A"/>
<path d="M124.741 71.4963C124.199 71.5688 123.679 71.7673 123.216 72.0779C122.754 72.3884 122.361 72.8034 122.065 73.2936C121.769 73.7838 121.578 74.3372 121.504 74.915C121.43 75.4928 121.476 76.0809 121.638 76.6377L115.078 82.4716L117.426 87.5924L126.582 79.2149C127.44 78.8622 128.148 78.1857 128.57 77.3135C128.992 76.4413 129.1 75.4341 128.873 74.4826C128.646 73.5312 128.1 72.7017 127.339 72.1513C126.577 71.6009 125.653 71.3678 124.741 71.4963Z" fill="#A0616A"/>
<path d="M119.19 77.7597L105.139 88.3297L95.3468 85.308L82.7636 91.5695L82.8544 91.7545C82.9138 91.8757 84.3603 94.7219 88.8049 94.7934L106.79 99.3028L124.971 81.7887L119.19 77.7597Z" fill="#008E3A"/>
<path d="M93.4793 206.296H98.364L100.688 186.181L93.4784 186.181L93.4793 206.296Z" fill="#A0616A"/>
<path d="M103.292 204.806H92.4326V211.139H107.785V209.602C107.785 208.33 107.312 207.11 106.469 206.211C105.626 205.311 104.484 204.806 103.292 204.806Z" fill="black"/>
<path d="M73.9554 206.296H78.8404L81.1641 186.181L73.9548 186.181L73.9554 206.296Z" fill="#A0616A"/>
<path d="M83.7686 204.806H72.9089V211.139H88.2612V209.602C88.2612 208.33 87.7878 207.11 86.9453 206.211C86.1028 205.311 84.9601 204.806 83.7686 204.806Z" fill="black"/>
<path d="M72.2184 132.873L72.6167 162.65L73.0151 201.785L81.781 200.934L86.1638 146.911L91.7419 200.934H100.792L101.703 146.485L98.5155 134.574L72.2184 132.873Z" fill="black"/>
<path d="M99.3892 134.756L100.725 134.694L94.5218 98.2138L97.0615 87.1875C97.1935 86.6138 97.1238 86.0084 96.8656 85.4859C96.6074 84.9634 96.1787 84.5602 95.6606 84.3527L91.0911 82.5234L89.4767 77.7835L76.7395 79.2488L76.4263 82.9531C75.0461 83.4257 63.6799 87.467 64.4642 92.0717C65.2382 96.6167 69.8085 110.916 70.0406 111.641L70.841 132.148L70.9394 132.2C71.0579 132.264 79.8372 136.872 89.3749 136.871C92.7336 136.871 96.1883 136.299 99.3892 134.756Z" fill="#008E3A"/>
<path d="M75.5603 70.3432C73.1309 65.5985 74.7642 59.6495 79.2084 57.0558C83.6527 54.4621 89.2249 56.2059 91.6543 60.9506C94.0837 65.6953 92.4504 71.6443 88.0062 74.238C83.562 76.8317 77.9898 75.088 75.5603 70.3432Z" fill="#A0616A"/>
<path d="M76.179 75.1249C77.9267 77.1125 81.1725 76.0455 81.4002 73.3302C81.4181 73.1193 81.4168 72.9072 81.3964 72.6966C81.2788 71.4938 80.6279 70.4019 80.7838 69.1319C80.8191 68.8158 80.9294 68.5146 81.1043 68.2568C82.497 66.2657 85.7663 69.1474 87.0807 67.3449C87.8867 66.2397 86.9393 64.4995 87.5578 63.2642C88.3741 61.6339 90.7919 62.4381 92.3082 61.5452C93.9952 60.5518 93.8943 57.7885 92.7838 56.1076C91.4295 54.0578 89.055 52.964 86.71 52.8064C84.365 52.6487 82.0363 53.3255 79.847 54.2363C77.3597 55.2713 74.8931 56.7015 73.3623 59.0366C71.5008 61.8763 71.3217 65.694 72.2527 69.0144C72.819 71.0343 74.7518 73.5018 76.179 75.1249Z" fill="black"/>
</svg>
