<svg width="250" height="200" viewBox="0 0 250 200" fill="none" xmlns="http://www.w3.org/2000/svg">
<g clip-path="url(#clip0)">
<path opacity="0.18" d="M35.659 96.2036C38.7121 111.091 41.7669 125.969 44.8233 140.836C46.0171 146.648 47.2208 152.495 49.3687 157.975C50.9274 161.948 52.9793 165.682 55.4701 169.078C63.01 179.403 74.3467 186.642 86.5642 188.408C94.3536 189.535 102.314 188.585 110.089 189.816C119.904 191.374 128.966 196.318 138.658 198.567C152.495 201.781 167.145 199.309 180.248 193.576C190.567 189.063 208.225 180.95 215.109 169.089C216.472 166.815 217.389 164.273 217.805 161.615C221.23 138.193 216.988 109.452 209.683 87.2864C195.494 44.1807 158.509 10.4544 116.23 2.00986C100.196 -1.18931 83.237 -0.898478 68.0105 5.31809C52.7839 11.5347 39.5096 24.134 34.0737 40.4622C28.1484 58.229 31.8768 77.7876 35.659 96.2036Z" fill="#008E3A"/>
<path d="M55.4702 169.089C63.0101 179.413 74.3468 186.653 86.5642 188.419C94.3537 189.546 102.314 188.595 110.089 189.826C119.904 191.384 128.966 196.328 138.658 198.577C152.495 201.792 167.145 199.32 180.248 193.586C190.567 189.063 208.225 180.95 215.109 169.089L55.4702 169.089Z" fill="#008E3A"/>
<path d="M126.035 172.096C141.79 168.221 158.22 169.81 174.317 171.415C175.785 171.561 177.307 171.727 178.56 172.547C179.812 173.368 180.688 175.066 180.155 176.526C179.665 177.808 178.364 178.463 177.131 178.899C169.302 181.709 160.808 181.039 152.554 180.639C125.81 179.351 98.7327 181.262 72.5119 175.399C69.8405 174.801 66.983 173.996 65.2656 171.763C70.183 169.109 76.1131 169.836 81.412 171.446C86.711 173.056 91.8387 175.502 97.3187 176.146C100.396 176.505 101.429 173.077 103.978 171.836C105.935 170.88 107.212 171.119 109.218 171.763C115.437 173.747 119.601 173.68 126.035 172.096Z" fill="url(#paint0_linear)"/>
<path d="M145.293 169.146C146.044 169.141 146.779 168.92 147.422 168.507C148.064 168.094 148.588 167.504 148.94 166.8C149.291 166.095 149.456 165.303 149.417 164.507C149.378 163.712 149.136 162.942 148.718 162.28C148.318 161.647 147.77 161.135 147.127 160.793C146.485 160.452 145.77 160.294 145.053 160.333C144.335 160.373 143.64 160.609 143.034 161.019C142.429 161.43 141.933 161.999 141.597 162.673C141.261 163.347 141.095 164.102 141.116 164.864C141.137 165.626 141.344 166.37 141.716 167.022C142.088 167.674 142.614 168.212 143.241 168.585C143.868 168.957 144.575 169.15 145.293 169.146ZM146.707 163.729C146.895 164.026 146.996 164.377 146.996 164.735C146.997 165.093 146.898 165.444 146.711 165.742C146.524 166.04 146.258 166.273 145.946 166.411C145.635 166.549 145.292 166.586 144.961 166.517C144.629 166.448 144.325 166.277 144.085 166.024C143.846 165.772 143.682 165.449 143.615 165.098C143.548 164.747 143.581 164.383 143.709 164.051C143.837 163.72 144.054 163.436 144.334 163.236C144.711 162.968 145.172 162.869 145.617 162.962C146.061 163.054 146.454 163.33 146.707 163.729Z" fill="black"/>
<path d="M175.732 169.146C176.483 169.143 177.22 168.923 177.863 168.51C178.506 168.098 179.031 167.507 179.383 166.803C179.735 166.098 179.899 165.305 179.859 164.508C179.82 163.711 179.577 162.941 179.157 162.28C178.756 161.647 178.208 161.135 177.566 160.793C176.923 160.452 176.208 160.294 175.491 160.333C174.774 160.373 174.078 160.609 173.473 161.019C172.867 161.43 172.372 161.999 172.036 162.673C171.7 163.347 171.534 164.102 171.555 164.864C171.575 165.626 171.782 166.37 172.154 167.022C172.527 167.674 173.052 168.212 173.679 168.585C174.306 168.957 175.013 169.15 175.732 169.146ZM177.141 163.729C177.329 164.026 177.43 164.377 177.431 164.735C177.432 165.094 177.333 165.445 177.146 165.743C176.96 166.042 176.693 166.275 176.382 166.413C176.07 166.551 175.726 166.588 175.395 166.519C175.063 166.45 174.759 166.278 174.519 166.025C174.28 165.772 174.116 165.45 174.05 165.098C173.983 164.747 174.016 164.382 174.145 164.05C174.274 163.719 174.492 163.435 174.773 163.236C175.148 162.968 175.609 162.87 176.053 162.962C176.497 163.055 176.888 163.33 177.141 163.729Z" fill="black"/>
<path d="M111.337 77.6058C111.484 78.1188 111.7 78.6068 111.978 79.0548C112.526 79.747 113.22 80.2931 114.003 80.6492C117.105 82.337 121.832 84.1547 124.464 86.5957C124.784 86.8653 125.049 87.201 125.242 87.5824C125.619 88.4497 125.242 89.4521 124.895 90.3246C124.739 90.8184 124.462 91.2593 124.092 91.6022C123.422 92.1215 122.492 91.8982 121.695 91.6489C118.636 90.681 115.628 89.542 112.682 88.2368C111.034 87.5314 109.434 86.7072 107.892 85.7699C107.274 85.4324 106.737 84.9492 106.322 84.3573C106.03 83.8241 105.836 83.2374 105.749 82.6279C105.192 79.4803 104.818 76.2993 104.629 73.1031L104.041 65.6037C103.924 64.1599 99.7847 59.1067 101.032 58.1147C103.479 56.1724 107.036 61.4593 107.594 62.5448C109.169 65.6037 110.725 75.7569 111.337 77.6058Z" fill="#008E3A"/>
<path d="M111.337 77.6058C111.484 78.1188 111.7 78.6068 111.978 79.0548C112.526 79.747 113.22 80.2931 114.003 80.6492C117.105 82.337 121.832 84.1547 124.464 86.5957C124.784 86.8653 125.049 87.201 125.242 87.5824C125.619 88.4497 125.242 89.4521 124.895 90.3246C124.739 90.8184 124.462 91.2593 124.092 91.6022C123.422 92.1215 122.492 91.8982 121.695 91.6489C118.636 90.681 115.628 89.542 112.682 88.2368C111.034 87.5314 109.434 86.7072 107.892 85.7699C107.274 85.4324 106.737 84.9492 106.322 84.3573C106.03 83.8241 105.836 83.2374 105.749 82.6279C105.192 79.4803 104.818 76.2993 104.629 73.1031L104.041 65.6037C103.924 64.1599 99.7847 59.1067 101.032 58.1147C103.479 56.1724 107.036 61.4593 107.594 62.5448C109.169 65.6037 110.725 75.7569 111.337 77.6058Z" fill="#FFE116" fill-opacity="0.95"/>
<path d="M73.3389 158.831C72.9433 159.502 72.7378 160.279 72.7468 161.07C72.793 161.367 72.8979 161.65 73.0548 161.901C73.2116 162.152 73.4168 162.364 73.6568 162.525C73.8967 162.685 74.1661 162.79 74.4469 162.832C74.7278 162.874 75.0139 162.852 75.2862 162.768C75.7294 162.574 76.1319 162.288 76.4703 161.927C80.5656 158.063 83.8095 153.3 86.7453 148.367C87.5379 147.027 88.3061 145.671 88.9813 144.264C91.2626 139.494 92.4607 134.224 92.4797 128.876C92.5106 128.569 92.4396 128.26 92.2791 128.003C92.1106 127.822 91.8936 127.7 91.6577 127.655C89.632 127.053 86.4762 126.996 84.6854 128.398C82.6744 129.956 83.1588 134.864 83.2469 137.097C83.3492 138.05 83.2591 139.014 82.9827 139.927C82.616 140.708 82.1186 141.412 81.5148 142.005C77.4097 146.684 75.9859 153.171 73.3389 158.831Z" fill="#F3BD8F"/>
<path d="M98.7327 148.18C98.3086 154.247 99.063 160.342 100.949 166.087C101.064 166.607 101.327 167.076 101.703 167.432C101.957 167.598 102.248 167.689 102.546 167.697C102.845 167.704 103.139 167.627 103.401 167.473C104.726 166.788 105.191 165.292 105.416 163.838C106.401 157.421 106.869 150.926 106.816 144.425C106.816 141.355 106.733 138.432 106.958 135.378C107.183 132.236 107.515 129.099 107.515 125.941C107.57 125.628 107.515 125.305 107.359 125.032C107.236 124.912 107.089 124.822 106.929 124.769C106.769 124.716 106.6 124.702 106.434 124.726C104.311 124.726 100.435 123.428 98.7817 124.861C96.6043 126.746 100.088 135.035 100.435 137.434C101.018 141.439 99.3786 142.628 98.8942 146.58C98.8306 147.141 98.7768 147.66 98.7327 148.18Z" fill="#F5BD8D"/>
<path d="M109.424 125.978C109.473 126.586 109.331 127.195 109.018 127.707C108.692 128.064 108.275 128.313 107.819 128.424C105.49 129.192 103.034 129.353 100.602 129.514C99.8581 129.561 99.0361 129.582 98.4637 129.083C98.1089 128.718 97.845 128.265 97.6955 127.764L94.9946 120.748C95.1968 123.224 95.2572 125.711 95.1757 128.195C95.2148 128.728 95.0667 129.257 94.7598 129.681C94.3665 130.002 93.8749 130.158 93.38 130.117C89.6315 130.267 85.8789 129.977 82.19 129.255C80.7613 123.661 80.7222 117.746 81.4316 112.002C81.7105 109.764 82.1264 107.484 83.2469 105.562C83.5207 105.037 83.9102 104.59 84.382 104.259C85.0883 103.899 85.8713 103.743 86.6523 103.807C92.3182 103.745 98.0722 103.604 103.704 104.456C105.46 104.721 106.38 105.303 106.992 107.125C107.873 109.998 108.488 112.955 108.827 115.954C109.276 119.273 109.476 122.625 109.424 125.978Z" fill="#2E2E3F"/>
<path d="M82.19 129.255L83.0708 129.416C86.4759 130.02 89.9301 130.255 93.38 130.117C93.8749 130.158 94.3665 130.002 94.7598 129.681C95.0667 129.257 95.2148 128.728 95.1757 128.195C95.2515 125.885 95.2025 123.572 95.0289 121.267C95.0289 121.21 95.0289 121.148 95.0289 121.091C95.0289 121.034 95.0289 120.862 95.0044 120.748C95.9047 123.08 96.8001 125.422 97.7004 127.754C97.8499 128.254 98.1138 128.707 98.4685 129.073C99.041 129.592 99.863 129.551 100.607 129.504H100.944C103.264 129.348 105.597 129.166 107.794 128.434C108.252 128.326 108.669 128.076 108.993 127.718C109.306 127.205 109.449 126.596 109.399 125.988C109.452 122.627 109.253 119.266 108.802 115.939C108.464 112.954 107.853 110.011 106.977 107.151C106.366 105.328 105.446 104.747 103.689 104.482C98.0575 103.63 92.3036 103.77 86.6376 103.833C85.931 103.789 85.2238 103.906 84.5631 104.176C84.4953 104.207 84.4299 104.243 84.3674 104.285C83.8955 104.616 83.5061 105.063 83.2322 105.588C82.1118 107.51 81.6959 109.79 81.417 112.028C80.7124 117.746 80.7613 123.661 82.19 129.255Z" fill="url(#paint1_linear)"/>
<path d="M82.19 129.255L83.0707 129.416C83.2806 129.301 83.4847 129.174 83.6823 129.037C84.1669 128.753 84.5747 128.341 84.8664 127.842C85.08 127.336 85.1837 126.786 85.1697 126.232C85.3312 121.6 84.4994 116.884 85.385 112.36C85.703 110.73 86.3391 109.244 86.7941 107.686C87.21 106.248 86.2804 105.391 85.1893 104.57C84.9968 104.418 84.7922 104.284 84.5777 104.17C84.51 104.201 84.4445 104.238 84.382 104.279C83.9101 104.61 83.5207 105.058 83.2468 105.583C82.1264 107.505 81.7105 109.784 81.4316 112.023C80.7124 117.746 80.7613 123.661 82.19 129.255Z" fill="url(#paint2_linear)"/>
<path d="M94.9995 120.758C95.8998 123.09 96.7952 125.432 97.6955 127.764C97.845 128.265 98.1089 128.718 98.4636 129.083C99.0361 129.603 99.8581 129.561 100.602 129.514H100.939C101.066 129.442 101.186 129.357 101.297 129.26C101.711 128.888 102.006 128.388 102.141 127.829C102.276 127.271 102.244 126.682 102.05 126.144C101.811 125.626 101.508 125.144 101.15 124.71C99.0165 121.807 97.852 118.26 96.7169 114.781C96.1066 115.531 95.6411 116.4 95.3469 117.341C95.0317 118.447 94.9138 119.606 94.9995 120.758Z" fill="url(#paint3_linear)"/>
<path d="M96.1004 53.6588C96.1234 54.5961 96.4719 55.4913 97.0789 56.1724C97.9792 57.0345 99.3443 56.9826 100.475 57.4656C100.617 57.5157 100.746 57.6012 100.851 57.7149C100.935 57.8197 100.994 57.9444 101.023 58.0784C101.167 58.7041 101.121 59.3625 100.89 59.9585C100.545 60.8506 100.021 61.6518 99.3528 62.3058C98.685 62.9598 97.8906 63.4509 97.0251 63.7445C95.2852 64.3228 93.4418 64.4598 91.643 64.1444C91.0462 64.1074 90.4646 63.93 89.9403 63.625C89.3843 63.1756 88.9422 62.5867 88.6535 61.9112C88.3037 61.2946 88.0695 60.6122 87.9636 59.9013C87.9153 59.5435 87.9558 59.1786 88.0811 58.8425C88.2064 58.5064 88.4121 58.2108 88.6779 57.9849C88.9276 57.8241 89.1935 57.6935 89.4706 57.5954C89.9061 57.418 90.324 57.1953 90.7182 56.9307C91.1229 56.7107 91.4378 56.3413 91.6038 55.892C91.6722 55.5126 91.6572 55.1216 91.5598 54.7494C91.337 53.4863 91.337 52.1902 91.5598 50.927C91.613 50.5528 91.722 50.1899 91.8827 49.852C92.0336 49.5646 92.2442 49.3176 92.4987 49.1298C92.7531 48.942 93.0446 48.8183 93.3508 48.7682C93.6571 48.7181 93.9702 48.743 94.266 48.8408C94.5619 48.9386 94.8329 49.1068 95.0582 49.3326C96.2129 50.4492 95.9634 52.215 96.1004 53.6588Z" fill="#F3BD8F"/>
<path d="M101.517 46.9437C101.583 47.8048 101.515 48.6715 101.316 49.5092C100.739 51.4983 98.7572 52.7811 96.7952 52.8642C96.1514 52.9178 95.5059 52.7868 94.9261 52.4851C94.5941 52.284 94.2882 52.0378 94.016 51.7528C92.646 50.4233 91.3837 48.8341 90.9678 46.9125C90.8257 46.1835 90.7665 45.4389 90.7916 44.6949C90.7742 43.5992 90.9536 42.5099 91.3201 41.4854C91.686 40.5802 92.2662 39.7908 93.0043 39.1938C93.7425 38.5969 94.6135 38.2127 95.5328 38.0785C97.4263 37.824 99.2024 38.8419 100.587 40.1039C101.282 40.7375 101.179 41.9839 101.267 42.9343C101.39 44.2587 101.473 45.6038 101.517 46.9437Z" fill="#F3BD8F"/>
<path d="M101.282 35.866C101.81 36.8268 102.168 37.9434 102.985 38.6341C103.322 38.9145 103.719 39.1171 104.032 39.4235C104.434 39.8744 104.669 40.4652 104.693 41.086C104.716 41.7069 104.526 42.3156 104.159 42.7992C103.773 43.2668 103.272 43.6115 102.712 43.7949C102.152 43.9782 101.556 43.9931 100.988 43.8379C99.8518 43.5012 98.8801 42.715 98.2728 41.6411C97.8667 40.966 97.5046 40.1454 96.805 39.8961C96.4948 39.8213 96.1723 39.8251 95.8637 39.9072C95.5552 39.9893 95.2692 40.1474 95.0289 40.3687C94.5151 40.7634 94.0845 41.2828 93.561 41.6359C93.2484 41.8062 92.949 42.0024 92.6656 42.2228C91.8241 42.9966 91.9513 44.3936 92.147 45.557C91.7947 45.6712 91.7262 45.0013 91.418 44.7883C91.1097 44.5754 90.7525 44.887 90.6987 45.235C90.6807 45.5867 90.7756 45.9346 90.9678 46.2217C91.7702 47.7123 92.7194 49.1768 92.9886 50.8647C93.0429 51.0895 93.0327 51.3264 92.9592 51.545C92.7975 51.8049 92.5494 51.9903 92.2644 52.0644C91.7749 52.2894 91.2468 52.4044 90.7134 52.402C90.4467 52.3974 90.1849 52.3258 89.9493 52.1931C89.7137 52.0604 89.5111 51.8704 89.3581 51.6385C89.207 51.3376 89.1154 51.0071 89.089 50.6673C89.0224 49.5411 88.8785 48.4215 88.6584 47.3176C88.0663 45.1467 86.3098 43.2563 86.5691 41.0179C86.7593 40.0062 87.1587 39.0518 87.7385 38.2238C88.0772 37.5947 88.4917 37.015 88.9715 36.4996C89.4433 36.0708 89.9625 35.7046 90.5177 35.409C91.6634 34.6837 92.9178 34.1725 94.2264 33.8977C95.7775 33.6484 97.1622 34.1833 98.6789 34.2612C99.8728 34.3183 100.616 34.6248 101.282 35.866Z" fill="#2E2E3F"/>
<path d="M83.5355 106.035C84.4125 106.682 85.4162 107.11 86.4712 107.286C92.0976 108.611 97.9301 108.6 103.552 107.255C104.726 106.97 106.033 106.513 106.542 105.349C106.77 104.711 106.855 104.024 106.791 103.345C106.658 96.9255 106.524 90.5047 106.39 84.0821C106.238 76.7853 106.087 69.4625 105.079 62.2436C104.782 60.7516 104.224 59.3318 103.435 58.0577C102.779 57.1073 99.8092 57.6162 97.3285 55.9128C96.6484 55.4454 98.126 57.8603 95.9047 58.8575C93.6001 59.8962 91.0118 55.0299 89.6125 56.9826C88.8247 58.0733 86.3196 57.2631 85.5269 58.3485C84.8909 59.221 84.4994 61.0647 84.2499 63.2875C83.7215 68.0083 83.8536 74.4171 83.7606 76.7489C83.3447 84.9078 83.9906 95.3155 81.4512 102.051C80.8689 103.516 82.3906 105.074 83.5355 106.035Z" fill="#FFE116" fill-opacity="0.95"/>
<path d="M83.5355 106.035C84.4125 106.682 85.4162 107.11 86.4713 107.286C87.8763 107.617 89.2973 107.865 90.728 108.029L91.1293 107.972C90.0822 104.337 90.0333 100.514 90.0626 96.7333C90.0626 94.6559 90.1213 92.5526 90.1605 90.4648C90.1849 89.1457 90.229 87.759 90.8699 86.6321C91.5109 85.5051 92.969 84.7884 94.0356 85.4687C92.2008 84.295 90.6987 79.33 89.9452 77.2942C88.8614 74.345 88.1029 71.2725 87.6847 68.1381C87.4009 65.9881 87.5085 62.2072 84.4065 63.2251L84.2352 63.2875C83.7068 68.0083 83.8389 74.417 83.7459 76.7489C83.33 84.9078 83.9759 95.3155 81.4365 102.051C80.8689 103.516 82.3906 105.074 83.5355 106.035Z" fill="url(#paint4_linear)"/>
<path d="M101.067 164.435C100.89 164.451 100.725 164.538 100.607 164.679C100.532 164.84 100.503 165.021 100.524 165.199C100.524 166.237 99.9021 167.177 99.9364 168.206C99.9608 169.125 100.499 169.987 100.426 170.906C100.426 171.088 100.382 171.301 100.504 171.426C100.583 171.495 100.68 171.538 100.783 171.55C103.239 172.049 105.707 172.483 108.186 172.854C108.643 172.983 109.13 172.927 109.551 172.698C109.741 172.543 109.891 172.34 109.986 172.106C110.657 170.657 110.06 168.881 109.15 167.588C106.923 164.404 104.775 163.641 101.067 164.435Z" fill="#2E2E3F"/>
<path d="M70.1487 164.03C70.3215 164.858 70.7654 165.594 71.4013 166.107C72.9766 167.652 74.7778 168.915 76.7345 169.847C77.1288 170.082 77.5811 170.183 78.0311 170.138C78.3724 170.033 78.6717 169.812 78.883 169.509C79.0943 169.206 79.2059 168.837 79.2005 168.46C79.1764 167.706 78.9924 166.968 78.6623 166.3C77.718 163.983 77.0623 160.587 74.5425 159.668C72.3407 158.883 69.9139 161.724 70.1487 164.03Z" fill="black"/>
<path d="M101.067 164.435C100.89 164.451 100.725 164.538 100.607 164.679C100.532 164.84 100.503 165.021 100.524 165.199C100.524 166.237 99.9021 167.177 99.9364 168.206C99.9608 169.125 100.499 169.987 100.426 170.906C100.426 171.088 100.382 171.301 100.504 171.426C100.583 171.495 100.68 171.538 100.783 171.55C103.239 172.049 105.707 172.483 108.186 172.854C108.643 172.983 109.13 172.927 109.551 172.698C109.741 172.543 109.891 172.34 109.986 172.106C110.657 170.657 110.06 168.881 109.15 167.588C106.923 164.404 104.775 163.641 101.067 164.435Z" fill="url(#paint5_linear)"/>
<path d="M71.4013 166.118C72.9766 167.663 74.7778 168.925 76.7345 169.857C77.1288 170.092 77.5811 170.193 78.0311 170.148" fill="url(#paint6_linear)"/>
<path d="M88.3354 77.0294C88.2507 77.6802 88.3162 78.3432 88.5263 78.9613C88.8785 79.8182 89.6956 80.3376 90.4834 80.7998L107.838 91.2231C108.651 91.7113 109.521 92.2618 109.869 93.1862C110.632 95.2636 108.24 97.128 106.16 97.2942C103.983 97.4656 101.84 96.7749 99.7749 96.0114C93.2523 93.6241 86.9526 90.5989 80.957 86.9748C80.2161 86.6827 79.595 86.1242 79.2017 85.3965C78.8084 84.6688 78.6678 83.8178 78.8042 82.9914C78.7871 77.9066 79.1536 72.8285 79.9002 67.8058C80.3063 65.0584 80.8787 62.1865 82.6255 60.1039C85.2089 56.9878 89.9256 56.8943 90.3317 61.4594C90.7819 66.6424 88.6632 71.9294 88.3354 77.0294Z" fill="#008E3A"/>
<path d="M88.3354 77.0294C88.2507 77.6802 88.3162 78.3432 88.5263 78.9613C88.8785 79.8182 89.6956 80.3376 90.4834 80.7998L107.838 91.2231C108.651 91.7113 109.521 92.2618 109.869 93.1862C110.632 95.2636 108.24 97.128 106.16 97.2942C103.983 97.4656 101.84 96.7749 99.7749 96.0114C93.2523 93.6241 86.9526 90.5989 80.957 86.9748C80.2161 86.6827 79.595 86.1242 79.2017 85.3965C78.8084 84.6688 78.6678 83.8178 78.8042 82.9914C78.7871 77.9066 79.1536 72.8285 79.9002 67.8058C80.3063 65.0584 80.8787 62.1865 82.6255 60.1039C85.2089 56.9878 89.9256 56.8943 90.3317 61.4594C90.7819 66.6424 88.6632 71.9294 88.3354 77.0294Z" fill="#FFE116"/>
<path d="M112.1 92.9525C113.352 92.9485 114.559 93.4498 115.476 94.3547C115.923 94.8167 116.224 95.4142 116.338 96.0652C116.452 96.7162 116.373 97.3887 116.112 97.9901C115.926 98.393 115.603 98.7052 115.207 98.8626C114.858 98.9648 114.488 98.9521 114.145 98.8263C113.167 98.5095 112.359 97.7045 111.4 97.2683C111.168 97.1472 110.903 97.1159 110.652 97.18C110.49 97.2672 110.336 97.3698 110.192 97.4864C109.99 97.6033 109.766 97.6684 109.536 97.6765C109.307 97.6846 109.079 97.6355 108.871 97.5331C108.456 97.3199 108.107 96.9869 107.863 96.5723C107.509 96.0516 107.336 95.4164 107.374 94.7754C107.471 93.7886 108.01 93.4718 108.812 93.3732C109.913 93.2485 110.97 92.9109 112.1 92.9525Z" fill="#F3BD8F"/>
<path d="M128.222 89.7481C128.684 90.3507 129.002 91.0637 129.147 91.8255C129.224 92.1862 129.212 92.5617 129.112 92.9161C128.971 93.261 128.736 93.5531 128.437 93.7549C128.138 93.9567 127.788 94.0589 127.434 94.0483C126.724 94.0166 126.035 93.7893 125.433 93.3888C124.315 92.7046 123.247 91.932 122.238 91.0777C122.029 90.9265 121.842 90.7427 121.685 90.5324C121.498 90.2077 121.42 89.8248 121.466 89.4471C121.511 89.0693 121.676 88.7193 121.935 88.455C123.588 86.6944 126.979 88.1122 128.222 89.7481Z" fill="#F3BD8F"/>
<path d="M143.908 149.738H185.145L201.15 103.464L131.495 103.464L143.908 149.738ZM183.438 147.141H145.763L134.739 106.05L197.647 106.05L183.438 147.141Z" fill="#875514"/>
<path d="M127.635 149.738H168.877L184.876 103.464L114.028 103.464L127.635 149.738ZM167.159 147.141H129.484L118.461 106.05L181.349 106.05L167.159 147.141Z" fill="#875514"/>
<path d="M127.39 149.764H146.922L138.174 117.019L130.952 93.2381L111.254 93.5185L127.39 149.764ZM143.688 147.167H129.2L114.522 96.0685L129.161 95.8608L135.845 117.772L143.688 147.167Z" fill="#875514"/>
<path d="M127.429 162.695H175.242V160.099H129.876V148.45H127.429V162.695Z" fill="#875514"/>
<path d="M143.434 162.695H182.361V160.099H145.88V148.45H143.434V162.695Z" fill="#875514"/>
<path d="M135.317 169.146C136.138 169.146 136.941 168.887 137.624 168.403C138.308 167.918 138.84 167.229 139.154 166.424C139.469 165.618 139.551 164.731 139.391 163.876C139.231 163.021 138.835 162.235 138.254 161.619C137.673 161.002 136.933 160.582 136.127 160.412C135.321 160.242 134.486 160.329 133.727 160.663C132.968 160.997 132.319 161.562 131.863 162.287C131.406 163.012 131.163 163.864 131.163 164.736C131.163 165.906 131.6 167.027 132.379 167.854C133.158 168.681 134.215 169.146 135.317 169.146ZM135.317 162.913C135.654 162.913 135.984 163.02 136.265 163.219C136.546 163.418 136.765 163.701 136.894 164.032C137.023 164.364 137.057 164.728 136.991 165.08C136.926 165.431 136.763 165.754 136.524 166.008C136.285 166.261 135.981 166.434 135.65 166.504C135.319 166.574 134.975 166.538 134.663 166.401C134.351 166.263 134.084 166.031 133.897 165.733C133.709 165.435 133.609 165.084 133.609 164.726C133.612 164.247 133.793 163.789 134.113 163.451C134.433 163.113 134.865 162.924 135.317 162.924V162.913Z" fill="black"/>
<path d="M164.992 169.146C165.743 169.143 166.48 168.923 167.123 168.51C167.766 168.098 168.291 167.507 168.643 166.803C168.995 166.098 169.159 165.305 169.12 164.508C169.08 163.711 168.837 162.941 168.417 162.28C168.016 161.647 167.468 161.135 166.826 160.793C166.183 160.452 165.469 160.294 164.751 160.333C164.034 160.373 163.338 160.609 162.733 161.019C162.127 161.43 161.632 161.999 161.296 162.673C160.96 163.347 160.794 164.102 160.815 164.864C160.836 165.626 161.042 166.37 161.415 167.022C161.787 167.674 162.312 168.212 162.939 168.585C163.566 168.957 164.273 169.15 164.992 169.146ZM166.406 163.729C166.594 164.026 166.696 164.377 166.697 164.735C166.698 165.094 166.598 165.445 166.411 165.743C166.225 166.042 165.958 166.275 165.647 166.413C165.335 166.551 164.992 166.588 164.66 166.519C164.329 166.45 164.024 166.278 163.784 166.025C163.545 165.772 163.382 165.45 163.315 165.098C163.248 164.747 163.281 164.382 163.41 164.05C163.539 163.719 163.757 163.435 164.038 163.236C164.414 162.969 164.874 162.872 165.317 162.964C165.761 163.057 166.152 163.332 166.406 163.729Z" fill="black"/>
<path d="M118.343 112.74L195.675 112.74V114.697L118.343 114.697V112.74Z" fill="#875514"/>
<path d="M120.364 119.32L194.021 119.32V121.278L120.364 121.278V119.32Z" fill="#875514"/>
<path d="M122.385 125.9L191.633 125.9V127.858L122.385 127.858V125.9Z" fill="#875514"/>
<path d="M124.406 132.48L189.246 132.48V134.438L124.406 134.438V132.48Z" fill="#875514"/>
<path d="M126.426 139.06L186.858 139.06V141.018L126.426 141.018V139.06Z" fill="#875514"/>
<path d="M190.771 104.224L192.504 104.895L177.629 148.181L175.896 147.51L190.771 104.224Z" fill="#875514"/>
<path d="M169.259 104.279L171.029 104.832L159.181 147.532L157.412 146.979L169.259 104.279Z" fill="#875514"/>
<path d="M151.173 103.94L153.016 104.006L151.64 147.58L149.796 147.515L151.173 103.94Z" fill="#875514"/>
<path d="M129.974 105.14L142.365 147.839L140.603 148.416L128.211 105.716L129.974 105.14Z" fill="#875514"/>
</g>
<defs>
<linearGradient id="paint0_linear" x1="122.145" y1="149.613" x2="123.694" y2="200.784" gradientUnits="userSpaceOnUse">
<stop offset="0.01"/>
<stop offset="0.13" stop-opacity="0.69"/>
<stop offset="1" stop-opacity="0"/>
</linearGradient>
<linearGradient id="paint1_linear" x1="-8077.21" y1="5576.07" x2="-7465.82" y2="7026.43" gradientUnits="userSpaceOnUse">
<stop offset="0.01"/>
<stop offset="0.13" stop-opacity="0.69"/>
<stop offset="1" stop-opacity="0"/>
</linearGradient>
<linearGradient id="paint2_linear" x1="-1635.8" y1="5974.74" x2="-1707.42" y2="5974.74" gradientUnits="userSpaceOnUse">
<stop offset="0.01"/>
<stop offset="0.13" stop-opacity="0.69"/>
<stop offset="1" stop-opacity="0"/>
</linearGradient>
<linearGradient id="paint3_linear" x1="-1797.3" y1="3638.21" x2="-2061.65" y2="3753.72" gradientUnits="userSpaceOnUse">
<stop offset="0.01"/>
<stop offset="0.13" stop-opacity="0.69"/>
<stop offset="1" stop-opacity="0"/>
</linearGradient>
<linearGradient id="paint4_linear" x1="-4243.47" y1="7948.44" x2="-2795.46" y2="7925.38" gradientUnits="userSpaceOnUse">
<stop offset="0.01"/>
<stop offset="0.13" stop-opacity="0.69"/>
<stop offset="1" stop-opacity="0"/>
</linearGradient>
<linearGradient id="paint5_linear" x1="-2404.59" y1="3079.77" x2="-2623.14" y2="3079.77" gradientUnits="userSpaceOnUse">
<stop offset="0.01"/>
<stop offset="0.13" stop-opacity="0.69"/>
<stop offset="1" stop-opacity="0"/>
</linearGradient>
<linearGradient id="paint6_linear" x1="-1971.64" y1="1505.36" x2="-2061.47" y2="1505.36" gradientUnits="userSpaceOnUse">
<stop offset="0.01"/>
<stop offset="0.13" stop-opacity="0.69"/>
<stop offset="1" stop-opacity="0"/>
</linearGradient>
<clipPath id="clip0">
<rect width="250" height="200" fill="white" transform="matrix(-1 0 0 1 250 0)"/>
</clipPath>
</defs>
</svg>
