<svg width="250" height="215" viewBox="0 0 250 215" fill="none" xmlns="http://www.w3.org/2000/svg">
<g clip-path="url(#clip0)">
<path d="M125 76.7417H125C129.555 76.7417 134.065 77.5923 138.273 79.2451C142.48 80.8978 146.304 83.3202 149.525 86.374C152.745 89.4278 155.3 93.0532 157.043 97.0432C158.786 101.033 159.683 105.31 159.683 109.628V188.422H90.3171V109.628C90.3171 105.31 91.2142 101.033 92.9572 97.0432C94.7001 93.0532 97.2548 89.4278 100.475 86.374C103.696 83.3202 107.519 80.8978 111.727 79.2451C115.935 77.5923 120.445 76.7417 125 76.7417Z" fill="#FFE116"/>
<path d="M112.967 116.28H106.738V135.878H112.967V116.28Z" fill="white"/>
<path d="M135.334 137.489H114.666V155.207H135.334V137.489Z" fill="white"/>
<path d="M135.334 116.28H114.666V135.878H135.334V116.28Z" fill="white"/>
<path d="M137.033 114.67H143.262V114.267C143.264 111.801 142.709 109.363 141.635 107.117C140.56 104.871 138.991 102.87 137.033 101.247V114.67Z" fill="white"/>
<path d="M114.666 114.67H135.334V99.9917C132.295 98.0067 128.69 96.9461 125 96.9509C121.31 96.9461 117.705 98.0067 114.666 99.9917V114.67Z" fill="white"/>
<path d="M112.967 137.489H106.738V150.912C106.738 152.051 107.216 153.144 108.065 153.949C108.915 154.755 110.067 155.207 111.268 155.207H112.967V137.489Z" fill="white"/>
<path d="M137.033 137.489V155.207H138.732C139.933 155.207 141.085 154.755 141.935 153.949C142.784 153.144 143.262 152.051 143.262 150.912V137.489H137.033Z" fill="white"/>
<path d="M112.967 114.67V101.247C111.009 102.87 109.44 104.871 108.365 107.117C107.291 109.363 106.736 111.801 106.738 114.267V114.67H112.967Z" fill="white"/>
<path d="M143.262 116.28H137.033V135.878H143.262V116.28Z" fill="white"/>
<path d="M154.728 142.321C156.761 142.321 158.409 140.759 158.409 138.831C158.409 136.904 156.761 135.341 154.728 135.341C152.695 135.341 151.048 136.904 151.048 138.831C151.048 140.759 152.695 142.321 154.728 142.321Z" fill="#3F3D56"/>
<path d="M38.6911 105.336H33.8023V120.718H38.6911V105.336Z" fill="#F2F2F2"/>
<path d="M56.2464 105.336H40.0245V120.718H56.2464V105.336Z" fill="#F2F2F2"/>
<path d="M62.4685 105.336H57.5797V120.718H62.4685V105.336Z" fill="#F2F2F2"/>
<path d="M57.5797 104.072H62.4685V103.756C62.4703 101.82 62.0349 99.9067 61.1916 98.1441C60.3484 96.3815 59.1168 94.8106 57.5797 93.537V104.072Z" fill="#F2F2F2"/>
<path d="M56.2464 121.982H40.0245V135.889H56.2464V121.982Z" fill="#F2F2F2"/>
<path d="M38.6911 121.982H33.8023V132.518C33.8023 133.412 34.1769 134.269 34.8437 134.901C35.5105 135.534 36.4148 135.889 37.3578 135.889H38.6911L38.6911 121.982Z" fill="#F2F2F2"/>
<path d="M57.5797 121.982V135.889H58.913C59.3799 135.889 59.8423 135.802 60.2737 135.632C60.705 135.463 61.097 135.215 61.4272 134.901C61.7573 134.588 62.0192 134.217 62.1979 133.808C62.3766 133.399 62.4685 132.96 62.4685 132.518V121.982H57.5797Z" fill="#F2F2F2"/>
<path d="M38.6911 104.072V93.537C37.1541 94.8106 35.9225 96.3815 35.0792 98.1441C34.236 99.9067 33.8006 101.82 33.8023 103.756V104.072H38.6911Z" fill="#F2F2F2"/>
<path d="M40.0245 104.072H56.2464V92.5515C53.8611 90.9935 51.032 90.161 48.1355 90.1648C45.2389 90.161 42.4099 90.9935 40.0245 92.5515V104.072Z" fill="#F2F2F2"/>
<path d="M68.8534 137.57H27.5207C27.2556 137.569 27.0014 137.469 26.814 137.292C26.6265 137.114 26.521 136.873 26.5208 136.621V134.093C26.521 133.842 26.6265 133.601 26.814 133.423C27.0014 133.245 27.2556 133.145 27.5207 133.145H68.8534C69.1185 133.145 69.3727 133.245 69.5602 133.423C69.7477 133.601 69.8531 133.842 69.8534 134.093V136.621C69.8531 136.873 69.7477 137.114 69.5602 137.292C69.3727 137.469 69.1185 137.569 68.8534 137.57Z" fill="#008E3A"/>
<path d="M192.428 105.336H187.54V120.718H192.428V105.336Z" fill="#F2F2F2"/>
<path d="M209.984 105.336H193.762V120.718H209.984V105.336Z" fill="#F2F2F2"/>
<path d="M216.206 105.336H211.317V120.718H216.206V105.336Z" fill="#F2F2F2"/>
<path d="M211.317 104.072H216.206V103.756C216.208 101.82 215.772 99.9067 214.929 98.1441C214.086 96.3815 212.854 94.8106 211.317 93.537V104.072Z" fill="#F2F2F2"/>
<path d="M209.984 121.982H193.762V135.889H209.984V121.982Z" fill="#F2F2F2"/>
<path d="M192.428 121.982H187.54V132.518C187.54 133.412 187.914 134.269 188.581 134.901C189.248 135.534 190.152 135.889 191.095 135.889H192.428L192.428 121.982Z" fill="#F2F2F2"/>
<path d="M211.317 121.982V135.889H212.65C213.117 135.889 213.58 135.802 214.011 135.632C214.442 135.463 214.834 135.215 215.164 134.901C215.495 134.588 215.757 134.217 215.935 133.808C216.114 133.399 216.206 132.96 216.206 132.518V121.982H211.317Z" fill="#F2F2F2"/>
<path d="M192.428 104.072V93.537C190.891 94.8106 189.66 96.3815 188.816 98.1441C187.973 99.9067 187.538 101.82 187.54 103.756V104.072H192.428Z" fill="#F2F2F2"/>
<path d="M193.762 104.072H209.984V92.5515C207.598 90.9935 204.769 90.161 201.873 90.1648C198.976 90.161 196.147 90.9935 193.762 92.5515V104.072Z" fill="#F2F2F2"/>
<path d="M222.591 137.57H181.258C180.993 137.569 180.739 137.469 180.551 137.292C180.364 137.114 180.258 136.873 180.258 136.621V134.093C180.258 133.842 180.364 133.601 180.551 133.423C180.739 133.245 180.993 133.145 181.258 133.145H222.591C222.856 133.145 223.11 133.245 223.297 133.423C223.485 133.601 223.59 133.842 223.591 134.093V136.621C223.59 136.873 223.485 137.114 223.297 137.292C223.11 137.469 222.856 137.569 222.591 137.57Z" fill="#008E3A"/>
<path d="M234.853 188.691H15.1472C12.6701 188.688 10.2953 187.754 8.54371 186.093C6.79214 184.432 5.80688 182.18 5.80408 179.831V44.7946C5.80688 42.4458 6.79214 40.194 8.54371 38.5331C10.2953 36.8723 12.6701 35.938 15.1472 35.9354H234.853C237.33 35.938 239.705 36.8723 241.456 38.5331C243.208 40.194 244.193 42.4458 244.196 44.7946V179.831C244.193 182.18 243.208 184.432 241.456 186.093C239.705 187.754 237.33 188.688 234.853 188.691ZM15.1472 36.4723C12.8203 36.4748 10.5894 37.3524 8.94394 38.9126C7.29852 40.4728 6.37297 42.5882 6.37033 44.7946V179.831C6.37297 182.038 7.29852 184.153 8.94394 185.713C10.5894 187.274 12.8203 188.151 15.1472 188.154H234.853C237.18 188.151 239.411 187.274 241.056 185.713C242.701 184.153 243.627 182.038 243.63 179.831V44.7946C243.627 42.5882 242.701 40.4728 241.056 38.9126C239.411 37.3524 237.18 36.4748 234.853 36.4723H15.1472Z" fill="black"/>
<path d="M9.35684 53.5921C7.00481 53.5903 4.73961 52.7494 3.01157 51.2365C1.28354 49.7235 0.219241 47.6493 0.030285 45.4263C-0.158671 43.2033 0.54155 40.9943 1.99173 39.2385C3.44192 37.4826 5.53585 36.3085 7.85722 35.9497L122.68 0.176754C124.172 -0.057125 125.694 -0.0588963 127.187 0.171511L242.163 35.9556C244.611 36.3386 246.799 37.6275 248.245 39.5392C249.692 41.4509 250.279 43.8289 249.877 46.1507C249.476 48.4726 248.119 50.5483 246.104 51.9219C244.089 53.2954 241.582 53.8544 239.133 53.476C237.894 53.3083 126.018 38.1612 124.998 38.1214C123.981 38.1612 11.9961 53.3231 10.865 53.4763C10.3664 53.5533 9.86203 53.592 9.35684 53.5921Z" fill="#008E3A"/>
<path d="M174.246 167.361C174.483 167.07 174.649 166.732 174.734 166.373C174.818 166.014 174.819 165.642 174.735 165.282C174.651 164.923 174.485 164.585 174.249 164.293C174.013 164.001 173.712 163.762 173.368 163.592L173.893 157.861L170.298 156.709L169.676 164.812C169.414 165.38 169.38 166.019 169.581 166.608C169.782 167.198 170.204 167.697 170.767 168.011C171.33 168.325 171.995 168.433 172.637 168.313C173.278 168.193 173.85 167.855 174.246 167.361Z" fill="#FFB8B8"/>
<path d="M192.187 211.919L188.95 211.919L187.411 200.081L192.188 200.081L192.187 211.919Z" fill="#FFB8B8"/>
<path d="M186.638 211.042H192.88V214.769H182.708C182.708 214.279 182.809 213.795 183.007 213.342C183.204 212.89 183.494 212.479 183.859 212.133C184.224 211.787 184.657 211.513 185.134 211.326C185.611 211.138 186.122 211.042 186.638 211.042Z" fill="#2F2E41"/>
<path d="M184.839 204.064L181.696 204.796L177.221 193.649L181.86 192.568L184.839 204.064Z" fill="#FFB8B8"/>
<path d="M179.23 204.468L185.292 203.056L186.23 206.675L176.351 208.976C176.228 208.501 176.205 208.007 176.283 207.524C176.361 207.04 176.539 206.575 176.806 206.157C177.074 205.738 177.425 205.374 177.841 205.084C178.257 204.794 178.729 204.585 179.23 204.468Z" fill="#2F2E41"/>
<path d="M188.398 208.145C188.103 208.146 187.818 208.042 187.598 207.855C187.379 207.667 187.241 207.409 187.21 207.131L183.486 174.23L180.245 184.29L184.835 200.004C184.914 200.274 184.885 200.561 184.754 200.812C184.623 201.062 184.4 201.258 184.126 201.362L180.476 202.746C180.326 202.803 180.165 202.83 180.003 202.827C179.842 202.823 179.682 202.789 179.535 202.725C179.388 202.661 179.256 202.57 179.147 202.457C179.038 202.343 178.954 202.21 178.901 202.065L173.275 186.76C172.659 185.089 172.386 183.322 172.472 181.554L173.257 165.037L193.938 165.867L193.615 206.731C193.611 207.015 193.495 207.288 193.29 207.496C193.085 207.704 192.806 207.832 192.507 207.855L188.491 208.142C188.46 208.144 188.429 208.145 188.398 208.145Z" fill="#2F2E41"/>
<path d="M184.973 128.484C188.814 128.484 191.927 125.532 191.927 121.891C191.927 118.249 188.814 115.297 184.973 115.297C181.133 115.297 178.02 118.249 178.02 121.891C178.02 125.532 181.133 128.484 184.973 128.484Z" fill="#FFB8B8"/>
<path d="M190.087 166.942C188.256 166.942 185.981 166.8 183.627 166.653C180.411 166.452 177.085 166.245 174.602 166.381C174.267 166.412 173.929 166.362 173.62 166.234C173.311 166.107 173.042 165.906 172.838 165.652C170.279 162.545 174.226 150.428 174.396 149.914L177.608 136.365L177.746 136.395L177.608 136.365C178.315 133.386 180.573 131.187 183.501 130.629C186.241 130.107 188.892 131.147 190.592 133.414C190.683 133.534 190.773 133.658 190.863 133.784C196.399 141.558 193.268 160.871 193.058 162.118C193.35 162.45 194.931 164.328 194.497 165.632C194.32 166.163 193.84 166.524 193.069 166.707C192.088 166.891 191.087 166.97 190.087 166.942Z" fill="#CCCCCC"/>
<path d="M174.715 166.948C174.085 166.948 173.235 166.727 172.089 166.275C171.597 166.081 170.099 165.49 171.918 150.417C172.811 143.013 174.091 135.66 174.104 135.587L174.116 135.516L174.185 135.486C174.218 135.472 177.487 134.051 178.055 132.225C178.075 132.162 178.097 132.101 178.122 132.042C178.278 131.636 178.594 131.303 179.003 131.112C179.412 130.922 179.883 130.888 180.317 131.019C180.776 131.123 181.176 131.389 181.436 131.762C181.696 132.135 181.796 132.589 181.716 133.029C181.518 134.22 181.138 135.377 180.586 136.464C179.048 139.473 178.006 147.451 177.996 147.531C177.937 148.213 176.541 164.356 176.272 165.582C176.178 166.009 176.005 166.533 175.498 166.787C175.255 166.901 174.986 166.956 174.715 166.948Z" fill="#2F2E41"/>
<path d="M182.311 166.329C182.184 166.329 182.061 166.289 181.961 166.215C179.915 164.741 183.226 146.872 185.189 140.707C185.583 139.472 185.933 138.415 186.23 137.564C186.772 136.037 187.151 134.463 187.36 132.864C187.468 131.998 187.703 131.504 188.078 131.352C188.339 131.247 188.646 131.318 188.99 131.565C190.803 131.48 192.566 132.183 194.2 132.956L195.67 133.651L197.319 161.343C197.272 163.11 193.598 164.358 191.995 164.438C189.422 164.566 184.801 164.963 182.765 166.185C182.632 166.273 182.474 166.323 182.311 166.329Z" fill="#2F2E41"/>
<path d="M173.122 161.133C173.097 161.133 173.073 161.133 173.049 161.131L169.717 160.937C169.551 160.927 169.389 160.885 169.241 160.813C169.094 160.74 168.964 160.64 168.859 160.517C168.755 160.395 168.678 160.253 168.635 160.101C168.591 159.949 168.582 159.79 168.606 159.634L170.114 150.163L172.952 136.875C173.022 136.547 173.164 136.238 173.368 135.966C173.572 135.693 173.834 135.465 174.138 135.295C174.441 135.125 174.779 135.018 175.129 134.98C175.478 134.942 175.833 134.973 176.169 135.073C176.743 135.247 177.234 135.61 177.551 136.097C177.868 136.583 177.991 137.161 177.898 137.726L175.643 151.041L174.308 160.154C174.267 160.425 174.125 160.673 173.907 160.853C173.689 161.033 173.411 161.132 173.122 161.133Z" fill="#2F2E41"/>
<path d="M186.244 128.322C187.29 128.344 188.33 128.155 189.294 127.768C190.258 127.381 191.125 126.806 191.838 126.079C192.551 125.352 193.093 124.49 193.43 123.55C193.766 122.61 193.889 121.613 193.79 120.625C193.691 119.637 193.373 118.68 192.857 117.816C192.34 116.953 191.636 116.203 190.792 115.616C189.948 115.029 188.983 114.618 187.959 114.41C186.936 114.202 185.877 114.202 184.854 114.409C183.324 113.529 181.546 112.936 179.764 113.087C177.982 113.237 176.22 114.241 175.554 115.815C174.887 117.389 175.603 119.464 177.26 120.104C178.322 120.514 179.522 120.315 180.656 120.15C181.789 119.985 183.026 119.877 184.012 120.431C184.999 120.986 185.443 122.473 184.559 123.167C184.091 123.549 183.756 124.057 183.6 124.624C183.444 125.191 183.474 125.789 183.686 126.34C184.13 127.429 185.342 128.304 186.244 128.322Z" fill="#2F2E41"/>
<path d="M170.83 128.91C169.017 128.911 167.28 129.595 165.998 130.81C164.717 132.026 163.998 133.674 163.998 135.392C163.998 137.111 164.717 138.759 165.998 139.974C167.28 141.19 169.017 141.873 170.83 141.875H170.83C172.642 141.873 174.38 141.19 175.661 139.974C176.942 138.759 177.661 137.111 177.661 135.392C177.661 133.674 176.942 132.026 175.661 130.81C174.38 129.595 172.642 128.911 170.83 128.91Z" fill="#008E3A"/>
<path d="M170.181 138.084C170.001 138.085 169.826 138.03 169.682 137.927L169.673 137.921L167.793 136.557C167.706 136.494 167.633 136.415 167.578 136.325C167.523 136.235 167.487 136.135 167.473 136.032C167.459 135.929 167.466 135.824 167.494 135.724C167.522 135.623 167.571 135.529 167.638 135.447C167.705 135.364 167.788 135.295 167.883 135.243C167.978 135.191 168.083 135.157 168.192 135.143C168.301 135.13 168.411 135.136 168.517 135.163C168.623 135.19 168.722 135.237 168.81 135.3L170.027 136.185L172.905 132.626C172.971 132.543 173.055 132.474 173.15 132.422C173.245 132.37 173.349 132.336 173.458 132.322C173.567 132.309 173.677 132.316 173.783 132.343C173.889 132.369 173.989 132.416 174.076 132.479L174.076 132.479L174.058 132.503L174.076 132.479C174.252 132.607 174.367 132.796 174.396 133.004C174.425 133.212 174.365 133.423 174.231 133.59L170.846 137.775C170.768 137.871 170.667 137.949 170.552 138.003C170.437 138.056 170.31 138.084 170.182 138.084L170.181 138.084Z" fill="white"/>
<path d="M185.23 146.885H161.237C160.918 146.885 160.602 146.944 160.307 147.06C160.012 147.176 159.744 147.346 159.519 147.56C159.293 147.774 159.114 148.028 158.992 148.307C158.87 148.587 158.807 148.886 158.807 149.189V171.94C158.807 172.242 158.87 172.542 158.992 172.821C159.114 173.101 159.293 173.355 159.519 173.569C159.744 173.783 160.012 173.953 160.307 174.068C160.602 174.184 160.918 174.244 161.237 174.244H185.23C185.549 174.244 185.865 174.184 186.16 174.068C186.455 173.953 186.723 173.783 186.949 173.569C187.174 173.355 187.353 173.101 187.475 172.821C187.597 172.542 187.66 172.242 187.66 171.94V149.189C187.66 148.886 187.597 148.587 187.475 148.307C187.353 148.028 187.174 147.774 186.949 147.56C186.723 147.346 186.455 147.176 186.16 147.06C185.865 146.944 185.549 146.885 185.23 146.885Z" fill="#008E3A"/>
<path d="M179.827 163.897L168.498 165.989C167.826 166.112 167.13 165.978 166.563 165.615C165.995 165.252 165.603 164.691 165.471 164.054L164.6 159.814C164.47 159.177 164.612 158.517 164.994 157.979C165.377 157.44 165.969 157.068 166.641 156.943L177.969 154.852C178.641 154.728 179.337 154.863 179.905 155.225C180.472 155.588 180.865 156.15 180.996 156.786L181.867 161.026C181.997 161.664 181.856 162.324 181.473 162.862C181.09 163.4 180.498 163.772 179.827 163.897Z" fill="white"/>
<path d="M177.56 158.888L168.915 160.484C168.757 160.513 168.593 160.482 168.459 160.396C168.326 160.311 168.233 160.179 168.203 160.029C168.172 159.879 168.205 159.724 168.295 159.597C168.385 159.47 168.525 159.383 168.683 159.354L177.328 157.757C177.406 157.743 177.487 157.743 177.565 157.758C177.643 157.773 177.718 157.802 177.784 157.845C177.85 157.887 177.907 157.941 177.951 158.004C177.995 158.067 178.026 158.138 178.041 158.212C178.056 158.287 178.056 158.363 178.04 158.437C178.024 158.511 177.993 158.582 177.948 158.645C177.904 158.707 177.846 158.761 177.78 158.803C177.713 158.845 177.639 158.873 177.56 158.888Z" fill="#008E3A"/>
<path d="M175.88 161.252L171.408 162.078C171.33 162.092 171.249 162.092 171.171 162.077C171.093 162.062 171.019 162.032 170.952 161.99C170.886 161.948 170.83 161.893 170.786 161.83C170.742 161.767 170.711 161.697 170.696 161.622C170.681 161.548 170.681 161.472 170.697 161.398C170.713 161.324 170.744 161.253 170.788 161.19C170.833 161.128 170.89 161.074 170.957 161.032C171.023 160.99 171.098 160.961 171.176 160.947L175.648 160.121C175.806 160.092 175.97 160.124 176.103 160.209C176.237 160.294 176.329 160.427 176.36 160.576C176.391 160.726 176.357 160.882 176.267 161.008C176.177 161.135 176.038 161.223 175.88 161.252H175.88Z" fill="#008E3A"/>
<path d="M187.66 149.189V152.213H158.807V149.189C158.807 148.886 158.87 148.587 158.992 148.307C159.114 148.028 159.293 147.774 159.519 147.56C159.744 147.346 160.012 147.176 160.307 147.06C160.602 146.944 160.918 146.885 161.237 146.885H185.23C185.549 146.885 185.865 146.944 186.16 147.06C186.455 147.176 186.723 147.346 186.949 147.56C187.174 147.774 187.353 148.028 187.475 148.307C187.597 148.587 187.66 148.886 187.66 149.189Z" fill="#3F3D56"/>
<path d="M184.504 150.767C184.707 150.453 184.981 150.186 185.305 149.983C185.629 149.78 185.996 149.648 186.38 149.594C186.764 149.541 187.155 149.567 187.527 149.673C187.899 149.778 188.242 149.96 188.532 150.205L193.995 147.703L196.408 150.48L188.641 153.91C188.175 154.345 187.557 154.602 186.904 154.633C186.252 154.665 185.61 154.468 185.1 154.081C184.59 153.693 184.248 153.142 184.138 152.531C184.028 151.92 184.158 151.292 184.504 150.767Z" fill="#FFB8B8"/>
<path d="M192.093 153.454C191.824 153.454 191.563 153.368 191.351 153.21C191.14 153.052 190.991 152.832 190.928 152.584L190.134 149.456C190.074 149.221 190.095 148.973 190.193 148.75C190.292 148.527 190.464 148.34 190.684 148.216L195.469 145.5L193.023 137.008C192.85 136.404 192.888 135.764 193.13 135.182H193.13C193.361 134.63 193.766 134.16 194.289 133.834C194.812 133.508 195.428 133.343 196.053 133.361C196.679 133.38 197.283 133.58 197.784 133.936C198.285 134.291 198.659 134.785 198.853 135.348L201.554 143.167C201.886 144.121 201.888 145.149 201.561 146.104C201.235 147.058 200.595 147.889 199.736 148.476L192.794 153.238C192.59 153.378 192.345 153.454 192.093 153.454Z" fill="#2F2E41"/>
<path d="M200 215H171.122C171.047 215 170.975 214.972 170.921 214.921C170.868 214.871 170.839 214.803 170.839 214.732C170.839 214.66 170.868 214.592 170.921 214.542C170.975 214.491 171.047 214.463 171.122 214.463H200C200.076 214.463 200.148 214.491 200.201 214.542C200.254 214.592 200.284 214.66 200.284 214.732C200.284 214.803 200.254 214.871 200.201 214.921C200.148 214.972 200.076 215 200 215Z" fill="#CCCCCC"/>
</g>
<defs>
<clipPath id="clip0">
<rect width="250" height="215" fill="white"/>
</clipPath>
</defs>
</svg>
