<svg width="250" height="230" viewBox="0 0 250 230" fill="none" xmlns="http://www.w3.org/2000/svg">
<g clip-path="url(#clip0)">
<mask id="path-1-inside-1" fill="white">
<path d="M209.717 122.283L210.847 121.579L211.172 121.369C208.75 120.952 206.543 119.72 204.916 117.875C203.289 116.03 202.339 113.683 202.223 111.224C202.141 109.532 202.461 107.844 203.157 106.301C203.802 104.857 204.756 103.573 205.95 102.539C207.144 101.505 208.55 100.746 210.068 100.314L210.036 104.769L212.477 99.9226H212.506C213.921 99.8563 215.335 100.07 216.668 100.552C218 101.033 219.225 101.773 220.272 102.729C221.319 103.685 222.168 104.838 222.771 106.123C223.373 107.408 223.717 108.799 223.783 110.217C223.783 110.422 223.783 110.627 223.783 110.83C224.643 109.89 225.36 108.828 225.91 107.678C226.941 105.365 226.973 102.749 226.88 99.5709C226.718 93.2675 226.447 86.9162 226.082 80.5862C223.534 80.3013 221.171 79.1153 219.417 77.2413C217.663 75.3672 216.633 72.9278 216.512 70.3612C216.496 70.0309 216.512 69.7032 216.512 69.3808C216.512 69.2982 216.512 69.2183 216.512 69.1384C216.531 68.824 216.563 68.5123 216.608 68.2059C216.608 68.1553 216.629 68.1074 216.637 68.0567C216.68 67.7974 216.733 67.5417 216.797 67.2895C216.818 67.1935 216.842 67.1003 216.868 67.0044C216.943 66.738 217.028 66.4556 217.134 66.1892C217.166 66.1012 217.203 66.0133 217.238 65.9227C217.314 65.7256 217.397 65.5311 217.485 65.3393C217.533 65.2381 217.578 65.1368 217.626 65.0383C217.626 65.0143 217.65 64.9876 217.663 64.961C218.802 62.708 220.693 60.9261 223.006 59.925C225.32 58.9238 227.911 58.7667 230.328 59.4808L230.253 65.2754L232.67 60.4799C234.653 61.6195 236.221 63.3639 237.146 65.459C238.071 67.5541 238.304 69.8904 237.811 72.1275C237.795 72.2048 237.771 72.2794 237.753 72.354C237.721 72.4979 237.684 72.6391 237.644 72.7803C237.593 72.9614 237.537 73.1373 237.476 73.3131C237.431 73.4463 237.389 73.5795 237.338 73.71C237.264 73.9019 237.181 74.0884 237.099 74.2748C237.048 74.3841 237.006 74.496 236.953 74.6025C236.817 74.869 236.668 75.154 236.509 75.4204C236.453 75.5137 236.389 75.6016 236.331 75.6868C236.214 75.8653 236.099 76.0438 235.972 76.2197C235.895 76.3262 235.812 76.4275 235.73 76.5314C235.613 76.6806 235.493 76.8298 235.366 76.971C235.238 77.1122 235.185 77.1734 235.1 77.272C235.015 77.3706 234.834 77.5384 234.693 77.6796C234.6 77.7675 234.507 77.8581 234.411 77.946C234.252 78.0872 234.084 78.2125 233.917 78.3537C233.832 78.4203 233.749 78.4895 233.651 78.5535C233.385 78.7426 233.132 78.9211 232.853 79.0863C232.803 79.1183 232.75 79.1449 232.696 79.1742C232.471 79.3074 232.237 79.4406 232 79.5525C231.899 79.6031 231.793 79.6458 231.689 79.6937C231.492 79.7816 231.296 79.8669 231.096 79.9441C230.979 79.9894 230.86 80.0294 230.74 80.0694C230.543 80.1386 230.341 80.1999 230.139 80.2559C230.017 80.2905 229.897 80.3225 229.775 80.3518C229.554 80.405 229.331 80.4477 229.102 80.4876H229.06C229.209 83.1518 229.341 85.8239 229.456 88.504C230.099 87.181 231.005 86.0035 232.118 85.0439C233.231 84.0843 234.528 83.3628 235.93 82.9237C237.331 82.4846 238.808 82.3372 240.268 82.4905C241.729 82.6438 243.142 83.0946 244.423 83.8151L242.517 89.0475L246.438 85.2751C248.54 87.2007 249.793 89.8836 249.923 92.7347C249.975 93.7351 249.886 94.738 249.657 95.7132C249.165 97.8217 248.051 99.7333 246.461 101.2C244.871 102.666 242.878 103.62 240.741 103.937C238.603 104.255 236.42 103.921 234.474 102.979C232.528 102.038 230.909 100.532 229.828 98.6571C229.828 98.9235 229.847 99.1899 229.855 99.4697C229.926 102.278 230.017 105.768 228.621 108.885C227.675 111 226.152 112.716 224.65 114.253C223.669 115.255 222.658 116.224 221.616 117.16C220.602 118.54 219.275 119.659 217.746 120.426C216.037 121.744 214.265 122.978 212.429 124.129L211.286 124.84C210.26 125.477 209.207 126.132 208.176 126.814C208.356 126.796 208.537 126.774 208.721 126.766C211.006 126.659 213.267 127.283 215.176 128.548C217.085 129.812 218.544 131.653 219.341 133.803L212.602 139.296L220.013 137.575C220.01 139.402 219.546 141.199 218.662 142.797C217.779 144.396 216.506 145.744 214.962 146.716C213.418 147.688 211.654 148.253 209.833 148.356C208.013 148.46 206.196 148.1 204.552 147.31L205.052 147.933C205.384 148.346 205.714 148.756 206.036 149.164C210.422 154.729 211.639 160.012 209.47 164.041L206.846 162.613C208.96 158.691 205.783 153.672 203.699 151.029C203.382 150.627 203.058 150.23 202.734 149.819C199.935 146.332 196.744 142.378 196.827 137.527C196.944 130.217 204.026 125.818 209.717 122.283Z"/>
</mask>
<path d="M209.717 122.283L210.847 121.579L211.172 121.369C208.75 120.952 206.543 119.72 204.916 117.875C203.289 116.03 202.339 113.683 202.223 111.224C202.141 109.532 202.461 107.844 203.157 106.301C203.802 104.857 204.756 103.573 205.95 102.539C207.144 101.505 208.55 100.746 210.068 100.314L210.036 104.769L212.477 99.9226H212.506C213.921 99.8563 215.335 100.07 216.668 100.552C218 101.033 219.225 101.773 220.272 102.729C221.319 103.685 222.168 104.838 222.771 106.123C223.373 107.408 223.717 108.799 223.783 110.217C223.783 110.422 223.783 110.627 223.783 110.83C224.643 109.89 225.36 108.828 225.91 107.678C226.941 105.365 226.973 102.749 226.88 99.5709C226.718 93.2675 226.447 86.9162 226.082 80.5862C223.534 80.3013 221.171 79.1153 219.417 77.2413C217.663 75.3672 216.633 72.9278 216.512 70.3612C216.496 70.0309 216.512 69.7032 216.512 69.3808C216.512 69.2982 216.512 69.2183 216.512 69.1384C216.531 68.824 216.563 68.5123 216.608 68.2059C216.608 68.1553 216.629 68.1074 216.637 68.0567C216.68 67.7974 216.733 67.5417 216.797 67.2895C216.818 67.1935 216.842 67.1003 216.868 67.0044C216.943 66.738 217.028 66.4556 217.134 66.1892C217.166 66.1012 217.203 66.0133 217.238 65.9227C217.314 65.7256 217.397 65.5311 217.485 65.3393C217.533 65.2381 217.578 65.1368 217.626 65.0383C217.626 65.0143 217.65 64.9876 217.663 64.961C218.802 62.708 220.693 60.9261 223.006 59.925C225.32 58.9238 227.911 58.7667 230.328 59.4808L230.253 65.2754L232.67 60.4799C234.653 61.6195 236.221 63.3639 237.146 65.459C238.071 67.5541 238.304 69.8904 237.811 72.1275C237.795 72.2048 237.771 72.2794 237.753 72.354C237.721 72.4979 237.684 72.6391 237.644 72.7803C237.593 72.9614 237.537 73.1373 237.476 73.3131C237.431 73.4463 237.389 73.5795 237.338 73.71C237.264 73.9019 237.181 74.0884 237.099 74.2748C237.048 74.3841 237.006 74.496 236.953 74.6025C236.817 74.869 236.668 75.154 236.509 75.4204C236.453 75.5137 236.389 75.6016 236.331 75.6868C236.214 75.8653 236.099 76.0438 235.972 76.2197C235.895 76.3262 235.812 76.4275 235.73 76.5314C235.613 76.6806 235.493 76.8298 235.366 76.971C235.238 77.1122 235.185 77.1734 235.1 77.272C235.015 77.3706 234.834 77.5384 234.693 77.6796C234.6 77.7675 234.507 77.8581 234.411 77.946C234.252 78.0872 234.084 78.2125 233.917 78.3537C233.832 78.4203 233.749 78.4895 233.651 78.5535C233.385 78.7426 233.132 78.9211 232.853 79.0863C232.803 79.1183 232.75 79.1449 232.696 79.1742C232.471 79.3074 232.237 79.4406 232 79.5525C231.899 79.6031 231.793 79.6458 231.689 79.6937C231.492 79.7816 231.296 79.8669 231.096 79.9441C230.979 79.9894 230.86 80.0294 230.74 80.0694C230.543 80.1386 230.341 80.1999 230.139 80.2559C230.017 80.2905 229.897 80.3225 229.775 80.3518C229.554 80.405 229.331 80.4477 229.102 80.4876H229.06C229.209 83.1518 229.341 85.8239 229.456 88.504C230.099 87.181 231.005 86.0035 232.118 85.0439C233.231 84.0843 234.528 83.3628 235.93 82.9237C237.331 82.4846 238.808 82.3372 240.268 82.4905C241.729 82.6438 243.142 83.0946 244.423 83.8151L242.517 89.0475L246.438 85.2751C248.54 87.2007 249.793 89.8836 249.923 92.7347C249.975 93.7351 249.886 94.738 249.657 95.7132C249.165 97.8217 248.051 99.7333 246.461 101.2C244.871 102.666 242.878 103.62 240.741 103.937C238.603 104.255 236.42 103.921 234.474 102.979C232.528 102.038 230.909 100.532 229.828 98.6571C229.828 98.9235 229.847 99.1899 229.855 99.4697C229.926 102.278 230.017 105.768 228.621 108.885C227.675 111 226.152 112.716 224.65 114.253C223.669 115.255 222.658 116.224 221.616 117.16C220.602 118.54 219.275 119.659 217.746 120.426C216.037 121.744 214.265 122.978 212.429 124.129L211.286 124.84C210.26 125.477 209.207 126.132 208.176 126.814C208.356 126.796 208.537 126.774 208.721 126.766C211.006 126.659 213.267 127.283 215.176 128.548C217.085 129.812 218.544 131.653 219.341 133.803L212.602 139.296L220.013 137.575C220.01 139.402 219.546 141.199 218.662 142.797C217.779 144.396 216.506 145.744 214.962 146.716C213.418 147.688 211.654 148.253 209.833 148.356C208.013 148.46 206.196 148.1 204.552 147.31L205.052 147.933C205.384 148.346 205.714 148.756 206.036 149.164C210.422 154.729 211.639 160.012 209.47 164.041L206.846 162.613C208.96 158.691 205.783 153.672 203.699 151.029C203.382 150.627 203.058 150.23 202.734 149.819C199.935 146.332 196.744 142.378 196.827 137.527C196.944 130.217 204.026 125.818 209.717 122.283Z" fill="#FFE116" stroke="#FFE116" stroke-opacity="0.95" stroke-width="2" mask="url(#path-1-inside-1)"/>
<path d="M250 228.788H81.296V229.496H250V228.788Z" fill="#3F3D56"/>
<path d="M218.516 108.361C218.841 108.732 219.081 109.166 219.223 109.634C219.365 110.102 219.404 110.593 219.338 111.077C219.272 111.56 219.102 112.024 218.84 112.44C218.578 112.856 218.229 113.213 217.816 113.489L200.357 125.156L192.668 130.144C192.232 130.428 191.702 130.543 191.183 130.467C190.664 130.392 190.193 130.131 189.86 129.735C189.666 129.505 189.526 129.236 189.45 128.948C189.373 128.66 189.362 128.358 189.416 128.065C189.471 127.772 189.59 127.494 189.766 127.251C189.942 127.007 190.17 126.803 190.435 126.654L197.881 122.446L210.877 110.399L202.523 101.666L208.711 97.1484L218.516 108.361Z" fill="#A0616A"/>
<path d="M177.459 218.213H173.188L170.652 183.881L181.482 183.58L177.459 218.213Z" fill="#A0616A"/>
<path d="M177.769 229.356C176.63 229.862 175.676 225.764 174.715 226.682C172.028 229.252 167.914 229.812 164.328 228.69L165.583 228.676C165.366 228.609 165.166 228.499 164.995 228.354C164.823 228.208 164.684 228.031 164.585 227.832C164.486 227.633 164.429 227.416 164.419 227.195C164.409 226.974 164.444 226.753 164.524 226.546C164.62 226.298 164.776 226.076 164.979 225.9C165.182 225.724 165.426 225.598 165.689 225.534L168.547 224.839L173.034 217.159L177.614 216.858C178.635 218.125 179.348 219.601 179.698 221.175C180.049 222.748 180.028 224.379 179.638 225.944C179.222 227.595 178.58 228.995 177.769 229.356Z" fill="black"/>
<path d="M205.896 218.213H201.625L199.088 183.881L210.228 181.773L205.896 218.213Z" fill="#A0616A"/>
<path d="M206.205 229.356C205.066 229.862 204.112 225.764 203.152 226.682C200.465 229.252 196.351 229.812 192.764 228.69L194.019 228.676C193.803 228.609 193.603 228.499 193.431 228.354C193.26 228.208 193.12 228.031 193.021 227.832C192.922 227.633 192.866 227.416 192.856 227.195C192.845 226.974 192.881 226.753 192.961 226.546C193.056 226.298 193.212 226.076 193.415 225.9C193.618 225.724 193.862 225.598 194.126 225.534L196.984 224.839L201.47 217.159L206.36 216.557L206.483 216.754C207.429 218.236 208.038 219.898 208.271 221.628C208.504 223.359 208.355 225.117 207.834 226.787C207.428 228.055 206.874 229.059 206.205 229.356Z" fill="black"/>
<path d="M210.738 97.9249C206.811 98.4568 204.092 100.55 202.984 104.726L195.765 91.7531C195.337 90.9287 195.228 89.9817 195.459 89.0857C195.69 88.1897 196.245 87.4048 197.023 86.8747C197.848 86.3121 198.862 86.0778 199.859 86.2198C200.856 86.3618 201.759 86.8693 202.384 87.6385L210.738 97.9249Z" fill="#008E3A"/>
<path d="M218.303 180.268C200.75 187.826 182.787 188.757 164.463 183.881C171.154 158.624 179.055 135.785 179.006 117.025L196.953 115.519L199.716 119.783C206.272 129.898 210.798 141.133 213.052 152.89L218.303 180.268Z" fill="black"/>
<path d="M188.908 78.1755C194.035 78.1755 198.191 74.1305 198.191 69.1408C198.191 64.1511 194.035 60.1061 188.908 60.1061C183.781 60.1061 179.625 64.1511 179.625 69.1408C179.625 74.1305 183.781 78.1755 188.908 78.1755Z" fill="#A0616A"/>
<path d="M199.119 85.1019L187.67 85.7043L185.814 75.7661L195.096 74.2605L199.119 85.1019Z" fill="#A0616A"/>
<path d="M197.881 117.025L185.339 117.369L179.006 118.229C175.898 108.236 173.281 98.2657 179.625 89.9206L187.051 82.6928L198.191 82.3917L198.338 82.4737C200.107 83.4602 201.478 85.0037 202.225 86.85C202.972 88.6963 203.051 90.7352 202.448 92.6308C199.684 101.374 197.908 109.63 197.881 117.025Z" fill="#008E3A"/>
<path d="M178.697 145.032L177.919 155.381C177.877 155.935 177.631 156.456 177.226 156.848C176.821 157.24 176.284 157.476 175.714 157.513C175.386 157.534 175.057 157.489 174.747 157.379C174.438 157.27 174.156 157.099 173.918 156.877C173.681 156.656 173.493 156.388 173.367 156.092C173.242 155.796 173.181 155.478 173.189 155.158L173.437 145.032L181.172 116.422L181.482 98.9553L190.146 98.6542L189.527 118.832L178.697 145.032Z" fill="#A0616A"/>
<path d="M191.074 100.16C187.401 98.7061 183.97 99.193 180.863 102.268L181.288 87.5202C181.342 86.5979 181.735 85.7254 182.396 85.0624C183.057 84.3994 183.942 83.9904 184.887 83.9104C185.891 83.8255 186.89 84.1172 187.679 84.7259C188.469 85.3346 188.99 86.2141 189.135 87.1844L191.074 100.16Z" fill="#008E3A"/>
<path d="M208.556 109.345H180.089C186.73 92.23 188.872 76.3078 180.089 62.666C180.24 58.5686 185.64 55.0165 189.833 55.4089C194.785 55.8724 201.44 59.4144 202.368 64.1717L208.556 109.345Z" fill="black" fill-opacity="0.97"/>
<path d="M117.833 54.6566H116.535V20.0369C116.535 17.4057 116.002 14.8001 114.967 12.3691C113.933 9.93814 112.416 7.72928 110.505 5.86868C108.593 4.00807 106.323 2.53216 103.826 1.52522C101.328 0.518271 98.6509 7.37353e-06 95.9474 1.52589e-05H20.5872C17.8836 9.44863e-06 15.2066 0.518277 12.7088 1.52523C10.2111 2.53217 7.94157 4.00808 6.02988 5.86868C4.11819 7.72929 2.60175 9.93815 1.56716 12.3691C0.532557 14.8001 5.80503e-05 17.4057 6.10352e-05 20.037V209.963C5.89031e-05 212.594 0.532557 215.2 1.56716 217.631C2.60175 220.062 4.11819 222.271 6.02988 224.131C7.94157 225.992 10.2111 227.468 12.7088 228.475C15.2066 229.482 17.8836 230 20.5872 230H95.9474C98.6509 230 101.328 229.482 103.826 228.475C106.323 227.468 108.593 225.992 110.505 224.131C112.416 222.271 113.933 220.062 114.967 217.631C116.002 215.2 116.535 212.594 116.535 209.963V79.2995H117.833V54.6566Z" fill="black"/>
<path d="M96.778 5.21294H86.941C87.3934 6.29238 87.5661 7.46354 87.4438 8.62325C87.3216 9.78295 86.9082 10.8956 86.2401 11.8632C85.572 12.8308 84.6696 13.6236 83.6126 14.1718C82.5555 14.72 81.3761 15.0068 80.1783 15.0069H37.0054C35.8076 15.0068 34.6282 14.72 33.5711 14.1718C32.514 13.6236 31.6116 12.8308 30.9435 11.8632C30.2754 10.8956 29.862 9.78295 29.7398 8.62325C29.6176 7.46355 29.7902 6.29238 30.2426 5.21294H21.0548C19.0359 5.21293 17.0367 5.59997 15.1714 6.35195C13.3061 7.10392 11.6113 8.20611 10.1836 9.59558C8.75601 10.9851 7.62356 12.6346 6.85093 14.45C6.0783 16.2655 5.68064 18.2112 5.68063 20.1763V209.824C5.68063 211.789 6.0783 213.735 6.85093 215.55C7.62355 217.365 8.75601 219.015 10.1836 220.404C11.6113 221.794 13.3061 222.896 15.1714 223.648C17.0367 224.4 19.0359 224.787 21.0548 224.787H96.778C98.797 224.787 100.796 224.4 102.661 223.648C104.527 222.896 106.222 221.794 107.649 220.404C109.077 219.015 110.209 217.365 110.982 215.55C111.755 213.735 112.152 211.789 112.152 209.824V20.1763C112.152 16.2077 110.532 12.4017 107.649 9.59558C104.766 6.78941 100.856 5.21293 96.778 5.21294Z" fill="white"/>
<path d="M19.4774 35.3372H98.3555V101.02H19.4774V35.3372Z" fill="#E6E6E6" stroke="#008E3A"/>
<path d="M42.6811 115.425C45.909 115.425 48.5258 112.878 48.5258 109.736C48.5258 106.595 45.909 104.048 42.6811 104.048C39.4531 104.048 36.8363 106.595 36.8363 109.736C36.8363 112.878 39.4531 115.425 42.6811 115.425Z" fill="#008E3A"/>
<path d="M45.6035 109.262H43.1682V106.892H42.1941V109.262H39.7588V110.211H42.1941V112.581H43.1682V110.211H45.6035V109.262Z" fill="white"/>
<path d="M73.5283 115.425C76.7563 115.425 79.373 112.878 79.373 109.736C79.373 106.595 76.7563 104.048 73.5283 104.048C70.3003 104.048 67.6836 106.595 67.6836 109.736C67.6836 112.878 70.3003 115.425 73.5283 115.425Z" fill="#FFE116" fill-opacity="0.95"/>
<path d="M76.4507 110.21V109.262H70.6059V110.21H76.4507Z" fill="white"/>
<path d="M61.8956 43.1535H55.5832C55.3612 43.1535 55.1484 43.2393 54.9914 43.392C54.8345 43.5448 54.7463 43.752 54.7463 43.968V46.6647C54.7463 46.8807 54.8345 47.0879 54.9914 47.2406C55.1484 47.3934 55.3612 47.4792 55.5832 47.4792H56.6292V51.5197H60.8495V47.4792H61.8956C62.1175 47.4792 62.3304 47.3934 62.4873 47.2406C62.6443 47.0879 62.7325 46.8807 62.7325 46.6647V43.968C62.7325 43.752 62.6443 43.5448 62.4873 43.392C62.3304 43.2393 62.1175 43.1535 61.8956 43.1535Z" fill="#008E3A"/>
<path d="M68.2181 67.8332C64.3522 62.3275 62.3759 55.7722 62.5722 49.1064C62.5758 48.9526 62.5245 48.8023 62.4271 48.6812C62.3297 48.56 62.1922 48.4754 62.038 48.4416V47.2764H55.3713V48.4255H55.2794C55.1896 48.4256 55.1007 48.4429 55.0177 48.4765C54.9348 48.51 54.8594 48.5592 54.796 48.6211C54.7325 48.683 54.6822 48.7564 54.648 48.8372C54.6137 48.9181 54.5961 49.0047 54.5962 49.0921C54.5963 49.1083 54.5969 49.1244 54.5981 49.1406C55.1233 56.2662 53.3498 62.6564 49.2776 68.3111C49.0432 68.6361 48.9235 69.0262 48.9364 69.423L49.6653 91.3697C49.6829 91.8592 49.8939 92.3232 50.2546 92.6648C50.6152 93.0065 51.0974 93.1994 51.6007 93.2033H66.6797C67.1887 93.1993 67.676 93.002 68.0377 92.6534C68.3994 92.3049 68.607 91.8326 68.6162 91.3373L68.8972 70.029C68.9055 69.2469 68.6686 68.4809 68.2181 67.8332Z" fill="black" fill-opacity="0.82"/>
<path opacity="0.2" d="M60.5797 44.0322C60.5797 44.4982 60.3895 44.9452 60.0509 45.2748C59.7123 45.6043 59.253 45.7895 58.7741 45.7895C58.2953 45.7895 57.836 45.6043 57.4974 45.2748C57.1588 44.9452 56.9686 44.4982 56.9686 44.0322" fill="black"/>
<path d="M65.8311 75.1232H64.0051C63.8308 74.0222 63.2574 73.0183 62.3886 72.2931C61.5198 71.5679 60.4131 71.1692 59.2685 71.1692C58.124 71.1692 57.0172 71.5679 56.1485 72.2931C55.2797 73.0183 54.7063 74.0222 54.532 75.1232H52.7059C52.5116 75.1232 52.3196 75.1641 52.1431 75.2431C51.9665 75.322 51.8097 75.4372 51.6831 75.5807C51.5566 75.7242 51.4635 75.8927 51.4102 76.0745C51.3568 76.2563 51.3445 76.4472 51.374 76.6341L53.3574 89.1817H64.7464L67.1555 76.6764C67.192 76.487 67.1852 76.2921 67.1355 76.1055C67.0858 75.919 66.9944 75.7454 66.868 75.5971C66.7415 75.4488 66.5831 75.3295 66.4038 75.2476C66.2246 75.1657 66.0291 75.1232 65.8311 75.1232V75.1232Z" fill="#008E3A"/>
<path d="M19.4774 129.198H98.3555V194.881H19.4774V129.198Z" fill="#E6E6E6" stroke="#008E3A"/>
<path d="M42.6811 209.286C45.909 209.286 48.5258 206.739 48.5258 203.597C48.5258 200.456 45.909 197.909 42.6811 197.909C39.4531 197.909 36.8363 200.456 36.8363 203.597C36.8363 206.739 39.4531 209.286 42.6811 209.286Z" fill="#FFE116" fill-opacity="0.95"/>
<path d="M45.6035 203.124H43.1682V200.753H42.1941V203.124H39.7588V204.072H42.1941V206.442H43.1682V204.072H45.6035V203.124Z" fill="white"/>
<path d="M73.5283 209.286C76.7563 209.286 79.373 206.739 79.373 203.597C79.373 200.456 76.7563 197.909 73.5283 197.909C70.3003 197.909 67.6836 200.456 67.6836 203.597C67.6836 206.739 70.3003 209.286 73.5283 209.286Z" fill="#008E3A"/>
<path d="M76.4507 204.071V203.123H70.6059V204.071H76.4507Z" fill="white"/>
<path d="M74.6414 176.071L74.6855 176.071C76.1894 176.083 77.6622 175.654 78.9118 174.839C80.1614 174.024 81.1297 172.862 81.6903 171.504C83.4573 167.156 83.871 162.398 82.88 157.822C81.8889 153.247 79.537 149.056 76.1169 145.772C72.6969 142.488 68.3598 140.256 63.6458 139.353C58.9318 138.45 54.0491 138.917 49.6057 140.695C45.1623 142.474 41.3545 145.485 38.6564 149.354C35.9584 153.223 34.4892 157.779 34.4319 162.454C34.3747 167.13 35.7318 171.719 38.3343 175.649C40.9369 179.58 44.6698 182.678 49.0684 184.559C50.4355 185.148 51.9536 185.322 53.4237 185.056C54.8937 184.791 56.2471 184.099 57.3062 183.072C59.578 180.85 62.2794 179.087 65.2547 177.885C68.2299 176.683 71.4201 176.067 74.6414 176.071Z" fill="white"/>
<path d="M62.0614 168.855C66.5278 168.855 70.1485 165.331 70.1485 160.984C70.1485 156.637 66.5278 153.113 62.0614 153.113C57.5949 153.113 53.9742 156.637 53.9742 160.984C53.9742 165.331 57.5949 168.855 62.0614 168.855Z" fill="#FFE116" fill-opacity="0.87"/>
<mask id="path-34-inside-2" fill="white">
<path d="M164.578 76.0092L163.999 74.805C163.945 74.6905 163.895 74.5732 163.839 74.456C166.096 75.3958 168.605 75.5391 170.955 74.8622C173.304 74.1853 175.354 72.7286 176.769 70.7308C178.184 68.733 178.879 66.3127 178.741 63.8669C178.603 61.4211 177.64 59.0948 176.009 57.2696L173.672 61.058L174.204 55.6578C174.197 55.651 174.189 55.6447 174.18 55.6392C173.021 54.8231 171.713 54.2438 170.331 53.9343C168.949 53.6248 167.519 53.5911 166.124 53.8353C164.729 54.0795 163.395 54.5967 162.2 55.3573C161.004 56.118 159.969 57.1073 159.155 58.2687C159.035 58.4365 158.932 58.6123 158.825 58.7855C158.6 57.529 158.563 56.246 158.714 54.9785C159.078 52.4715 160.46 50.2523 162.231 47.6121C165.74 42.3797 169.366 37.166 173.053 32.0135C175.357 33.1443 177.988 33.4143 180.473 32.775C182.959 32.1358 185.135 30.6293 186.611 28.5262C186.802 28.2597 186.972 27.9773 187.142 27.6976C187.182 27.6283 187.222 27.5564 187.259 27.4845C187.411 27.2181 187.552 26.9303 187.677 26.6479L187.733 26.5067C187.834 26.2643 187.927 26.0192 187.998 25.7714C188.03 25.6782 188.062 25.5876 188.089 25.505C188.174 25.2386 188.248 24.9562 188.309 24.6791C188.331 24.5859 188.347 24.4926 188.365 24.4127C188.405 24.2049 188.44 23.9944 188.466 23.7866C188.482 23.6748 188.498 23.5655 188.509 23.4563C188.509 23.427 188.509 23.4003 188.509 23.371C188.76 20.8561 188.123 18.3326 186.708 16.2402C185.294 14.1477 183.191 12.619 180.768 11.9205L177.729 16.8519L178.261 11.5236C175.977 11.4171 173.72 12.0454 171.818 13.3166C169.916 14.5877 168.47 16.4352 167.691 18.5889C167.664 18.6635 167.646 18.7381 167.619 18.8127C167.571 18.9512 167.526 19.0791 167.484 19.231C167.441 19.3828 167.385 19.5906 167.34 19.7638C167.308 19.8997 167.274 20.0302 167.244 20.1741C167.205 20.3739 167.175 20.5764 167.146 20.7788C167.127 20.896 167.106 21.0133 167.093 21.1305C167.058 21.4395 167.037 21.7512 167.032 22.0603C167.032 22.1695 167.032 22.2787 167.032 22.388C167.032 22.6011 167.032 22.8142 167.05 23.0247C167.05 23.1579 167.074 23.2911 167.09 23.419C167.109 23.6081 167.13 23.8 167.159 23.9865C167.181 24.1223 167.205 24.2529 167.231 24.3861C167.268 24.5752 167.311 24.7644 167.356 24.9509C167.388 25.0761 167.42 25.2013 167.454 25.3265C167.513 25.529 167.582 25.7315 167.654 25.9339C167.688 26.0352 167.72 26.1391 167.76 26.2403C167.874 26.536 167.999 26.8291 168.14 27.1142C168.167 27.1674 168.199 27.2207 168.228 27.274C168.348 27.5085 168.475 27.7402 168.613 27.9667C168.672 28.0626 168.738 28.1585 168.8 28.2544C168.919 28.4329 169.039 28.6087 169.166 28.7872C169.244 28.8885 169.321 28.9871 169.4 29.0856C169.531 29.2481 169.666 29.408 169.81 29.5652C169.892 29.6584 169.975 29.7517 170.062 29.8316C170.222 29.9941 170.389 30.1513 170.559 30.3058L170.591 30.3378C169.037 32.5117 167.495 34.6954 165.966 36.8889C166.13 35.4276 165.994 33.9482 165.567 32.5413C165.14 31.1343 164.431 29.8296 163.484 28.7071C162.536 27.5846 161.369 26.6679 160.055 26.0133C158.741 25.3587 157.308 24.9799 155.843 24.9003L154.652 30.3431L153.36 25.0521C151.971 25.2971 150.643 25.814 149.454 26.5733C148.264 27.3326 147.235 28.3194 146.427 29.4773C145.848 30.296 145.389 31.193 145.063 32.1414C144.352 34.1847 144.27 36.3946 144.828 38.4851C145.385 40.5755 146.556 42.45 148.189 43.8658C149.821 45.2816 151.841 46.1734 153.985 46.4257C156.13 46.6781 158.3 46.2792 160.216 45.281C160.064 45.5074 159.91 45.7312 159.758 45.955C158.195 48.2861 156.252 51.1847 155.771 54.5655C155.438 56.8593 155.805 59.1239 156.249 61.2259C156.542 62.597 156.877 63.9584 157.254 65.31C157.382 67.0211 157.913 68.6774 158.804 70.1428C159.543 72.1728 160.372 74.1709 161.303 76.1211L161.885 77.3333C162.417 78.4229 162.948 79.5419 163.456 80.6715C163.313 80.5596 163.172 80.445 163.02 80.3384C161.148 79.0199 158.906 78.3318 156.618 78.3734C154.33 78.4151 152.115 79.1844 150.292 80.5702L153.041 88.8291L147.705 83.3942C146.73 84.9377 146.162 86.7036 146.052 88.527C145.943 90.3504 146.296 92.1719 147.079 93.8214C147.862 95.4708 149.05 96.8946 150.531 97.9596C152.011 99.0247 153.737 99.6964 155.548 99.9119L154.793 100.178L153.304 100.69C146.626 103.032 142.769 106.836 142.447 111.402L145.44 111.616C145.754 107.169 151.121 104.641 154.295 103.53C154.777 103.359 155.266 103.194 155.758 103.026C159.987 101.588 164.796 99.9572 167.311 95.8198C171.11 89.5697 167.484 82.0515 164.578 76.0092Z"/>
</mask>
<path d="M164.578 76.0092L163.999 74.805C163.945 74.6905 163.895 74.5732 163.839 74.456C166.096 75.3958 168.605 75.5391 170.955 74.8622C173.304 74.1853 175.354 72.7286 176.769 70.7308C178.184 68.733 178.879 66.3127 178.741 63.8669C178.603 61.4211 177.64 59.0948 176.009 57.2696L173.672 61.058L174.204 55.6578C174.197 55.651 174.189 55.6447 174.18 55.6392C173.021 54.8231 171.713 54.2438 170.331 53.9343C168.949 53.6248 167.519 53.5911 166.124 53.8353C164.729 54.0795 163.395 54.5967 162.2 55.3573C161.004 56.118 159.969 57.1073 159.155 58.2687C159.035 58.4365 158.932 58.6123 158.825 58.7855C158.6 57.529 158.563 56.246 158.714 54.9785C159.078 52.4715 160.46 50.2523 162.231 47.6121C165.74 42.3797 169.366 37.166 173.053 32.0135C175.357 33.1443 177.988 33.4143 180.473 32.775C182.959 32.1358 185.135 30.6293 186.611 28.5262C186.802 28.2597 186.972 27.9773 187.142 27.6976C187.182 27.6283 187.222 27.5564 187.259 27.4845C187.411 27.2181 187.552 26.9303 187.677 26.6479L187.733 26.5067C187.834 26.2643 187.927 26.0192 187.998 25.7714C188.03 25.6782 188.062 25.5876 188.089 25.505C188.174 25.2386 188.248 24.9562 188.309 24.6791C188.331 24.5859 188.347 24.4926 188.365 24.4127C188.405 24.2049 188.44 23.9944 188.466 23.7866C188.482 23.6748 188.498 23.5655 188.509 23.4563C188.509 23.427 188.509 23.4003 188.509 23.371C188.76 20.8561 188.123 18.3326 186.708 16.2402C185.294 14.1477 183.191 12.619 180.768 11.9205L177.729 16.8519L178.261 11.5236C175.977 11.4171 173.72 12.0454 171.818 13.3166C169.916 14.5877 168.47 16.4352 167.691 18.5889C167.664 18.6635 167.646 18.7381 167.619 18.8127C167.571 18.9512 167.526 19.0791 167.484 19.231C167.441 19.3828 167.385 19.5906 167.34 19.7638C167.308 19.8997 167.274 20.0302 167.244 20.1741C167.205 20.3739 167.175 20.5764 167.146 20.7788C167.127 20.896 167.106 21.0133 167.093 21.1305C167.058 21.4395 167.037 21.7512 167.032 22.0603C167.032 22.1695 167.032 22.2787 167.032 22.388C167.032 22.6011 167.032 22.8142 167.05 23.0247C167.05 23.1579 167.074 23.2911 167.09 23.419C167.109 23.6081 167.13 23.8 167.159 23.9865C167.181 24.1223 167.205 24.2529 167.231 24.3861C167.268 24.5752 167.311 24.7644 167.356 24.9509C167.388 25.0761 167.42 25.2013 167.454 25.3265C167.513 25.529 167.582 25.7315 167.654 25.9339C167.688 26.0352 167.72 26.1391 167.76 26.2403C167.874 26.536 167.999 26.8291 168.14 27.1142C168.167 27.1674 168.199 27.2207 168.228 27.274C168.348 27.5085 168.475 27.7402 168.613 27.9667C168.672 28.0626 168.738 28.1585 168.8 28.2544C168.919 28.4329 169.039 28.6087 169.166 28.7872C169.244 28.8885 169.321 28.9871 169.4 29.0856C169.531 29.2481 169.666 29.408 169.81 29.5652C169.892 29.6584 169.975 29.7517 170.062 29.8316C170.222 29.9941 170.389 30.1513 170.559 30.3058L170.591 30.3378C169.037 32.5117 167.495 34.6954 165.966 36.8889C166.13 35.4276 165.994 33.9482 165.567 32.5413C165.14 31.1343 164.431 29.8296 163.484 28.7071C162.536 27.5846 161.369 26.6679 160.055 26.0133C158.741 25.3587 157.308 24.9799 155.843 24.9003L154.652 30.3431L153.36 25.0521C151.971 25.2971 150.643 25.814 149.454 26.5733C148.264 27.3326 147.235 28.3194 146.427 29.4773C145.848 30.296 145.389 31.193 145.063 32.1414C144.352 34.1847 144.27 36.3946 144.828 38.4851C145.385 40.5755 146.556 42.45 148.189 43.8658C149.821 45.2816 151.841 46.1734 153.985 46.4257C156.13 46.6781 158.3 46.2792 160.216 45.281C160.064 45.5074 159.91 45.7312 159.758 45.955C158.195 48.2861 156.252 51.1847 155.771 54.5655C155.438 56.8593 155.805 59.1239 156.249 61.2259C156.542 62.597 156.877 63.9584 157.254 65.31C157.382 67.0211 157.913 68.6774 158.804 70.1428C159.543 72.1728 160.372 74.1709 161.303 76.1211L161.885 77.3333C162.417 78.4229 162.948 79.5419 163.456 80.6715C163.313 80.5596 163.172 80.445 163.02 80.3384C161.148 79.0199 158.906 78.3318 156.618 78.3734C154.33 78.4151 152.115 79.1844 150.292 80.5702L153.041 88.8291L147.705 83.3942C146.73 84.9377 146.162 86.7036 146.052 88.527C145.943 90.3504 146.296 92.1719 147.079 93.8214C147.862 95.4708 149.05 96.8946 150.531 97.9596C152.011 99.0247 153.737 99.6964 155.548 99.9119L154.793 100.178L153.304 100.69C146.626 103.032 142.769 106.836 142.447 111.402L145.44 111.616C145.754 107.169 151.121 104.641 154.295 103.53C154.777 103.359 155.266 103.194 155.758 103.026C159.987 101.588 164.796 99.9572 167.311 95.8198C171.11 89.5697 167.484 82.0515 164.578 76.0092Z" fill="#FFE116" stroke="#FFE116" stroke-opacity="0.95" stroke-width="2" mask="url(#path-34-inside-2)"/>
</g>
<defs>
<clipPath id="clip0">
<rect width="250" height="230" fill="white"/>
</clipPath>
</defs>
</svg>
