<svg width="250" height="200" viewBox="0 0 250 200" fill="none" xmlns="http://www.w3.org/2000/svg">
<g clip-path="url(#clip0)">
<mask id="path-1-inside-1" fill="white">
<path d="M209.749 115.28L210.879 114.577L211.204 114.366C208.782 113.95 206.575 112.717 204.948 110.872C203.321 109.027 202.371 106.681 202.255 104.221C202.173 102.529 202.493 100.842 203.188 99.298C203.834 97.8548 204.788 96.5709 205.982 95.5367C207.176 94.5024 208.582 93.743 210.1 93.3117L210.068 97.7661L212.509 92.92H212.538C213.953 92.8538 215.367 93.0675 216.7 93.549C218.032 94.0305 219.257 94.7703 220.304 95.7263C221.351 96.6822 222.2 97.8355 222.803 99.1203C223.405 100.405 223.749 101.796 223.815 103.214C223.815 103.419 223.815 103.625 223.815 103.827C224.675 102.887 225.392 101.825 225.942 100.675C226.973 98.3629 227.005 95.7467 226.912 92.5684C226.75 86.265 226.479 79.9137 226.114 73.5837C223.566 73.2988 221.203 72.1128 219.449 70.2387C217.695 68.3647 216.665 65.9253 216.544 63.3587C216.528 63.0283 216.544 62.7006 216.544 62.3783C216.544 62.2957 216.544 62.2158 216.544 62.1358C216.563 61.8215 216.595 61.5098 216.64 61.2034C216.64 61.1528 216.661 61.1048 216.669 61.0542C216.712 60.7949 216.765 60.5391 216.829 60.2869C216.85 60.191 216.874 60.0978 216.9 60.0019C216.975 59.7354 217.06 59.453 217.166 59.1866C217.198 59.0987 217.235 59.0108 217.27 58.9202C217.346 58.7231 217.429 58.5286 217.517 58.3368C217.565 58.2355 217.61 58.1343 217.658 58.0357C217.658 58.0117 217.682 57.9851 217.695 57.9585C218.834 55.7055 220.725 53.9236 223.038 52.9224C225.352 51.9213 227.943 51.7641 230.36 52.4783L230.285 58.2728L232.702 53.4774C234.685 54.617 236.253 56.3614 237.178 58.4565C238.103 60.5516 238.336 62.8879 237.843 65.125C237.827 65.2023 237.803 65.2769 237.785 65.3515C237.753 65.4953 237.716 65.6365 237.676 65.7777C237.625 65.9589 237.569 66.1347 237.508 66.3106C237.463 66.4438 237.421 66.577 237.37 66.7075C237.296 66.8993 237.213 67.0858 237.131 67.2723C237.08 67.3815 237.038 67.4934 236.985 67.6C236.849 67.8664 236.7 68.1515 236.541 68.4179C236.485 68.5111 236.421 68.5991 236.362 68.6843C236.246 68.8628 236.131 69.0413 236.004 69.2171C235.927 69.3237 235.844 69.4249 235.762 69.5288C235.645 69.678 235.525 69.8272 235.398 69.9684C235.27 70.1096 235.217 70.1709 235.132 70.2695C235.047 70.368 234.866 70.5359 234.725 70.6771C234.632 70.765 234.539 70.8556 234.443 70.9435C234.284 71.0847 234.116 71.2099 233.949 71.3511C233.864 71.4177 233.781 71.487 233.683 71.5509C233.417 71.7401 233.164 71.9186 232.885 72.0838C232.835 72.1157 232.782 72.1424 232.728 72.1717C232.503 72.3049 232.269 72.4381 232.032 72.55C231.931 72.6006 231.825 72.6432 231.721 72.6912C231.524 72.7791 231.328 72.8644 231.128 72.9416C231.011 72.9869 230.892 73.0269 230.772 73.0668C230.575 73.1361 230.373 73.1974 230.171 73.2533C230.049 73.288 229.929 73.3199 229.807 73.3492C229.586 73.4025 229.363 73.4451 229.134 73.4851H229.092C229.241 76.1492 229.373 78.8214 229.488 81.5015C230.131 80.1784 231.037 79.0009 232.15 78.0413C233.263 77.0817 234.56 76.3602 235.962 75.9212C237.363 75.4821 238.84 75.3347 240.3 75.4879C241.761 75.6412 243.174 76.092 244.455 76.8126L242.549 82.045L246.47 78.2726C248.572 80.1982 249.825 82.8811 249.955 85.7322C250.007 86.7326 249.918 87.7354 249.689 88.7107C249.196 90.8192 248.083 92.7307 246.493 94.1972C244.903 95.6637 242.91 96.6175 240.773 96.9349C238.635 97.2522 236.452 96.9185 234.506 95.9769C232.56 95.0353 230.941 93.5294 229.86 91.6546C229.86 91.921 229.879 92.1874 229.887 92.4671C229.958 95.2751 230.049 98.7652 228.653 101.882C227.707 103.998 226.184 105.713 224.682 107.25C223.701 108.252 222.69 109.221 221.648 110.157C220.634 111.537 219.307 112.657 217.778 113.423C216.069 114.741 214.297 115.976 212.461 117.126L211.318 117.838C210.292 118.475 209.239 119.13 208.208 119.812C208.388 119.793 208.569 119.772 208.752 119.764C211.038 119.657 213.299 120.28 215.208 121.545C217.117 122.81 218.576 124.65 219.373 126.8L212.634 132.293L220.045 130.572C220.042 132.4 219.578 134.196 218.694 135.795C217.811 137.393 216.538 138.742 214.994 139.714C213.45 140.686 211.686 141.25 209.865 141.354C208.045 141.458 206.228 141.097 204.584 140.307L205.084 140.931C205.416 141.344 205.746 141.754 206.068 142.161C210.454 147.727 211.671 153.01 209.502 157.038L206.878 155.61C208.992 151.688 205.815 146.669 203.731 144.026C203.414 143.624 203.09 143.227 202.766 142.817C199.967 139.329 196.776 135.376 196.859 130.524C196.976 123.214 204.058 118.816 209.749 115.28Z"/>
</mask>
<path d="M209.749 115.28L210.879 114.577L211.204 114.366C208.782 113.95 206.575 112.717 204.948 110.872C203.321 109.027 202.371 106.681 202.255 104.221C202.173 102.529 202.493 100.842 203.188 99.298C203.834 97.8548 204.788 96.5709 205.982 95.5367C207.176 94.5024 208.582 93.743 210.1 93.3117L210.068 97.7661L212.509 92.92H212.538C213.953 92.8538 215.367 93.0675 216.7 93.549C218.032 94.0305 219.257 94.7703 220.304 95.7263C221.351 96.6822 222.2 97.8355 222.803 99.1203C223.405 100.405 223.749 101.796 223.815 103.214C223.815 103.419 223.815 103.625 223.815 103.827C224.675 102.887 225.392 101.825 225.942 100.675C226.973 98.3629 227.005 95.7467 226.912 92.5684C226.75 86.265 226.479 79.9137 226.114 73.5837C223.566 73.2988 221.203 72.1128 219.449 70.2387C217.695 68.3647 216.665 65.9253 216.544 63.3587C216.528 63.0283 216.544 62.7006 216.544 62.3783C216.544 62.2957 216.544 62.2158 216.544 62.1358C216.563 61.8215 216.595 61.5098 216.64 61.2034C216.64 61.1528 216.661 61.1048 216.669 61.0542C216.712 60.7949 216.765 60.5391 216.829 60.2869C216.85 60.191 216.874 60.0978 216.9 60.0019C216.975 59.7354 217.06 59.453 217.166 59.1866C217.198 59.0987 217.235 59.0108 217.27 58.9202C217.346 58.7231 217.429 58.5286 217.517 58.3368C217.565 58.2355 217.61 58.1343 217.658 58.0357C217.658 58.0117 217.682 57.9851 217.695 57.9585C218.834 55.7055 220.725 53.9236 223.038 52.9224C225.352 51.9213 227.943 51.7641 230.36 52.4783L230.285 58.2728L232.702 53.4774C234.685 54.617 236.253 56.3614 237.178 58.4565C238.103 60.5516 238.336 62.8879 237.843 65.125C237.827 65.2023 237.803 65.2769 237.785 65.3515C237.753 65.4953 237.716 65.6365 237.676 65.7777C237.625 65.9589 237.569 66.1347 237.508 66.3106C237.463 66.4438 237.421 66.577 237.37 66.7075C237.296 66.8993 237.213 67.0858 237.131 67.2723C237.08 67.3815 237.038 67.4934 236.985 67.6C236.849 67.8664 236.7 68.1515 236.541 68.4179C236.485 68.5111 236.421 68.5991 236.362 68.6843C236.246 68.8628 236.131 69.0413 236.004 69.2171C235.927 69.3237 235.844 69.4249 235.762 69.5288C235.645 69.678 235.525 69.8272 235.398 69.9684C235.27 70.1096 235.217 70.1709 235.132 70.2695C235.047 70.368 234.866 70.5359 234.725 70.6771C234.632 70.765 234.539 70.8556 234.443 70.9435C234.284 71.0847 234.116 71.2099 233.949 71.3511C233.864 71.4177 233.781 71.487 233.683 71.5509C233.417 71.7401 233.164 71.9186 232.885 72.0838C232.835 72.1157 232.782 72.1424 232.728 72.1717C232.503 72.3049 232.269 72.4381 232.032 72.55C231.931 72.6006 231.825 72.6432 231.721 72.6912C231.524 72.7791 231.328 72.8644 231.128 72.9416C231.011 72.9869 230.892 73.0269 230.772 73.0668C230.575 73.1361 230.373 73.1974 230.171 73.2533C230.049 73.288 229.929 73.3199 229.807 73.3492C229.586 73.4025 229.363 73.4451 229.134 73.4851H229.092C229.241 76.1492 229.373 78.8214 229.488 81.5015C230.131 80.1784 231.037 79.0009 232.15 78.0413C233.263 77.0817 234.56 76.3602 235.962 75.9212C237.363 75.4821 238.84 75.3347 240.3 75.4879C241.761 75.6412 243.174 76.092 244.455 76.8126L242.549 82.045L246.47 78.2726C248.572 80.1982 249.825 82.8811 249.955 85.7322C250.007 86.7326 249.918 87.7354 249.689 88.7107C249.196 90.8192 248.083 92.7307 246.493 94.1972C244.903 95.6637 242.91 96.6175 240.773 96.9349C238.635 97.2522 236.452 96.9185 234.506 95.9769C232.56 95.0353 230.941 93.5294 229.86 91.6546C229.86 91.921 229.879 92.1874 229.887 92.4671C229.958 95.2751 230.049 98.7652 228.653 101.882C227.707 103.998 226.184 105.713 224.682 107.25C223.701 108.252 222.69 109.221 221.648 110.157C220.634 111.537 219.307 112.657 217.778 113.423C216.069 114.741 214.297 115.976 212.461 117.126L211.318 117.838C210.292 118.475 209.239 119.13 208.208 119.812C208.388 119.793 208.569 119.772 208.752 119.764C211.038 119.657 213.299 120.28 215.208 121.545C217.117 122.81 218.576 124.65 219.373 126.8L212.634 132.293L220.045 130.572C220.042 132.4 219.578 134.196 218.694 135.795C217.811 137.393 216.538 138.742 214.994 139.714C213.45 140.686 211.686 141.25 209.865 141.354C208.045 141.458 206.228 141.097 204.584 140.307L205.084 140.931C205.416 141.344 205.746 141.754 206.068 142.161C210.454 147.727 211.671 153.01 209.502 157.038L206.878 155.61C208.992 151.688 205.815 146.669 203.731 144.026C203.414 143.624 203.09 143.227 202.766 142.817C199.967 139.329 196.776 135.376 196.859 130.524C196.976 123.214 204.058 118.816 209.749 115.28Z" fill="#FFE116" fill-opacity="0.95" stroke="#FFE116" stroke-opacity="0.95" stroke-width="2" mask="url(#path-1-inside-1)"/>
<mask id="path-2-inside-2" fill="white">
<path d="M164.61 69.0067L164.03 67.8025C163.977 67.6879 163.927 67.5707 163.871 67.4535C166.128 68.3933 168.637 68.5365 170.987 67.8597C173.336 67.1828 175.386 65.726 176.801 63.7282C178.215 61.7304 178.911 59.3102 178.773 56.8644C178.635 54.4185 177.672 52.0923 176.041 50.2671L173.704 54.0555L174.236 48.6553C174.229 48.6484 174.221 48.6422 174.212 48.6366C173.053 47.8206 171.745 47.2412 170.363 46.9317C168.981 46.6222 167.551 46.5886 166.156 46.8328C164.761 47.0769 163.427 47.5941 162.232 48.3548C161.036 49.1155 160.001 50.1048 159.187 51.2661C159.067 51.434 158.964 51.6098 158.857 51.783C158.632 50.5265 158.595 49.2435 158.746 47.9759C159.11 45.469 160.492 43.2497 162.263 40.6096C165.772 35.3772 169.398 30.1634 173.085 25.011C175.389 26.1417 178.02 26.4117 180.505 25.7725C182.991 25.1333 185.167 23.6267 186.643 21.5236C186.834 21.2572 187.004 20.9748 187.174 20.6951C187.214 20.6258 187.254 20.5539 187.291 20.4819C187.443 20.2155 187.584 19.9278 187.709 19.6454L187.765 19.5042C187.866 19.2618 187.959 19.0167 188.03 18.7689C188.062 18.6757 188.094 18.5851 188.121 18.5025C188.206 18.2361 188.28 17.9537 188.341 17.6766C188.363 17.5834 188.379 17.4901 188.397 17.4102C188.437 17.2024 188.472 16.9919 188.498 16.7841C188.514 16.6722 188.53 16.563 188.541 16.4538C188.541 16.4245 188.541 16.3978 188.541 16.3685C188.792 13.8536 188.155 11.3301 186.74 9.23763C185.326 7.14518 183.223 5.61652 180.8 4.91801L177.761 9.84935L178.293 4.52106C176.009 4.41457 173.752 5.04283 171.85 6.31402C169.948 7.58522 168.502 9.43268 167.723 11.5864C167.696 11.661 167.678 11.7356 167.651 11.8102C167.603 11.9487 167.558 12.0766 167.516 12.2284C167.473 12.3803 167.417 12.5881 167.372 12.7613C167.34 12.8971 167.306 13.0277 167.276 13.1715C167.237 13.3713 167.207 13.5738 167.178 13.7763C167.159 13.8935 167.138 14.0107 167.125 14.128C167.09 14.437 167.069 14.7487 167.064 15.0577C167.064 15.167 167.064 15.2762 167.064 15.3854C167.064 15.5986 167.064 15.8117 167.082 16.0222C167.082 16.1554 167.106 16.2886 167.122 16.4165C167.141 16.6056 167.162 16.7974 167.191 16.9839C167.213 17.1198 167.236 17.2503 167.263 17.3835C167.3 17.5727 167.343 17.7619 167.388 17.9483C167.42 18.0736 167.452 18.1988 167.486 18.324C167.545 18.5265 167.614 18.7289 167.686 18.9314C167.72 19.0326 167.752 19.1366 167.792 19.2378C167.906 19.5335 168.031 19.8266 168.172 20.1116C168.199 20.1649 168.231 20.2182 168.26 20.2715C168.38 20.5059 168.507 20.7377 168.645 20.9642C168.704 21.0601 168.77 21.156 168.832 21.2519C168.951 21.4304 169.071 21.6062 169.198 21.7847C169.275 21.886 169.353 21.9845 169.432 22.0831C169.563 22.2456 169.698 22.4055 169.842 22.5626C169.924 22.6559 170.007 22.7491 170.094 22.8291C170.254 22.9916 170.421 23.1488 170.591 23.3033L170.623 23.3352C169.069 25.5092 167.527 27.6929 165.998 29.8864C166.162 28.4251 166.026 26.9456 165.599 25.5387C165.172 24.1318 164.463 22.8271 163.516 21.7046C162.568 20.5821 161.401 19.6654 160.087 19.0108C158.773 18.3562 157.34 17.9774 155.875 17.8977L154.684 23.3406L153.392 18.0496C152.003 18.2946 150.675 18.8115 149.486 19.5708C148.296 20.3301 147.267 21.3168 146.459 22.4747C145.88 23.2935 145.421 24.1905 145.095 25.1389C144.384 27.1821 144.302 29.3921 144.86 31.4825C145.417 33.5729 146.588 35.4475 148.221 36.8633C149.853 38.2791 151.873 39.1709 154.017 39.4232C156.161 39.6755 158.332 39.2767 160.248 38.2784C160.096 38.5049 159.942 38.7287 159.79 38.9525C158.227 41.2836 156.284 44.1822 155.803 47.563C155.47 49.8568 155.837 52.1213 156.281 54.2233C156.574 55.5945 156.909 56.9559 157.286 58.3075C157.414 60.0186 157.945 61.6749 158.836 63.1402C159.575 65.1703 160.404 67.1684 161.335 69.1186L161.917 70.3308C162.449 71.4204 162.98 72.5393 163.488 73.6689C163.345 73.557 163.204 73.4425 163.052 73.3359C161.18 72.0174 158.938 71.3292 156.65 71.3709C154.362 71.4126 152.147 72.1819 150.324 73.5677L153.073 81.8265L147.737 76.3917C146.762 77.9352 146.194 79.701 146.084 81.5244C145.975 83.3478 146.328 85.1693 147.111 86.8188C147.894 88.4683 149.082 89.8921 150.563 90.9571C152.043 92.0222 153.769 92.6938 155.579 92.9094L154.824 93.1758L153.336 93.6873C146.658 96.0291 142.801 99.8335 142.479 104.4L145.472 104.613C145.786 100.167 151.153 97.6382 154.327 96.5273C154.809 96.3568 155.298 96.1916 155.789 96.0238C160.019 94.5851 164.828 92.9547 167.343 88.8173C171.142 82.5672 167.516 75.049 164.61 69.0067Z"/>
</mask>
<path d="M164.61 69.0067L164.03 67.8025C163.977 67.6879 163.927 67.5707 163.871 67.4535C166.128 68.3933 168.637 68.5365 170.987 67.8597C173.336 67.1828 175.386 65.726 176.801 63.7282C178.215 61.7304 178.911 59.3102 178.773 56.8644C178.635 54.4185 177.672 52.0923 176.041 50.2671L173.704 54.0555L174.236 48.6553C174.229 48.6484 174.221 48.6422 174.212 48.6366C173.053 47.8206 171.745 47.2412 170.363 46.9317C168.981 46.6222 167.551 46.5886 166.156 46.8328C164.761 47.0769 163.427 47.5941 162.232 48.3548C161.036 49.1155 160.001 50.1048 159.187 51.2661C159.067 51.434 158.964 51.6098 158.857 51.783C158.632 50.5265 158.595 49.2435 158.746 47.9759C159.11 45.469 160.492 43.2497 162.263 40.6096C165.772 35.3772 169.398 30.1634 173.085 25.011C175.389 26.1417 178.02 26.4117 180.505 25.7725C182.991 25.1333 185.167 23.6267 186.643 21.5236C186.834 21.2572 187.004 20.9748 187.174 20.6951C187.214 20.6258 187.254 20.5539 187.291 20.4819C187.443 20.2155 187.584 19.9278 187.709 19.6454L187.765 19.5042C187.866 19.2618 187.959 19.0167 188.03 18.7689C188.062 18.6757 188.094 18.5851 188.121 18.5025C188.206 18.2361 188.28 17.9537 188.341 17.6766C188.363 17.5834 188.379 17.4901 188.397 17.4102C188.437 17.2024 188.472 16.9919 188.498 16.7841C188.514 16.6722 188.53 16.563 188.541 16.4538C188.541 16.4245 188.541 16.3978 188.541 16.3685C188.792 13.8536 188.155 11.3301 186.74 9.23763C185.326 7.14518 183.223 5.61652 180.8 4.91801L177.761 9.84935L178.293 4.52106C176.009 4.41457 173.752 5.04283 171.85 6.31402C169.948 7.58522 168.502 9.43268 167.723 11.5864C167.696 11.661 167.678 11.7356 167.651 11.8102C167.603 11.9487 167.558 12.0766 167.516 12.2284C167.473 12.3803 167.417 12.5881 167.372 12.7613C167.34 12.8971 167.306 13.0277 167.276 13.1715C167.237 13.3713 167.207 13.5738 167.178 13.7763C167.159 13.8935 167.138 14.0107 167.125 14.128C167.09 14.437 167.069 14.7487 167.064 15.0577C167.064 15.167 167.064 15.2762 167.064 15.3854C167.064 15.5986 167.064 15.8117 167.082 16.0222C167.082 16.1554 167.106 16.2886 167.122 16.4165C167.141 16.6056 167.162 16.7974 167.191 16.9839C167.213 17.1198 167.236 17.2503 167.263 17.3835C167.3 17.5727 167.343 17.7619 167.388 17.9483C167.42 18.0736 167.452 18.1988 167.486 18.324C167.545 18.5265 167.614 18.7289 167.686 18.9314C167.72 19.0326 167.752 19.1366 167.792 19.2378C167.906 19.5335 168.031 19.8266 168.172 20.1116C168.199 20.1649 168.231 20.2182 168.26 20.2715C168.38 20.5059 168.507 20.7377 168.645 20.9642C168.704 21.0601 168.77 21.156 168.832 21.2519C168.951 21.4304 169.071 21.6062 169.198 21.7847C169.275 21.886 169.353 21.9845 169.432 22.0831C169.563 22.2456 169.698 22.4055 169.842 22.5626C169.924 22.6559 170.007 22.7491 170.094 22.8291C170.254 22.9916 170.421 23.1488 170.591 23.3033L170.623 23.3352C169.069 25.5092 167.527 27.6929 165.998 29.8864C166.162 28.4251 166.026 26.9456 165.599 25.5387C165.172 24.1318 164.463 22.8271 163.516 21.7046C162.568 20.5821 161.401 19.6654 160.087 19.0108C158.773 18.3562 157.34 17.9774 155.875 17.8977L154.684 23.3406L153.392 18.0496C152.003 18.2946 150.675 18.8115 149.486 19.5708C148.296 20.3301 147.267 21.3168 146.459 22.4747C145.88 23.2935 145.421 24.1905 145.095 25.1389C144.384 27.1821 144.302 29.3921 144.86 31.4825C145.417 33.5729 146.588 35.4475 148.221 36.8633C149.853 38.2791 151.873 39.1709 154.017 39.4232C156.161 39.6755 158.332 39.2767 160.248 38.2784C160.096 38.5049 159.942 38.7287 159.79 38.9525C158.227 41.2836 156.284 44.1822 155.803 47.563C155.47 49.8568 155.837 52.1213 156.281 54.2233C156.574 55.5945 156.909 56.9559 157.286 58.3075C157.414 60.0186 157.945 61.6749 158.836 63.1402C159.575 65.1703 160.404 67.1684 161.335 69.1186L161.917 70.3308C162.449 71.4204 162.98 72.5393 163.488 73.6689C163.345 73.557 163.204 73.4425 163.052 73.3359C161.18 72.0174 158.938 71.3292 156.65 71.3709C154.362 71.4126 152.147 72.1819 150.324 73.5677L153.073 81.8265L147.737 76.3917C146.762 77.9352 146.194 79.701 146.084 81.5244C145.975 83.3478 146.328 85.1693 147.111 86.8188C147.894 88.4683 149.082 89.8921 150.563 90.9571C152.043 92.0222 153.769 92.6938 155.579 92.9094L154.824 93.1758L153.336 93.6873C146.658 96.0291 142.801 99.8335 142.479 104.4L145.472 104.613C145.786 100.167 151.153 97.6382 154.327 96.5273C154.809 96.3568 155.298 96.1916 155.789 96.0238C160.019 94.5851 164.828 92.9547 167.343 88.8173C171.142 82.5672 167.516 75.049 164.61 69.0067Z" fill="#FFE116" fill-opacity="0.95" stroke="#FFE116" stroke-width="2" mask="url(#path-2-inside-2)"/>
<mask id="path-3-inside-3" fill="white">
<path d="M54.675 49.0815L53.3458 48.983L52.963 48.9457C54.9048 47.4562 56.2837 45.3496 56.8735 42.9713C57.4633 40.5931 57.229 38.0846 56.209 35.8575C55.189 33.6303 53.4439 31.8167 51.26 30.7143C49.0762 29.6119 46.5833 29.2861 44.1903 29.7905L46.3011 33.7094L41.8962 30.5524C41.8866 30.5552 41.8776 30.5597 41.8696 30.5657C40.5855 31.1649 39.4318 32.0118 38.4744 33.0579C37.517 34.1041 36.7746 35.3291 36.2898 36.6629C35.8049 37.9966 35.587 39.4131 35.6486 40.8313C35.7101 42.2495 36.0499 43.6416 36.6485 44.9281C36.7336 45.1146 36.8346 45.2905 36.9303 45.461C35.7311 45.0286 34.6024 44.4208 33.5807 43.6573C31.5816 42.1041 30.3614 39.7917 28.9525 36.941C26.1771 31.2824 23.4762 25.5305 20.8603 19.76C22.9867 18.3225 24.5319 16.1723 25.2185 13.6956C25.905 11.2189 25.6879 8.57806 24.606 6.24742C24.4678 5.94637 24.3109 5.66131 24.1488 5.37891L24.0265 5.17111C23.8617 4.9047 23.6915 4.63828 23.5081 4.39318C23.4789 4.35055 23.4443 4.31325 23.4151 4.27329C23.2555 4.06283 23.0881 3.86035 22.9179 3.66587L22.7212 3.44741C22.5271 3.2396 22.3278 3.03713 22.1178 2.84531C22.0486 2.78137 21.9742 2.72276 21.9051 2.65882C21.7456 2.52029 21.5808 2.39241 21.4133 2.25654C21.3256 2.18993 21.2405 2.12066 21.1474 2.05672L21.0783 2.00344C19.0269 0.537575 16.5277 -0.161457 14.0153 0.0278809C11.5029 0.217219 9.13612 1.28295 7.3265 3.03979L10.0753 8.13897L5.71817 5.02725C4.48731 6.95761 3.90465 9.23184 4.0553 11.5177C4.20596 13.8035 5.08204 15.9812 6.55556 17.7325C6.60607 17.7938 6.6619 17.8471 6.71241 17.9057C6.80811 18.0176 6.90647 18.1268 7.00749 18.2307C7.10851 18.3347 7.27333 18.4972 7.40093 18.6277C7.52853 18.7582 7.60297 18.8222 7.7093 18.9154C7.86349 19.0486 8.02299 19.1818 8.1825 19.3017C8.27554 19.3763 8.36592 19.4536 8.46162 19.5255C8.71151 19.7093 8.96938 19.8799 9.23522 20.0424C9.32826 20.0983 9.42396 20.1463 9.51967 20.1996C9.70309 20.3061 9.88918 20.41 10.0806 20.5033C10.2002 20.5619 10.3198 20.6125 10.4395 20.6658C10.6149 20.7457 10.7877 20.8203 10.9711 20.8869C11.0987 20.9375 11.2237 20.9828 11.354 21.0254C11.5347 21.0894 11.7181 21.1453 11.9016 21.1986L12.2764 21.2998C12.4838 21.3505 12.6911 21.3931 12.9011 21.4304C13.0075 21.4517 13.1111 21.4757 13.2175 21.4917C13.5312 21.5396 13.8475 21.5769 14.1665 21.5956C14.225 21.5956 14.2861 21.5956 14.3473 21.5956C14.6131 21.5956 14.879 21.6115 15.1448 21.5956C15.2565 21.5956 15.3708 21.5822 15.4851 21.5742C15.6978 21.5742 15.9131 21.5449 16.1258 21.521L16.4979 21.4677C16.7053 21.4357 16.9126 21.3958 17.1173 21.3505C17.2396 21.3265 17.3619 21.2998 17.4842 21.2679C17.7048 21.2119 17.9228 21.1453 18.1408 21.0761L18.186 21.0627C19.2901 23.4978 20.4102 25.9257 21.5462 28.3465C20.3642 27.4755 19.0173 26.8556 17.5879 26.5245C16.1584 26.1934 14.6766 26.1582 13.2332 26.4211C11.7897 26.684 10.415 27.2394 9.19318 28.0533C7.97138 28.8672 6.92821 29.9225 6.12756 31.1545L10.2401 34.9056L4.98712 33.3977C4.01704 36.0816 4.14995 39.0416 5.35663 41.6273C5.77555 42.5367 6.32157 43.3817 6.97824 44.1369C8.39093 45.7756 10.2625 46.951 12.35 47.5106C14.4375 48.0702 16.6447 47.9881 18.6851 47.275C20.7255 46.5619 22.5049 45.2507 23.7925 43.5116C25.0801 41.7724 25.8165 39.6856 25.906 37.5218C26.0229 37.7669 26.1399 38.012 26.2595 38.2571C27.4957 40.7747 29.0322 43.9104 31.7119 46.0231C33.5302 47.4537 35.6702 48.2663 37.7145 48.9297C39.0455 49.3613 40.3897 49.7494 41.7473 50.0939C43.2908 50.8368 44.9881 51.202 46.6999 51.1596C48.8266 51.5326 50.9666 51.8096 53.1172 51.9721L54.4464 52.0707C55.6507 52.1586 56.8868 52.2492 58.115 52.3718C57.9475 52.441 57.7774 52.5076 57.6125 52.5849C55.5377 53.5553 53.8247 55.162 52.7212 57.1725C51.6178 59.1831 51.1811 61.4933 51.4743 63.769L59.9812 65.5033L52.6201 67.4242C53.4681 69.0421 54.7115 70.4182 56.2342 71.4239C57.7568 72.4295 59.509 73.0319 61.327 73.1748C63.145 73.3177 64.9695 72.9964 66.63 72.241C68.2905 71.4855 69.7327 70.3205 70.8221 68.8548C70.7716 69.1212 70.721 69.3877 70.6679 69.6408C70.5669 70.1736 70.4632 70.6771 70.3675 71.1886C69.0622 78.158 70.4286 83.4037 74.2168 85.964L75.8943 83.4703C72.2071 80.9794 72.7042 75.0543 73.3183 71.7481C73.4113 71.2446 73.5124 70.7357 73.6134 70.2269C74.4906 65.8257 75.4663 60.8384 73.1614 56.5758C69.6603 50.1658 61.3502 49.5638 54.675 49.0815Z"/>
</mask>
<path d="M54.675 49.0815L53.3458 48.983L52.963 48.9457C54.9048 47.4562 56.2837 45.3496 56.8735 42.9713C57.4633 40.5931 57.229 38.0846 56.209 35.8575C55.189 33.6303 53.4439 31.8167 51.26 30.7143C49.0762 29.6119 46.5833 29.2861 44.1903 29.7905L46.3011 33.7094L41.8962 30.5524C41.8866 30.5552 41.8776 30.5597 41.8696 30.5657C40.5855 31.1649 39.4318 32.0118 38.4744 33.0579C37.517 34.1041 36.7746 35.3291 36.2898 36.6629C35.8049 37.9966 35.587 39.4131 35.6486 40.8313C35.7101 42.2495 36.0499 43.6416 36.6485 44.9281C36.7336 45.1146 36.8346 45.2905 36.9303 45.461C35.7311 45.0286 34.6024 44.4208 33.5807 43.6573C31.5816 42.1041 30.3614 39.7917 28.9525 36.941C26.1771 31.2824 23.4762 25.5305 20.8603 19.76C22.9867 18.3225 24.5319 16.1723 25.2185 13.6956C25.905 11.2189 25.6879 8.57806 24.606 6.24742C24.4678 5.94637 24.3109 5.66131 24.1488 5.37891L24.0265 5.17111C23.8617 4.9047 23.6915 4.63828 23.5081 4.39318C23.4789 4.35055 23.4443 4.31325 23.4151 4.27329C23.2555 4.06283 23.0881 3.86035 22.9179 3.66587L22.7212 3.44741C22.5271 3.2396 22.3278 3.03713 22.1178 2.84531C22.0486 2.78137 21.9742 2.72276 21.9051 2.65882C21.7456 2.52029 21.5808 2.39241 21.4133 2.25654C21.3256 2.18993 21.2405 2.12066 21.1474 2.05672L21.0783 2.00344C19.0269 0.537575 16.5277 -0.161457 14.0153 0.0278809C11.5029 0.217219 9.13612 1.28295 7.3265 3.03979L10.0753 8.13897L5.71817 5.02725C4.48731 6.95761 3.90465 9.23184 4.0553 11.5177C4.20596 13.8035 5.08204 15.9812 6.55556 17.7325C6.60607 17.7938 6.6619 17.8471 6.71241 17.9057C6.80811 18.0176 6.90647 18.1268 7.00749 18.2307C7.10851 18.3347 7.27333 18.4972 7.40093 18.6277C7.52853 18.7582 7.60297 18.8222 7.7093 18.9154C7.86349 19.0486 8.02299 19.1818 8.1825 19.3017C8.27554 19.3763 8.36592 19.4536 8.46162 19.5255C8.71151 19.7093 8.96938 19.8799 9.23522 20.0424C9.32826 20.0983 9.42396 20.1463 9.51967 20.1996C9.70309 20.3061 9.88918 20.41 10.0806 20.5033C10.2002 20.5619 10.3198 20.6125 10.4395 20.6658C10.6149 20.7457 10.7877 20.8203 10.9711 20.8869C11.0987 20.9375 11.2237 20.9828 11.354 21.0254C11.5347 21.0894 11.7181 21.1453 11.9016 21.1986L12.2764 21.2998C12.4838 21.3505 12.6911 21.3931 12.9011 21.4304C13.0075 21.4517 13.1111 21.4757 13.2175 21.4917C13.5312 21.5396 13.8475 21.5769 14.1665 21.5956C14.225 21.5956 14.2861 21.5956 14.3473 21.5956C14.6131 21.5956 14.879 21.6115 15.1448 21.5956C15.2565 21.5956 15.3708 21.5822 15.4851 21.5742C15.6978 21.5742 15.9131 21.5449 16.1258 21.521L16.4979 21.4677C16.7053 21.4357 16.9126 21.3958 17.1173 21.3505C17.2396 21.3265 17.3619 21.2998 17.4842 21.2679C17.7048 21.2119 17.9228 21.1453 18.1408 21.0761L18.186 21.0627C19.2901 23.4978 20.4102 25.9257 21.5462 28.3465C20.3642 27.4755 19.0173 26.8556 17.5879 26.5245C16.1584 26.1934 14.6766 26.1582 13.2332 26.4211C11.7897 26.684 10.415 27.2394 9.19318 28.0533C7.97138 28.8672 6.92821 29.9225 6.12756 31.1545L10.2401 34.9056L4.98712 33.3977C4.01704 36.0816 4.14995 39.0416 5.35663 41.6273C5.77555 42.5367 6.32157 43.3817 6.97824 44.1369C8.39093 45.7756 10.2625 46.951 12.35 47.5106C14.4375 48.0702 16.6447 47.9881 18.6851 47.275C20.7255 46.5619 22.5049 45.2507 23.7925 43.5116C25.0801 41.7724 25.8165 39.6856 25.906 37.5218C26.0229 37.7669 26.1399 38.012 26.2595 38.2571C27.4957 40.7747 29.0322 43.9104 31.7119 46.0231C33.5302 47.4537 35.6702 48.2663 37.7145 48.9297C39.0455 49.3613 40.3897 49.7494 41.7473 50.0939C43.2908 50.8368 44.9881 51.202 46.6999 51.1596C48.8266 51.5326 50.9666 51.8096 53.1172 51.9721L54.4464 52.0707C55.6507 52.1586 56.8868 52.2492 58.115 52.3718C57.9475 52.441 57.7774 52.5076 57.6125 52.5849C55.5377 53.5553 53.8247 55.162 52.7212 57.1725C51.6178 59.1831 51.1811 61.4933 51.4743 63.769L59.9812 65.5033L52.6201 67.4242C53.4681 69.0421 54.7115 70.4182 56.2342 71.4239C57.7568 72.4295 59.509 73.0319 61.327 73.1748C63.145 73.3177 64.9695 72.9964 66.63 72.241C68.2905 71.4855 69.7327 70.3205 70.8221 68.8548C70.7716 69.1212 70.721 69.3877 70.6679 69.6408C70.5669 70.1736 70.4632 70.6771 70.3675 71.1886C69.0622 78.158 70.4286 83.4037 74.2168 85.964L75.8943 83.4703C72.2071 80.9794 72.7042 75.0543 73.3183 71.7481C73.4113 71.2446 73.5124 70.7357 73.6134 70.2269C74.4906 65.8257 75.4663 60.8384 73.1614 56.5758C69.6603 50.1658 61.3502 49.5638 54.675 49.0815Z" fill="#FFE116" fill-opacity="0.95" stroke="#FFE116" stroke-opacity="0.95" stroke-width="2" mask="url(#path-3-inside-3)"/>
<path d="M43.8209 146H19.0979V197.418H43.8209V146Z" fill="#3F3D56"/>
<path opacity="0.1" d="M43.8209 146H19.0979V197.418H43.8209V146Z" fill="black"/>
<path d="M158.663 74.6014C158.379 40.7241 130.899 13.3447 97.0312 13.3261C62.8709 13.3074 35.314 41.3902 35.314 75.6084V187.817C35.314 190.714 36.4624 193.492 38.5064 195.541C40.5504 197.589 43.3227 198.74 46.2134 198.74H158.663C192.725 198.74 220.338 170.535 220.338 136.399C220.338 102.263 192.725 74.6014 158.663 74.6014Z" fill="#008E3A"/>
<path d="M35.0748 158.751H63.3069V198.713H45.9901C43.0994 198.713 40.3271 197.562 38.2831 195.514C36.2391 193.465 35.0907 190.687 35.0907 187.79V158.751H35.0748Z" fill="#5F5478"/>
<path d="M74.0493 138.855H43.8155V169.155H74.0493V138.855Z" fill="#D4A1A1"/>
<path opacity="0.1" d="M74.0493 141.786H43.8155V172.085H74.0493V141.786Z" fill="black"/>
<path d="M98.2752 138.309C98.2752 138.309 127.597 151.816 126.688 158.57C125.779 165.323 119.776 166.235 119.776 166.235L102.111 157.656L89.7258 147.799L98.2752 138.309Z" fill="#FFE116"/>
<path d="M70.0086 152.698C70.2133 154.03 70.3356 155.437 69.8518 156.694C69.3201 158.074 68.1371 159.092 67.4885 160.424C66.5182 162.401 66.8824 164.839 67.9537 166.765C69.025 168.691 70.7104 170.194 72.4437 171.56C75.0223 173.58 77.8243 175.394 80.9505 176.34C84.6962 177.469 88.6944 177.299 92.6023 177.118C93.2473 177.122 93.8887 177.019 94.5003 176.814C94.9273 176.621 95.329 176.377 95.6966 176.087C97.7383 174.6 99.8118 173.052 101.192 170.934C102.123 169.481 102.694 167.826 102.859 166.107C103.024 164.388 102.776 162.654 102.138 161.05C100.854 157.915 98.1211 155.477 97.1906 152.219C96.5154 149.853 96.8716 147.333 96.8637 144.871C96.8944 144.458 96.8145 144.044 96.6324 143.672C96.2629 143.059 95.46 142.905 94.7502 142.814C89.9386 142.183 85.0817 141.711 80.2222 141.879C77.7615 141.954 75.3111 142.231 72.8956 142.708C71.5904 142.974 68.4482 143.214 68.1105 144.895C67.9138 145.899 68.8044 147.407 69.0755 148.358C69.4756 149.784 69.7873 151.234 70.0086 152.698Z" fill="#FBBEBE"/>
<path opacity="0.1" d="M70.0086 152.698C70.2133 154.03 70.3356 155.437 69.8518 156.694C69.3201 158.074 68.1371 159.092 67.4885 160.424C66.5182 162.401 66.8824 164.839 67.9537 166.765C69.025 168.691 70.7104 170.194 72.4437 171.56C75.0223 173.58 77.8243 175.394 80.9505 176.34C84.6962 177.469 88.6944 177.299 92.6023 177.118C93.2473 177.122 93.8887 177.019 94.5003 176.814C94.9273 176.621 95.329 176.377 95.6966 176.087C97.7383 174.6 99.8118 173.052 101.192 170.934C102.123 169.481 102.694 167.826 102.859 166.107C103.024 164.388 102.776 162.654 102.138 161.05C100.854 157.915 98.1211 155.477 97.1906 152.219C96.5154 149.853 96.8716 147.333 96.8637 144.871C96.8944 144.458 96.8145 144.044 96.6324 143.672C96.2629 143.059 95.46 142.905 94.7502 142.814C89.9386 142.183 85.0817 141.711 80.2222 141.879C77.7615 141.954 75.3111 142.231 72.8956 142.708C71.5904 142.974 68.4482 143.214 68.1105 144.895C67.9138 145.899 68.8044 147.407 69.0755 148.358C69.4756 149.784 69.7873 151.234 70.0086 152.698Z" fill="black"/>
<path d="M49.0977 150.721C61.7726 150.721 72.0476 140.424 72.0476 127.722C72.0476 115.019 61.7726 104.722 49.0977 104.722C36.4229 104.722 26.1479 115.019 26.1479 127.722C26.1479 140.424 36.4229 150.721 49.0977 150.721Z" fill="#D4A1A1"/>
<path d="M83.0666 153.916C95.7414 153.916 106.016 143.618 106.016 130.916C106.016 118.214 95.7414 107.916 83.0666 107.916C70.3917 107.916 60.1167 118.214 60.1167 130.916C60.1167 143.618 70.3917 153.916 83.0666 153.916Z" fill="#FBBEBE"/>
<path d="M96.1645 118.163C95.1756 118.6 94.3249 119.3 93.3625 119.793C90.5952 121.208 87.2722 120.752 84.239 120.076C82.6306 119.716 80.7432 119.01 80.4375 117.39C80.1105 115.669 81.8092 114.278 82.3515 112.616C79.7797 112.135 77.121 112.62 74.8841 113.98C72.0901 115.693 70.0485 118.728 66.8823 119.559C66.299 119.747 65.6713 119.747 65.0879 119.559C64.4841 119.276 64.0059 118.78 63.7454 118.165C62.294 115.158 64.2771 111.716 64.7742 108.409C65.181 105.655 64.628 102.471 66.4862 100.401C68.4056 98.2696 71.7525 98.576 74.5544 97.9553C76.4731 97.5293 78.2462 96.605 79.6958 95.2751C80.0887 94.871 80.5176 94.5036 80.9771 94.1775C81.5705 93.8345 82.227 93.6152 82.9071 93.5328C85.552 93.1267 88.2549 93.6722 90.5367 95.0727C92.1317 96.0504 93.4981 97.4411 95.2846 97.9633C96.2416 98.2457 97.2544 98.2536 98.2407 98.3948C100.274 98.7159 102.181 99.5891 103.753 100.92C105.326 102.25 106.505 103.987 107.162 105.942C107.396 106.672 107.561 107.44 107.981 108.074C108.813 109.344 110.429 109.821 111.57 110.823C112.71 111.825 113.303 113.322 113.798 114.761C115.101 118.649 115.852 122.702 116.028 126.8C116.124 129.03 115.98 131.454 114.555 133.167C114.218 133.524 113.898 133.897 113.598 134.286C112.612 135.765 113.144 137.75 112.928 139.505C112.75 140.923 112.079 142.232 111.033 143.203C110.787 143.477 110.443 143.642 110.076 143.664C109.65 143.643 109.321 143.286 109.09 142.926C108.276 141.658 108.069 140.099 107.471 138.714C106.872 137.329 105.588 136.005 104.097 136.215C103.717 136.268 103.358 136.418 102.978 136.481C101.915 136.652 100.822 136.05 100.155 135.192C99.4875 134.334 99.1711 133.255 98.9478 132.192C98.3151 129.168 98.339 126.065 98.581 122.988C98.674 121.799 99.3572 119.687 99.0409 118.562C98.7245 117.438 97.0869 117.753 96.1645 118.163Z" fill="white"/>
<path d="M85.7782 172.732C82.1465 171.276 79.1002 168.652 77.1171 165.273C75.663 162.779 74.8283 159.945 73.1774 157.568C70.7716 154.105 66.2337 155.85 62.0308 155.828C56.6476 155.802 52.2479 155.091 47.827 158.17C44.8815 160.219 41.7127 162.582 40.9152 166.08C40.2107 169.112 41.4682 172.346 40.7637 175.381C40.2878 177.427 40.894 179.308 40.5484 181.383C40.0619 184.313 39.6711 187.05 41.1678 189.61L46.3357 198.449L102.428 198.663C102.393 198.663 102.324 198.766 102.289 198.766H142.458C142.386 196.862 142.266 194.989 141.66 193.188C141.019 191.323 140.102 189.565 139.19 187.817L129.057 168.425C127.121 164.716 125.003 160.816 121.387 158.722C119.412 157.579 117.134 157.075 115.036 156.209C112.285 155.083 111.549 155.871 108.677 155.099C105.806 154.326 100.479 152.312 98.9132 154.832C97.6798 156.825 98.0413 159.377 97.5841 161.676C97.1693 163.765 96.0635 165.651 94.8379 167.394C93.7134 168.992 92.4454 170.535 90.8504 171.656C89.2553 172.778 87.5965 173.46 85.7782 172.732Z" fill="#3F3D56"/>
<path d="M85.616 183.85C85.616 183.85 66.675 185.31 66.8557 189.325C66.8557 189.325 84.8876 194.253 84.8876 194.072C84.8876 193.891 85.616 183.85 85.616 183.85Z" fill="#FBBEBE"/>
<path d="M62.3046 175.271C62.3046 175.271 63.7614 186.77 69.041 188.96C74.3205 191.15 91.0817 191.515 91.0817 191.515L102.372 198.817H46.6388C46.6388 198.817 44.0894 168.712 46.6388 168.712C49.1882 168.712 62.3046 175.271 62.3046 175.271Z" fill="#3F3D56"/>
<path d="M106.561 170.889L119.683 181.841L83.9865 182.755C83.9865 182.755 78.8079 189.149 80.9426 190.971C83.0773 192.793 93.0914 194.072 93.0914 194.072L102.38 198.817L141.421 198.769L128.427 175.271L106.561 170.889Z" fill="#3F3D56"/>
<path opacity="0.1" d="M106.561 170.889L119.683 181.841L83.9865 182.755C83.9865 182.755 78.8079 189.149 80.9426 190.971C83.0773 192.793 93.0914 194.072 93.0914 194.072L102.38 198.817L141.421 198.769L128.427 175.271L106.561 170.889Z" fill="black"/>
<path d="M113.574 154.006L90.9886 172.623L107.564 185.765L126.324 161.125L113.574 154.006Z" fill="#FFE116"/>
<path d="M101.463 174.176C101.463 174.176 116.578 171.438 119.311 170.159C122.044 168.88 132.975 164.135 130.051 167.788C127.127 171.44 125.864 171.619 125.864 171.619C125.864 171.619 137.154 172.533 136.79 174.723C136.426 176.913 135.152 177.277 135.152 177.277C135.152 177.277 139.887 180.016 138.794 180.741C137.702 181.466 138.43 184.026 138.247 184.575C138.063 185.123 139.523 188.038 138.066 188.408C136.609 188.779 121.127 188.043 117.862 187.313C114.598 186.583 99.8304 187.494 99.8304 187.494L101.463 174.176Z" fill="#E0AAAA"/>
<path d="M31.2494 149.626C31.2494 149.626 25.4222 156.745 31.2494 165.323C37.0765 173.902 49.0978 183.759 55.656 185.4C62.2142 187.042 105.743 187.774 105.743 187.774C105.743 187.774 107.747 168.06 105.743 167.33C103.738 166.6 68.2222 168.973 63.3042 165.323C58.3862 161.674 43.6321 151.086 39.2644 150.721C36.5759 150.493 33.9007 150.128 31.2494 149.626Z" fill="#FFE116"/>
<path d="M64.0219 111.457C62.4247 110.784 60.7673 110.264 59.072 109.904C50.714 108.143 42.6645 117.99 44.6582 126.177C45.4558 129.48 47.7048 132.539 47.3485 135.922C47.0136 139.138 44.3897 141.717 43.8474 144.903C43.6865 145.625 43.7562 146.38 44.0468 147.061C44.5519 148.086 45.7349 148.614 46.3304 149.589C47.3326 151.23 46.2134 153.487 44.5439 154.44C42.8745 155.394 40.8647 155.432 38.9613 155.589C36.5717 155.786 34.2048 156.201 31.89 156.828C30.5768 157.185 29.2529 157.627 28.1922 158.479C25.6827 160.493 25.3371 164.285 26.2542 167.372C27.1714 170.46 29.0774 173.143 30.4518 176.055C31.8262 178.967 32.6477 182.449 31.2919 185.366C29.8723 188.422 26.2223 190.598 26.3712 193.968C26.4111 194.877 26.746 195.767 26.6822 196.673C26.5413 198.767 24.2126 200.197 22.1284 199.981C20.0442 199.766 18.2658 198.332 16.9313 196.71C14.7129 194.013 13.3468 190.715 13.0075 187.236C12.6832 183.858 13.3425 180.389 12.5503 177.088C11.8139 174.027 9.90516 171.408 8.25962 168.726C2.96948 160.086 0.115918 150.171 0.00267432 140.035C-0.0212512 137.481 0.135592 134.891 0.906524 132.456C1.87418 129.406 3.75631 126.741 5.15994 123.864C6.64598 120.819 10.1205 111.91 13.26 103.659C14.809 99.5729 17.6386 96.1002 21.3241 93.7623C25.0096 91.4244 29.3522 90.3474 33.7004 90.6928C34.8358 90.8168 35.9827 90.7899 37.1111 90.6129C39.1368 90.2186 40.9976 89.2195 42.9941 88.6814C48.5767 87.1788 55.0206 89.8296 57.9395 94.8409C58.7876 96.2982 59.3591 97.9206 60.3534 99.282C61.2413 100.497 62.4242 101.453 63.453 102.548C64.0243 103.156 64.5478 103.807 65.0188 104.496" fill="black"/>
<path opacity="0.1" d="M158.663 74.0686C158.379 40.1913 130.899 12.8119 97.0311 12.7932C78.5128 12.7932 61.9404 21.0361 50.637 34.0451C61.3389 25.7741 74.478 21.2978 87.9926 21.3185C121.86 21.3371 149.34 48.7166 149.625 82.5938C183.687 82.5938 211.299 110.266 211.299 144.402C211.32 159.292 205.956 173.684 196.202 184.916C203.715 179.15 209.8 171.726 213.986 163.222C218.172 154.717 220.345 145.36 220.338 135.877C220.338 101.741 192.725 74.0686 158.663 74.0686Z" fill="black"/>
</g>
<defs>
<clipPath id="clip0">
<rect width="250" height="200" fill="white"/>
</clipPath>
</defs>
</svg>
