<svg width="21" height="26" viewBox="0 0 21 26" fill="none" xmlns="http://www.w3.org/2000/svg">
<path d="M18.031 2.28237C16.9335 1.02804 14.8952 0.400879 12.0729 0.400879H4.23336C3.76299 0.400879 3.29262 0.87125 3.13582 1.34162L0 21.8813C0 22.3517 0.313583 22.6652 0.627165 22.6652H5.48769L6.74202 14.9825V15.296C6.89882 14.8257 7.36919 14.3553 7.83956 14.3553H10.1914C14.7384 14.3553 18.1878 12.4738 19.2853 7.29969C19.2853 7.1429 19.2853 6.98611 19.2853 6.82932C19.1285 6.82932 19.1285 6.82932 19.2853 6.82932C19.4421 4.79103 19.1285 3.5367 18.031 2.28237Z" fill="#263B80"/>
<path d="M19.1285 6.82959C19.1285 6.98638 19.1285 7.14317 19.1285 7.29997C18.031 12.6309 14.5816 14.3556 10.0347 14.3556H7.68278C7.21241 14.3556 6.74204 14.8259 6.58525 15.2963L5.01733 24.8606C5.01733 25.1742 5.17412 25.4878 5.6445 25.4878H9.72107C10.1914 25.4878 10.6618 25.1742 10.6618 24.7038V24.547L11.4458 19.6865V19.3729C11.4458 18.9025 11.9161 18.5889 12.3865 18.5889H13.0137C16.9335 18.5889 20.0693 17.021 20.8532 12.3173C21.1668 10.4358 21.01 8.71108 20.0693 7.61355C19.9125 7.29996 19.5989 6.98638 19.1285 6.82959Z" fill="#139AD6"/>
<path d="M18.031 6.35904C17.8742 6.35904 17.7175 6.20225 17.5607 6.20225C17.4039 6.20225 17.2471 6.20225 17.0903 6.04546C16.4631 5.88867 15.836 5.88867 15.052 5.88867H8.93714C8.78035 5.88867 8.62356 5.88867 8.46677 6.04546C8.15319 6.20225 7.99639 6.51583 7.99639 6.82942L6.74207 14.9826V15.2961C6.89886 14.8258 7.36923 14.3554 7.8396 14.3554H10.1915C14.7384 14.3554 18.1878 12.4739 19.2854 7.29979C19.2854 7.143 19.2854 6.98621 19.4422 6.82942C19.1286 6.67263 18.9718 6.51584 18.6582 6.51584C18.1878 6.35905 18.1878 6.35904 18.031 6.35904Z" fill="#232C65"/>
</svg>
