<svg width="25" height="25" viewBox="0 0 25 25" fill="none" xmlns="http://www.w3.org/2000/svg">
<path d="M24.5825 15.834H0.417481C0.187501 15.834 0.000831604 16.0202 0.000831604 16.2506C0.000831604 21.0749 3.92558 25.0001 8.75023 25.0001H16.2497C21.074 25.0001 24.9991 21.0749 24.9991 16.2506C24.9991 16.0202 24.8129 15.834 24.5825 15.834ZM16.2497 24.1668H8.75023C4.52509 24.1668 1.0624 20.8395 0.844922 16.6672H24.155C23.9376 20.8395 20.4749 24.1668 16.2497 24.1668Z" fill="black" fill-opacity="0.5"/>
<path d="M21.2511 5.83721C21.2511 5.80679 21.2506 5.77637 21.2478 5.73013C21.1836 5.03936 20.7087 4.47188 20.0816 4.25899L20.5532 3.78736C21.3711 2.98619 21.4532 1.7046 20.7374 0.799673C19.9708 -0.131917 18.5892 -0.264437 17.658 0.501773C17.605 0.545523 17.5538 0.591763 17.5026 0.643032L16.9901 1.163C16.7751 0.539273 16.2064 0.067643 15.5056 0.00265285C14.5828 -0.0477377 13.8016 0.660513 13.752 1.57794C13.7504 1.60836 13.7499 1.63878 13.7499 1.66876V2.30748C13.505 2.16539 13.2212 2.08375 12.9183 2.08331C12.8884 2.08331 12.8575 2.08414 12.8113 2.08663C11.9205 2.16954 11.2351 2.93492 11.2501 3.82232V4.38897C11.0001 4.24439 10.7152 4.1669 10.4185 4.16646C10.3886 4.16646 10.3581 4.16729 10.3119 4.16978C9.42069 4.25269 8.73533 5.01807 8.75033 5.90552V12.0843C8.75033 12.3147 8.93699 12.5009 9.16698 12.5009H16.2498C17.1689 12.5009 17.9164 11.7535 17.9159 10.8352C17.9159 10.5319 17.8347 10.2473 17.6922 10.002H18.2551C19.15 10.0265 19.9154 9.33115 19.9991 8.42412C20.0171 8.08496 19.932 7.76416 19.7713 7.4917C20.1454 7.45005 20.4916 7.28462 20.7616 7.01548C21.0765 6.70132 21.2506 6.28301 21.2511 5.83721ZM20.1732 6.42549C20.0157 6.58213 19.807 6.66841 19.5841 6.66841C19.5837 6.66841 19.5833 6.66841 19.5828 6.66841H18.3329C18.1025 6.66841 17.9163 6.85508 17.9163 7.08506C17.9163 7.31504 18.1025 7.50171 18.3329 7.50171L18.3788 7.50298C18.8379 7.52754 19.1912 7.92085 19.1679 8.36333C19.1254 8.82246 18.7359 9.17788 18.2621 9.16826H16.2498C16.0194 9.16826 15.8331 9.35493 15.8331 9.58491C15.8331 9.81489 16.0194 10.0016 16.2498 10.0016C16.7093 10.0016 17.0831 10.3753 17.0831 10.8349C17.0831 11.2944 16.7093 11.6682 16.2498 11.6682H9.58353V5.89844C9.57562 5.43721 9.92977 5.04268 10.3726 5.00098L10.418 4.99971C10.8768 5.0001 11.2496 5.37344 11.2501 5.83174V5.83467C11.2501 6.06465 11.4363 6.25132 11.6663 6.25132C11.6667 6.25132 11.6667 6.25132 11.6667 6.25132C11.8967 6.25132 12.0829 6.06509 12.0834 5.83511V5.83472V3.81524C12.0755 3.35401 12.4296 2.95948 12.8725 2.91778L12.9175 2.91651C13.3766 2.91734 13.7495 3.29064 13.75 3.74937V3.75186C13.75 3.98184 13.9362 4.16851 14.1662 4.16851C14.1666 4.16851 14.1666 4.16851 14.1666 4.16851C14.3966 4.16851 14.5828 3.98228 14.5833 3.7523V3.75186V1.66871L14.5845 1.62247C14.6087 1.16373 14.9928 0.810464 15.4445 0.833364C15.9045 0.876284 16.2582 1.27081 16.2494 1.73995V2.08575C16.2494 2.2545 16.3515 2.40699 16.5082 2.47115C16.6636 2.53531 16.8444 2.49864 16.9627 2.37784L18.093 1.23082C18.1238 1.2004 18.1555 1.17164 18.1884 1.14459C18.7651 0.670474 19.6196 0.752944 20.0896 1.32291C20.5345 1.88619 20.4833 2.68946 19.9675 3.19488L18.8717 4.29063C18.7526 4.40977 18.7168 4.58892 18.7813 4.74478C18.8455 4.9002 18.998 5.00186 19.1663 5.00186H19.5121C19.5208 5.00186 19.5271 5.00186 19.5341 5.00186C19.9891 5.00186 20.3757 5.35269 20.4166 5.79097L20.4178 5.83682C20.4173 6.05928 20.3307 6.26841 20.1732 6.42549Z" fill="black" fill-opacity="0.5"/>
<path d="M18.0387 2.6228L6.37305 14.2885L6.96224 14.8776L18.6279 3.21199L18.0387 2.6228Z" fill="black" fill-opacity="0.5"/>
<path d="M16.2489 3.33728H15.4156V5.42048H16.2489V3.33728Z" fill="black" fill-opacity="0.5"/>
<path d="M13.7491 5.42053H12.9158V7.92039H13.7491V5.42053Z" fill="black" fill-opacity="0.5"/>
<path d="M11.2492 7.49951H10.4159V10.416H11.2492V7.49951Z" fill="black" fill-opacity="0.5"/>
<path d="M17.9154 5.00378H15.8322V5.83703H17.9154V5.00378Z" fill="black" fill-opacity="0.5"/>
<path d="M15.8323 7.49951H13.3324V8.33276H15.8323V7.49951Z" fill="black" fill-opacity="0.5"/>
<path d="M13.749 9.99939H10.8326V10.8327H13.749V9.99939Z" fill="black" fill-opacity="0.5"/>
<path d="M7.77738 1.92732C7.77699 1.92649 7.77611 1.92566 7.77572 1.92483C7.18783 1.04446 5.99291 0.805298 5.11298 1.39319C5.08549 1.41111 5.05839 1.43025 5.02758 1.4532L4.87758 1.56736L4.73344 1.4636C3.97099 0.752418 2.77231 0.781177 2.04653 1.53445C1.69116 1.90276 1.50034 2.38772 1.50991 2.89978C1.51948 3.41184 1.72739 3.88928 2.09531 4.24426C2.20239 4.34758 2.32153 4.4384 2.44985 4.51423L2.80068 4.7884V5.00173C2.80068 6.1504 3.7352 7.08492 4.88388 7.08492C6.03256 7.08492 6.96708 6.14997 6.96664 5.00134V4.78801L7.33539 4.50012C8.13319 3.8947 8.32694 2.76438 7.77738 1.92732ZM6.82704 3.84011L6.29374 4.25676C6.19291 4.33552 6.13373 4.45676 6.13373 4.58508V5.00173C6.13373 5.69084 5.57294 6.25163 4.88383 6.25163C4.19472 6.25163 3.63393 5.69084 3.63393 5.00173V4.58508C3.63393 4.45676 3.57519 4.33552 3.47392 4.25676L2.94062 3.84011C2.9248 3.82761 2.90771 3.81638 2.89023 3.80637C2.81191 3.76179 2.7394 3.70764 2.67441 3.6447C2.46611 3.44387 2.34858 3.1739 2.34316 2.88474C2.33774 2.59558 2.44565 2.32146 2.64648 2.11311C2.85854 1.89314 3.14228 1.7823 3.42641 1.7823C3.69721 1.7823 3.96845 1.88269 4.17846 2.08562C4.19262 2.09895 4.20761 2.11189 4.22387 2.12351L4.64052 2.42351C4.78886 2.53059 4.99008 2.5281 5.13593 2.41726L5.57509 2.08689C5.81674 1.92522 6.10629 1.86858 6.3913 1.92483C6.67543 1.98147 6.92084 2.14524 7.08207 2.38606C7.3912 2.85852 7.28119 3.49514 6.82704 3.84011Z" fill="black" fill-opacity="0.5"/>
<path d="M9.99934 0.416748H9.16605V1.25H9.99934V0.416748Z" fill="black" fill-opacity="0.5"/>
<path d="M12.4991 13.749H11.6659V14.5823H12.4991V13.749Z" fill="black" fill-opacity="0.5"/>
<path d="M22.4993 2.50195V3.33525C22.9589 3.33525 23.3326 3.70898 23.3326 4.1685C23.3326 4.62802 22.9589 5.0018 22.4993 5.0018V5.83505C23.4184 5.83505 24.1659 5.08759 24.1659 4.1685C24.1659 3.24941 23.4184 2.50195 22.4993 2.50195Z" fill="black" fill-opacity="0.5"/>
<path d="M1.66655 6.25366H0.833298V7.08696H1.66655V6.25366Z" fill="black" fill-opacity="0.5"/>
<path d="M0.834082 4.58716H0.000831604V5.42046H0.834082V4.58716Z" fill="black" fill-opacity="0.5"/>
<path d="M16.2497 13.3341C15.3306 13.3341 14.5832 14.0816 14.5832 15.0007H15.4165C15.4165 14.5411 15.7902 14.1674 16.2497 14.1674C16.7093 14.1674 17.083 14.5411 17.083 15.0007H17.9163C17.9163 14.0816 17.1688 13.3341 16.2497 13.3341Z" fill="black" fill-opacity="0.5"/>
<path d="M5.00054 9.58437H4.94805C4.76221 8.8665 4.10932 8.33447 3.33398 8.33447C2.55864 8.33447 1.90532 8.8665 1.71992 9.58437H1.66743C0.748341 9.58437 0.000881195 10.3318 0.000881195 11.2509C0.000881195 12.17 0.748341 12.9175 1.66743 12.9175H5.00054C5.91963 12.9175 6.66709 12.17 6.66709 11.2509C6.66709 10.3318 5.91963 9.58437 5.00054 9.58437ZM5.00054 12.0846H1.66738C1.20781 12.0846 0.834084 11.7109 0.834084 11.2514C0.834084 10.7918 1.20781 10.4181 1.66738 10.4181H2.08403C2.31401 10.4181 2.50068 10.2314 2.50068 10.0014C2.50068 9.54184 2.87441 9.16816 3.33398 9.16816C3.79355 9.16816 4.16728 9.54189 4.16728 10.0014C4.16728 10.2314 4.35395 10.4181 4.58393 10.4181H5.00058C5.46015 10.4181 5.83388 10.7918 5.83388 11.2514C5.83379 11.7109 5.46006 12.0846 5.00054 12.0846Z" fill="black" fill-opacity="0.5"/>
<path d="M4.16723 12.0842H2.50068C2.2707 12.0842 2.08403 12.2709 2.08403 12.5009V14.1674C2.08403 14.3978 2.2707 14.5841 2.50068 14.5841H4.16723C4.39721 14.5841 4.58388 14.3978 4.58388 14.1674V12.5009C4.58388 12.2709 4.39721 12.0842 4.16723 12.0842ZM3.75058 13.7508H2.91733V12.9175H3.75063V13.7508H3.75058Z" fill="black" fill-opacity="0.5"/>
<path d="M22.0827 10.8344C21.3936 10.8344 20.8328 11.3951 20.8328 12.0843C20.8328 12.7734 21.3936 13.3342 22.0827 13.3342C22.7718 13.3342 23.3326 12.7734 23.3326 12.0843C23.3326 11.3951 22.7718 10.8344 22.0827 10.8344ZM22.0827 12.5013C21.8527 12.5013 21.666 12.3142 21.666 12.0846C21.666 11.8551 21.8527 11.668 22.0827 11.668C22.3127 11.668 22.4993 11.8547 22.4993 12.0846C22.4993 12.3147 22.3127 12.5013 22.0827 12.5013Z" fill="black" fill-opacity="0.5"/>
<path d="M22.0827 9.16772C20.4749 9.16772 19.1662 10.476 19.1662 12.0842C19.1662 13.6924 20.4749 15.0006 22.0827 15.0006C23.6905 15.0006 24.9991 13.6924 24.9991 12.0842C24.9991 10.476 23.6905 9.16772 22.0827 9.16772ZM22.0827 14.1678C20.934 14.1678 19.9995 13.2329 19.9995 12.0846C19.9995 10.9359 20.934 10.0014 22.0827 10.0014C23.2314 10.0014 24.1659 10.9359 24.1659 12.0846C24.1659 13.2333 23.2314 14.1678 22.0827 14.1678Z" fill="black" fill-opacity="0.5"/>
</svg>
