<svg width="25" height="25" viewBox="0 0 25 25" fill="none" xmlns="http://www.w3.org/2000/svg">
<path d="M11.1437 21.7098C11.2214 21.7098 11.2959 21.679 11.3509 21.624C11.4058 21.5691 11.4367 21.4946 11.4367 21.4169V20.2162C11.4367 20.1385 11.4058 20.064 11.3509 20.009C11.2959 19.9541 11.2214 19.9232 11.1437 19.9232C11.066 19.9232 10.9915 19.9541 10.9365 20.009C10.8816 20.064 10.8507 20.1385 10.8507 20.2162V21.4169C10.8507 21.4946 10.8816 21.5691 10.9365 21.624C10.9915 21.679 11.066 21.7098 11.1437 21.7098Z" fill="#008E3A"/>
<path d="M1.09034 21.464H1.09557L1.45826 21.4575C1.30248 21.5667 1.1883 21.7255 1.13433 21.908C1.08037 22.0905 1.0898 22.2858 1.16109 22.4622C1.24526 22.67 1.40833 22.8359 1.61459 22.9237C1.82085 23.0114 2.05348 23.0139 2.26153 22.9304L3.94273 22.2562C4.14113 22.5726 4.39281 22.8522 4.68663 23.0828C5.16716 23.4623 5.74927 23.6912 6.35963 23.7406L20.6391 21.7484C20.8251 21.7206 21.0007 21.6454 21.1491 21.53C21.2975 21.4146 21.4137 21.2629 21.4864 21.0896C22.3803 20.6348 23.1361 19.9489 23.6752 19.1031C23.7172 19.0377 23.7315 18.9583 23.7149 18.8823C23.6984 18.8063 23.6523 18.74 23.5868 18.698C23.5214 18.656 23.442 18.6417 23.366 18.6583C23.29 18.6748 23.2237 18.7209 23.1817 18.7863C22.7654 19.4417 22.2019 19.9911 21.5362 20.3906C21.4825 20.1851 21.3695 19.9998 21.2112 19.8581C21.0529 19.7164 20.8564 19.6244 20.6462 19.5937L13.4806 18.511C13.1552 17.8254 12.9887 16.7711 12.9647 15.9923C13.9814 14.976 14.3156 13.9477 14.4037 13.2026C14.4356 12.9325 14.4407 12.6598 14.4189 12.3887C14.9271 11.8946 15.524 11.5007 16.1782 11.2277C16.4971 11.597 16.9164 11.8748 17.4325 12.0574C17.1588 12.1888 16.8937 12.3374 16.6389 12.5024C16.0578 12.8786 16.0251 13.3838 16.0573 13.6513C16.0665 13.7302 16.094 13.8058 16.1375 13.8723C16.1811 13.9387 16.2395 13.9941 16.3082 14.034C16.3769 14.0739 16.4539 14.0972 16.5332 14.1022C16.6125 14.1071 16.6918 14.0935 16.7649 14.0625C17.1143 13.9145 17.4965 13.861 17.8731 13.9073C18.4818 13.987 18.9274 13.8026 19.2169 13.6046C19.389 14.05 19.721 14.4152 20.1481 14.6289C20.482 14.8075 20.7629 15.0712 20.9624 15.3931C21.0036 15.4606 21.06 15.5174 21.1272 15.5591C21.1944 15.6008 21.2704 15.6261 21.3491 15.633C21.3653 15.6345 21.3815 15.6353 21.3975 15.6353C21.4692 15.6353 21.5401 15.6203 21.6056 15.5911C21.6711 15.5619 21.7297 15.5192 21.7776 15.4658C21.9588 15.2659 22.2246 14.8346 21.9681 14.1926C21.8556 13.911 21.7252 13.6369 21.5777 13.3719C22.11 13.5217 22.6183 13.5355 23.0967 13.414C23.8402 14.4404 24.1099 15.5907 23.9024 16.8446C23.8953 16.8866 23.8974 16.9296 23.9087 16.9707C23.9199 17.0118 23.94 17.0499 23.9675 17.0825C23.995 17.115 24.0293 17.1412 24.0679 17.1591C24.1066 17.1771 24.1487 17.1863 24.1913 17.1863H24.192C24.261 17.1865 24.3279 17.1623 24.3808 17.1179C24.4337 17.0736 24.4692 17.0119 24.481 16.9439C24.71 15.5831 24.436 14.3283 23.6628 13.2C24.0612 12.9917 24.4084 12.6975 24.6793 12.3387C24.7273 12.2756 24.754 12.1988 24.7554 12.1195C24.7569 12.0403 24.7331 11.9626 24.6875 11.8977C24.6419 11.8329 24.5768 11.7842 24.5017 11.7588C24.4266 11.7334 24.3454 11.7325 24.2697 11.7563C23.9784 11.8475 23.4214 11.9389 22.9652 11.525C22.2285 10.8566 21.4769 10.808 20.9974 10.8739C21.0773 10.4548 21.1201 10.0295 21.1255 9.60285C21.6868 9.50232 22.1964 9.21188 22.5689 8.78024C22.5858 8.76052 22.6024 8.7404 22.6188 8.71989C23.3418 7.81486 23.1372 6.37995 22.1719 5.58654C22.1106 5.53778 22.0596 5.47725 22.022 5.40852L22.0152 5.39558C21.9749 5.31644 21.9518 5.22969 21.9474 5.141C21.943 5.05232 21.9574 4.9637 21.9897 4.88098C22.4203 3.7343 22.1135 2.44836 21.2438 1.75388C20.3337 1.02712 19.0435 1.01096 18.0332 1.71364C17.9156 1.79677 17.7699 1.83011 17.6279 1.80642C17.5539 1.79293 17.4832 1.76505 17.4199 1.72434C16.4199 1.0989 15.1298 1.29074 14.4191 2.17043C14.4027 2.19084 14.3866 2.21145 14.3711 2.2321C14.1419 2.53414 13.9959 2.89099 13.9477 3.26707C13.8995 3.64314 13.9507 4.02528 14.0963 4.37536C14.2414 4.73281 14.4752 5.04738 14.7756 5.28938C14.8196 5.59597 14.8969 6.60197 14.2933 7.88239C14.2581 7.84265 14.2249 7.8072 14.1942 7.77653C14.6044 6.57649 14.2923 5.32595 13.284 4.14699C12.8611 3.6504 12.2685 3.32887 11.6216 3.24494C10.9748 3.16101 10.3198 3.32068 9.78409 3.69289C8.52027 4.56623 7.89727 5.68117 7.97042 6.9302C7.35455 7.16184 6.50558 7.74948 6.30567 8.81008C5.5879 7.9322 4.47784 7.50803 3.06143 7.57849C2.41018 7.6083 1.79345 7.87994 1.33182 8.34029C0.870194 8.80065 0.596856 9.41662 0.565244 10.0678C0.48829 11.6004 0.995712 12.7734 2.03502 13.4771C1.92476 13.8531 1.78346 14.6111 2.12501 15.3562C2.42589 16.0126 3.02247 16.4975 3.89933 16.799C4.09281 17.2957 4.34719 17.7664 4.65665 18.2004C4.38071 18.4219 4.14273 18.687 3.95206 18.9851L2.26153 18.3069C2.05346 18.2236 1.82091 18.2262 1.61471 18.3139C1.40851 18.4016 1.24542 18.5674 1.16109 18.7751C1.08965 18.9522 1.08045 19.1483 1.135 19.3313C1.18954 19.5143 1.3046 19.6734 1.46134 19.7825L1.0964 19.775H1.09034C0.977818 19.7725 0.865916 19.7924 0.76121 19.8337C0.656503 19.875 0.561103 19.9368 0.480614 20.0154C0.400125 20.0941 0.33617 20.1881 0.292506 20.2918C0.248842 20.3956 0.226349 20.507 0.226349 20.6195C0.226349 20.7321 0.248842 20.8435 0.292506 20.9472C0.33617 21.051 0.400125 21.1449 0.480614 21.2236C0.561103 21.3023 0.656503 21.3641 0.76121 21.4054C0.865916 21.4467 0.977818 21.4666 1.09034 21.464V21.464ZM22.5713 11.9585C22.9035 12.2653 23.3418 12.4311 23.7939 12.4209C23.2838 12.8401 22.468 13.1574 21.2898 12.6475C21.2116 12.6134 21.1244 12.6056 21.0414 12.6252C20.9583 12.6448 20.8839 12.6908 20.8292 12.7564C20.7745 12.8219 20.7426 12.9033 20.7381 12.9885C20.7336 13.0737 20.7568 13.1581 20.8044 13.229C21.0516 13.5999 21.2592 13.9956 21.424 14.4098C21.5161 14.6403 21.5094 14.8328 21.4031 14.9953C21.1541 14.6233 20.8165 14.3191 20.4206 14.11C19.7534 13.7593 19.6915 13.1697 19.6858 13.0553C19.6829 12.993 19.6607 12.9331 19.6225 12.8838C19.5842 12.8345 19.5317 12.7982 19.472 12.7798C19.4124 12.7614 19.3485 12.7619 19.2891 12.7811C19.2298 12.8003 19.1778 12.8374 19.1402 12.8872C19.0718 12.9777 18.6939 13.4243 17.9491 13.3267C17.5048 13.2695 17.0532 13.3234 16.6348 13.4836C16.6426 13.2903 16.7489 13.1296 16.9574 12.9946C17.3319 12.7512 17.7308 12.5477 18.1476 12.3872C18.2273 12.3568 18.295 12.3013 18.3406 12.2291C18.3861 12.157 18.4071 12.072 18.4002 11.9869C18.3934 11.9018 18.3591 11.8213 18.3026 11.7573C18.246 11.6934 18.1703 11.6495 18.0867 11.6322C16.8291 11.3701 16.3474 10.641 16.1741 10.005C16.5381 10.2742 16.9925 10.3916 17.4414 10.3324C17.9573 10.269 18.4094 10.3387 18.7853 10.5396C18.9111 10.6058 19.0271 10.6892 19.13 10.7874C19.1004 11.0777 19.0635 11.3267 19.0336 11.4905C19.0216 11.5661 19.0397 11.6433 19.0839 11.7057C19.1281 11.7681 19.1949 11.8107 19.2701 11.8245C19.3453 11.8383 19.423 11.8221 19.4864 11.7794C19.5499 11.7367 19.5941 11.671 19.6097 11.5961C19.6268 11.5028 20.0162 9.33269 19.5112 8.23078C19.6631 8.19412 19.8125 8.14803 19.9586 8.09279C20.0737 8.04893 20.1914 8.01243 20.3111 7.98352C20.5141 8.34699 20.7918 10.2946 20.0645 11.9197C20.0482 11.9549 20.0391 11.993 20.0376 12.0318C20.0362 12.0705 20.0425 12.1092 20.0561 12.1455C20.0697 12.1818 20.0904 12.215 20.1169 12.2433C20.1435 12.2716 20.1754 12.2943 20.2108 12.3101C20.2462 12.3259 20.2843 12.3346 20.3231 12.3355C20.3619 12.3365 20.4004 12.3298 20.4366 12.3157C20.4727 12.3017 20.5057 12.2806 20.5336 12.2537C20.5616 12.2268 20.5839 12.1946 20.5993 12.159C20.6943 11.9455 20.7756 11.7262 20.8426 11.5023C21.1163 11.4231 21.8471 11.3014 22.5713 11.9585ZM17.7832 9.72448C18.1763 9.40168 18.64 9.17635 19.1367 9.06687C19.1795 9.40602 19.1934 9.74821 19.1781 10.0897C18.8708 9.90085 18.4121 9.72165 17.7832 9.72448ZM14.6387 4.15368C14.5299 3.89785 14.4911 3.61769 14.5263 3.34193C14.5614 3.06616 14.6693 2.80471 14.8389 2.58439C14.8505 2.56896 14.8624 2.55367 14.8747 2.5385C15.3908 1.89973 16.3722 1.76032 17.1089 2.22111C17.2371 2.30251 17.38 2.35789 17.5296 2.3841C17.8229 2.4338 18.124 2.36575 18.3674 2.19475C19.1633 1.64133 20.172 1.64821 20.8778 2.21184C21.5517 2.74997 21.7833 3.76296 21.4408 4.67512C21.3795 4.83529 21.3527 5.00662 21.3623 5.17787C21.3719 5.34912 21.4176 5.5164 21.4964 5.66872L21.5033 5.68166C21.5771 5.81947 21.6778 5.94108 21.7994 6.03928C22.5103 6.62355 22.6791 7.70534 22.1608 8.35412C22.1485 8.36945 22.1363 8.38449 22.1234 8.39929C21.8581 8.70474 21.503 8.91853 21.1089 9.01013C21.0708 8.46457 20.9722 8.01989 20.8553 7.76765C20.764 7.57082 20.6505 7.45515 20.5083 7.41408C20.295 7.35231 20.0485 7.43962 19.763 7.54064C19.6732 7.57243 19.5815 7.60485 19.4966 7.62981C19.2782 7.35905 19.3366 7.09221 19.3795 7.03728C19.4229 6.98548 19.4516 6.92296 19.4626 6.85626C19.4735 6.78956 19.4663 6.72114 19.4418 6.65817C19.4172 6.5952 19.3761 6.54 19.3229 6.49835C19.2697 6.4567 19.2062 6.43014 19.1392 6.42145C17.953 6.26545 17.5532 5.5194 17.4204 5.08845C17.4002 5.02304 17.3625 4.96437 17.3115 4.91873C17.2604 4.87309 17.1979 4.84219 17.1306 4.82936C17.0634 4.81653 16.9939 4.82223 16.9296 4.84587C16.8654 4.86951 16.8087 4.91019 16.7658 4.96355C16.6521 5.10432 16.4198 5.25759 15.9597 5.18815C15.6683 5.14627 15.393 5.0287 15.1612 4.84719C14.9294 4.66567 14.7492 4.42655 14.6387 4.15368ZM18.794 7.52009L17.8431 7.59587L18.4997 6.87927C18.5902 6.90788 18.6856 6.93303 18.7857 6.95471C18.7395 7.14071 18.7424 7.33551 18.794 7.52009ZM17.1735 5.91066L16.4886 6.76516L16.5184 5.75554C16.6821 5.72081 16.8374 5.65428 16.9755 5.55974C17.032 5.68188 17.0982 5.79924 17.1737 5.91066H17.1735ZM15.3896 5.6403C15.5456 5.69993 15.7076 5.74263 15.8727 5.7677C15.8927 5.77067 15.9121 5.77287 15.9317 5.77526L15.8938 7.05681C15.8906 7.15801 15.9193 7.25764 15.9759 7.34158C16.0326 7.42553 16.1141 7.48953 16.2092 7.52451C16.3042 7.5595 16.4078 7.56369 16.5053 7.5365C16.6028 7.50931 16.6893 7.45211 16.7525 7.37302L17.5656 6.35871C17.6799 6.46018 17.8036 6.55054 17.935 6.62858L17.3535 7.26335C17.2812 7.34235 17.2333 7.44069 17.2159 7.54639C17.1984 7.65209 17.212 7.76059 17.2551 7.85868C17.2982 7.95677 17.3689 8.04021 17.4585 8.09885C17.5482 8.15748 17.653 8.18878 17.7601 8.18894C17.7749 8.18894 17.7898 8.18833 17.8047 8.18713L18.9134 8.09875C18.8914 8.2145 18.9083 8.33429 18.9615 8.43942C18.9711 8.45832 18.9798 8.47849 18.9887 8.49841C18.1921 8.67606 17.4748 9.10792 16.9451 9.72888C16.5917 9.64484 16.3366 9.40612 16.171 9.18918C16.123 9.12618 16.0561 9.08007 15.9802 9.05752C15.9042 9.03496 15.8231 9.03713 15.7484 9.0637C15.6738 9.09028 15.6095 9.13989 15.5649 9.20537C15.5203 9.27084 15.4976 9.34881 15.5002 9.428C15.5136 9.88381 15.6301 10.3307 15.8409 10.735C15.2836 10.9809 14.7652 11.3069 14.3021 11.7025C14.2913 11.6626 14.2808 11.6264 14.2711 11.5951C14.5707 11.1434 14.8551 10.5668 14.9321 9.93332C15.7633 9.12648 15.9917 8.0152 16.0011 7.96691L15.4264 7.85256C15.3222 8.285 15.1425 8.69569 14.8957 9.06574C14.849 8.84671 14.7734 8.63488 14.6707 8.43586C15.302 7.25446 15.4039 6.24143 15.3898 5.6403H15.3896ZM8.35582 7.42141C8.42534 7.40386 8.48602 7.36142 8.52635 7.30214C8.56668 7.24286 8.58387 7.17084 8.57467 7.09973C8.42818 5.96755 8.94703 4.98347 10.1172 4.17492C10.5338 3.88546 11.0431 3.76126 11.5461 3.82646C12.0491 3.89167 12.5099 4.14162 12.8388 4.5277C13.7624 5.60773 14.0115 6.69133 13.5793 7.74841C13.5548 7.80812 13.5508 7.87423 13.5678 7.93646C13.5848 7.9987 13.6219 8.05358 13.6733 8.0926C13.9312 8.31625 14.1282 8.60164 14.2459 8.92209C14.5177 9.66003 14.3362 10.4879 13.7064 11.383C13.6778 11.4236 13.66 11.4707 13.6547 11.5199C13.6493 11.5692 13.6565 11.619 13.6756 11.6648C13.6781 11.6707 13.9238 12.2706 13.8217 13.1345C13.7025 14.1436 13.1745 15.0578 12.2507 15.8591C12.2571 14.6572 11.9983 13.2901 11.0392 12.2804C10.8618 12.0936 10.6658 11.9254 10.4541 11.7786C10.5522 11.3652 10.6539 10.9583 10.7561 10.5644C11.2079 10.4074 12.4574 9.89128 12.8486 8.87727C12.8766 8.80475 12.8746 8.72408 12.8431 8.65303C12.8116 8.58197 12.7532 8.52633 12.6807 8.49836C12.6082 8.47039 12.5275 8.47237 12.4564 8.50387C12.3854 8.53537 12.3297 8.59381 12.3018 8.66633C12.0735 9.25783 11.4131 9.64777 10.943 9.85954C11.4764 7.89177 11.9708 6.40485 11.9774 6.38513C11.99 6.34854 11.9951 6.30983 11.9927 6.27123C11.9902 6.23263 11.9801 6.19491 11.9629 6.16023C11.9458 6.12556 11.922 6.09462 11.8928 6.0692C11.8637 6.04378 11.8298 6.02439 11.7931 6.01214C11.7564 5.99989 11.7176 5.99503 11.6791 5.99783C11.6405 6.00064 11.6028 6.01105 11.5683 6.02848C11.5338 6.0459 11.503 6.07 11.4779 6.09936C11.4527 6.12873 11.4336 6.16279 11.4216 6.19958C11.4149 6.2197 10.9071 7.74675 10.3633 9.75866C10.021 9.33938 9.57408 8.57634 9.81485 7.63752C9.83416 7.56225 9.82278 7.4824 9.78321 7.41553C9.74364 7.34865 9.67913 7.30024 9.60387 7.28093C9.5286 7.26162 9.44875 7.273 9.38187 7.31257C9.315 7.35214 9.26658 7.41665 9.24728 7.49191C8.86993 8.9633 9.81251 10.0652 10.1852 10.4314C10.0973 10.7703 10.0098 11.1188 9.92457 11.4728C9.81238 11.4199 9.69718 11.3736 9.57955 11.3342C9.29464 10.5095 8.72833 9.52067 7.61729 9.17312C7.37227 9.09703 7.1175 9.05688 6.86095 9.05393C7.00328 7.78757 8.29757 7.43649 8.35582 7.42141ZM12.8051 18.4091L12.2143 18.3198C12.1669 17.9609 12.13 17.3467 12.1867 16.8685C12.1955 16.7947 12.2034 16.719 12.2106 16.6423C12.278 16.5917 12.3441 16.5411 12.4076 16.4902C12.4638 17.1245 12.5938 17.8278 12.8051 18.4091ZM4.40484 16.4746C4.39037 16.43 4.36543 16.3896 4.33212 16.3567C4.29881 16.3238 4.2581 16.2994 4.21339 16.2854C3.42774 16.0406 2.90528 15.6475 2.65982 15.1168C2.29693 14.3316 2.65313 13.477 2.65641 13.4693C2.68497 13.4035 2.68838 13.3294 2.66596 13.2612C2.64355 13.193 2.59689 13.1354 2.53482 13.0994C1.54518 12.5244 1.07945 11.5142 1.1505 10.0967C1.17521 9.59074 1.38774 9.11219 1.74653 8.7546C2.10533 8.39702 2.5846 8.18611 3.09063 8.16311C4.51329 8.09226 5.52716 8.55661 6.10382 9.54338C6.13638 9.59843 6.18595 9.64141 6.24506 9.66584C6.30417 9.69027 6.36962 9.69483 6.43155 9.67883C6.50777 9.65905 8.30655 9.22419 9.07013 11.6598C9.08572 11.7089 9.11388 11.753 9.1518 11.7878C9.18972 11.8226 9.23608 11.8469 9.28629 11.8582C9.29342 11.8598 10.0031 12.0266 10.6369 12.7073C11.4801 13.6131 11.8149 15.0281 11.605 16.7993C11.5492 17.2705 11.5739 17.8317 11.6148 18.2291L10.6307 18.0804C10.626 18.0053 10.5923 17.9349 10.5368 17.884C10.1671 17.5456 9.78653 17.1655 9.40401 16.76C9.51886 16.2851 9.77267 14.932 9.20977 14.0117C9.16903 13.9458 9.10387 13.8988 9.02854 13.8808C8.95321 13.8629 8.87383 13.8755 8.80777 13.9159C8.7417 13.9563 8.69432 14.0212 8.67598 14.0965C8.65765 14.1717 8.66985 14.2511 8.70992 14.3174C9.0505 14.874 8.99874 15.6927 8.91261 16.2269C8.11602 15.3439 7.32672 14.3803 6.62257 13.4795C6.77628 13.018 7.12022 11.7324 6.55421 10.8067C6.51366 10.7404 6.44844 10.693 6.3729 10.6748C6.29736 10.6566 6.21769 10.6691 6.1514 10.7097C6.08512 10.7502 6.03765 10.8154 6.01945 10.891C6.00125 10.9665 6.01381 11.0462 6.05435 11.1125C6.38277 11.6496 6.29391 12.4015 6.17642 12.9023C4.94 11.287 4.05914 9.99973 4.04151 9.97385C4.01984 9.94206 3.99212 9.91485 3.95993 9.89378C3.92774 9.8727 3.89172 9.85817 3.85391 9.85102C3.81611 9.84387 3.77727 9.84423 3.73961 9.85209C3.70194 9.85995 3.6662 9.87515 3.63441 9.89682C3.60262 9.9185 3.57541 9.94622 3.55434 9.97841C3.53326 10.0106 3.51873 10.0466 3.51158 10.0844C3.50443 10.1222 3.50479 10.1611 3.51265 10.1987C3.52051 10.2364 3.53571 10.2721 3.55738 10.3039C3.57535 10.3303 4.48067 11.6535 5.74976 13.3081C5.20807 13.3243 4.32174 13.2148 3.71851 12.447C3.67051 12.3859 3.6002 12.3464 3.52305 12.3372C3.4459 12.3279 3.36824 12.3497 3.30714 12.3977C3.24604 12.4457 3.20651 12.516 3.19726 12.5931C3.188 12.6703 3.20977 12.748 3.25777 12.8091C3.9734 13.7199 4.98595 13.8943 5.65641 13.8943C5.83032 13.8944 6.00405 13.8826 6.17633 13.8588C6.90016 14.7839 7.71305 15.7746 8.53326 16.68C7.96583 16.7825 6.9795 16.8374 6.28551 16.1999C6.25727 16.1733 6.22405 16.1526 6.18775 16.139C6.15145 16.1254 6.11281 16.1191 6.07406 16.1205C6.0353 16.1219 5.99722 16.131 5.96201 16.1472C5.92679 16.1634 5.89515 16.1865 5.86892 16.215C5.84269 16.2436 5.82239 16.2771 5.8092 16.3136C5.796 16.35 5.79018 16.3887 5.79206 16.4275C5.79395 16.4662 5.8035 16.5042 5.82017 16.5392C5.83684 16.5742 5.86029 16.6055 5.88917 16.6314C6.48785 17.1814 7.22887 17.3302 7.85597 17.3302C8.24014 17.3283 8.6225 17.2772 8.99366 17.178C9.24757 17.447 9.50089 17.7048 9.75094 17.9474L6.87618 17.5128C6.86983 17.5119 6.86353 17.5112 6.85714 17.5106C6.26317 17.4626 5.66813 17.5895 5.14542 17.8756C4.83536 17.4448 4.58615 16.9734 4.40484 16.4746ZM4.51173 19.2002C5.02403 18.4702 5.89146 18.0206 6.79845 18.094L8.97618 18.4231V19.8905C8.97618 19.9682 9.00705 20.0427 9.06199 20.0977C9.11693 20.1526 9.19145 20.1835 9.26915 20.1835C9.34685 20.1835 9.42137 20.1526 9.47631 20.0977C9.53125 20.0427 9.56212 19.9682 9.56212 19.8905V18.5116L15.5 19.4092V20.2527C15.5 20.3304 15.5308 20.4049 15.5858 20.4599C15.6407 20.5148 15.7152 20.5457 15.7929 20.5457C15.8706 20.5457 15.9451 20.5148 16.0001 20.4599C16.055 20.4049 16.0859 20.3304 16.0859 20.2527V19.4974L20.5586 20.1733C20.6779 20.1907 20.7869 20.2506 20.8655 20.342C20.9441 20.4334 20.9871 20.5502 20.9865 20.6707C20.986 20.7916 20.9422 20.9082 20.8631 20.9996C20.784 21.0909 20.6748 21.151 20.5553 21.1688L18.7744 21.4258V21.2304C18.7744 21.1527 18.7436 21.0782 18.6886 21.0233C18.6337 20.9683 18.5592 20.9375 18.4815 20.9375C18.4038 20.9375 18.3292 20.9683 18.2743 21.0233C18.2194 21.0782 18.1885 21.1527 18.1885 21.2304V21.5108L13.5805 22.1766V21.2781C13.5805 21.2004 13.5497 21.1259 13.4947 21.071C13.4398 21.016 13.3653 20.9852 13.2876 20.9852C13.2099 20.9852 13.1353 21.016 13.0804 21.071C13.0255 21.1259 12.9946 21.2004 12.9946 21.2781V22.2612L6.82818 23.152V21.5879C6.82818 21.5102 6.79732 21.4357 6.74237 21.3808C6.68743 21.3258 6.61291 21.2949 6.53521 21.2949C6.45751 21.2949 6.383 21.3258 6.32805 21.3808C6.27311 21.4357 6.24225 21.5102 6.24225 21.5879V23.1365C5.89289 23.0812 5.55844 22.9553 5.25926 22.7666C4.96008 22.5779 4.70242 22.3303 4.50196 22.0389C4.64716 21.8013 4.75612 21.5435 4.82525 21.2738C4.95118 20.7801 4.99156 20.0316 4.51173 19.2002ZM2.04347 22.3865C1.97946 22.4123 1.90787 22.4116 1.84434 22.3847C1.78082 22.3578 1.73052 22.3069 1.70445 22.243C1.69171 22.2116 1.68532 22.1781 1.68565 22.1443C1.68599 22.1104 1.69304 22.077 1.70641 22.0459C1.71979 22.0144 1.73933 21.9858 1.76387 21.9619C1.7884 21.938 1.81745 21.9193 1.84933 21.9067L3.03097 21.4293L3.57296 21.4196C3.60221 21.5252 3.63696 21.6293 3.67706 21.7313L2.04347 22.3865ZM1.70445 18.9941C1.73052 18.9303 1.78081 18.8793 1.84432 18.8524C1.90784 18.8255 1.97941 18.8248 2.04342 18.8506L3.68238 19.508C3.6407 19.612 3.60461 19.7181 3.57428 19.8259L3.00255 19.8144L1.84864 19.3303C1.81705 19.3177 1.78826 19.2991 1.7639 19.2754C1.73954 19.2517 1.72011 19.2234 1.70671 19.1922C1.69331 19.1609 1.68622 19.1273 1.68583 19.0934C1.68544 19.0594 1.69177 19.0256 1.70445 18.9941ZM1.0879 20.3609L4.31383 20.4273C4.32629 20.5581 4.32611 20.6897 4.31329 20.8204L1.08824 20.878C1.02151 20.8753 0.958403 20.8469 0.912127 20.7988C0.865851 20.7506 0.839986 20.6864 0.839942 20.6196C0.839898 20.5529 0.865678 20.4886 0.91189 20.4404C0.958103 20.3922 1.02117 20.3637 1.0879 20.3609Z" fill="black" fill-opacity="0.5"/>
</svg>
