<svg width="250" height="250" viewBox="0 0 250 250" fill="none" xmlns="http://www.w3.org/2000/svg">
<g clip-path="url(#clip0)">
<path d="M230.316 60.7715C201.942 7.61508 142.002 -13.9475 83.0532 9.27591C51.8887 21.5534 21.8403 46.1532 6.94913 93.7863C-19.6705 178.936 36.2208 206.13 72.7676 214.798C90.4397 218.989 107.084 226.029 122.293 235.613C149.657 252.858 198.092 268.138 234.615 196.308C261.087 144.245 249.217 96.1789 230.316 60.7715Z" fill="#F2F2F2"/>
<path d="M65.8105 71.2883C65.7311 70.4434 65.5706 69.6161 65.3329 68.8269C65.3026 68.6777 65.2495 68.5386 65.1771 68.4185C65.1047 68.2984 65.0144 68.1999 64.9122 68.1293C64.7755 68.0815 64.6322 68.0793 64.4947 68.123L62.3514 68.5646C62.172 68.5756 62.0003 68.6654 61.8624 68.8204C61.5833 69.2156 61.8581 69.852 61.8496 70.3973C61.84 71.0104 61.4353 71.5081 60.9965 71.6728C60.5486 71.7946 60.0865 71.7869 59.641 71.6501L56.644 71.0231C57.5267 70.6438 58.3123 69.938 58.9112 68.9863C59.3056 68.3573 59.5155 67.183 58.9455 66.8851C58.7761 66.8225 58.5995 66.8034 58.4249 66.8288C57.0671 66.843 55.9986 65.3168 54.7274 64.674C53.9139 64.2891 53.0307 64.2605 52.2043 64.5922C51.3779 64.9238 50.6506 65.5988 50.1263 66.5205L51.7229 66.6241C51.8731 66.613 52.022 66.6665 52.1481 66.7768C52.498 67.1638 52.063 67.9072 52.1123 68.5132C52.1763 69.3006 52.9529 69.4687 53.5382 69.5483C54.1236 69.6279 54.8662 70.2682 54.5846 70.9636C51.6425 72.3279 48.6487 68.2968 45.5589 68.793C44.7769 68.9186 44.0384 69.3322 43.2749 69.5922C38.6109 71.1809 33.7892 66.9422 29.0247 67.8398C27.9655 68.0829 26.9244 68.4526 25.9139 68.9443C25.2655 69.231 24.5891 69.5408 24.1179 70.2055C23.6468 70.8703 23.4674 72.0072 23.9138 72.7023C22.6835 72.8387 21.445 72.6802 20.2559 72.2342C20.5774 72.4748 20.845 72.8276 21.0303 73.2554C21.2157 73.6833 21.3121 74.1704 21.3095 74.6657C19.3885 75.0874 17.5185 75.855 15.7496 76.948C16.0797 77.6871 16.4653 78.3786 16.9003 79.0118L14.4685 81.1151C15.2901 81.3938 15.7149 82.902 15.2371 83.844C16.089 83.3338 16.6169 82.0139 17.5279 81.7463C18.1247 81.571 18.732 81.8996 19.2981 82.2084C19.8643 82.5172 20.4866 82.8166 21.0727 82.5848C21.6588 82.3531 22.0911 81.33 21.7186 80.6781C24.2238 79.6941 26.8128 79.1496 29.4214 79.058C29.6227 79.024 29.8268 79.0761 30.0048 79.207C30.3444 79.5242 30.2551 80.2093 30.2368 80.7652C30.2185 81.321 30.5403 82.0516 30.9093 81.8011C30.4752 82.3079 30.8463 83.2621 31.2629 83.7951C31.6794 84.3281 32.1815 85.0635 31.9264 85.7568C31.8599 85.9378 31.747 86.0826 31.6829 86.2652C31.4939 86.8041 31.794 87.4325 32.1481 87.7904C32.5021 88.1483 32.9357 88.3984 33.1816 88.894C33.4275 89.3897 33.3158 90.2572 32.8761 90.3264L31.6262 88.19C31.1992 88.7861 30.9065 89.533 30.7819 90.344C32.1073 91.8026 32.3067 94.7715 31.1971 96.5265C30.6301 97.4233 29.8237 97.9683 29.1199 98.6678C28.4161 99.3673 27.7649 100.363 27.7667 101.541C27.7698 103.576 27.6463 105.466 28.2126 107.353C29.257 110.831 30.4627 114.218 31.8227 117.492C32.1798 118.352 32.6414 119.295 33.3649 119.443C32.4505 116.446 31.6274 113.403 30.8956 110.313C31.3722 110.315 31.9231 110.366 32.2025 110.886C32.4339 111.317 32.3842 111.902 32.4561 112.424C32.5475 112.931 32.7 113.413 32.9075 113.853L37.2738 124.324C37.6357 125.192 38.0509 126.124 38.7427 126.475C39.1849 126.7 39.6967 126.657 40.1037 126.981C40.4228 127.235 40.6377 127.685 40.963 127.924C41.8828 128.599 43.1618 127.304 44.0214 128.11C44.2672 128.341 44.4235 128.707 44.65 128.971C45.4439 129.897 46.7461 129.278 47.6626 129.968C48.2532 130.413 48.5593 131.303 48.8743 132.109C49.6635 134.13 50.9403 136.109 52.6315 136.269C53.1627 136.32 53.7053 136.184 54.2246 136.343C54.7438 136.503 55.255 137.113 55.1717 137.821C55.0288 139.035 55.4743 140.364 55.3546 141.583C55.1367 143.802 52.7981 144.778 52.5972 147C52.5533 147.487 52.6221 147.989 52.536 148.465C52.4305 149.049 52.1049 149.524 51.9892 150.105C51.7699 151.204 52.3551 152.299 52.9979 153.038C53.6408 153.778 54.4076 154.416 54.7591 155.452C55.1306 156.546 54.9481 157.823 55.0689 159.015C55.3327 161.618 57.0028 163.548 58.7215 164.792C59.2452 165.171 59.8075 165.538 60.1464 166.196C60.5888 167.054 60.5448 168.186 60.6925 169.212C61.0543 171.724 62.625 173.793 62.6696 176.351C62.7013 178.17 61.9506 179.819 61.5021 181.535C61.0817 183.178 60.9296 184.925 61.0561 186.655C61.1826 188.385 61.5848 190.058 62.2353 191.559C62.5708 192.322 62.972 193.041 63.2093 193.868C63.6328 195.343 63.4954 197.02 63.8859 198.512C64.4021 200.484 65.8206 202.113 65.6848 204.196C66.3288 205.996 67.7509 206.881 69.1808 207.417L71.7436 208.377C72.2343 208.561 72.7471 208.747 73.2468 208.613C73.7464 208.48 74.2233 207.922 74.2104 207.236C72.9536 206.855 71.6566 206.449 70.6206 205.418C69.5846 204.387 68.8749 202.551 69.268 200.899C69.4503 200.133 69.838 199.249 69.4694 198.616C69.2583 198.254 68.8723 198.159 68.6342 197.828C68.2629 197.313 68.3905 196.446 68.6574 195.825C68.9244 195.203 69.3103 194.647 69.418 193.944C69.4723 193.55 69.436 193.144 69.3139 192.779C69.1918 192.414 68.9897 192.108 68.7347 191.902C69.2099 191.66 69.6421 191.287 70.0032 190.806C70.3368 190.293 70.4908 189.503 70.2284 188.92C71.0077 189.053 71.9277 189.118 72.4392 188.315C72.8477 187.674 72.8196 186.716 72.6582 185.9C72.4968 185.084 72.224 184.292 72.2155 183.447C74.0131 183.562 75.8147 183.48 77.6024 183.201C77.3439 182.029 76.7565 181.039 75.9646 180.44C76.7743 180.256 77.5119 178.951 77.7677 177.9C78.0235 176.85 77.9583 175.705 77.8002 174.621C77.7394 174.341 77.7311 174.046 77.7759 173.761C77.8671 173.37 78.1525 173.132 78.4166 172.927L82.4355 169.82C82.6753 169.658 82.8927 169.442 83.0781 169.181C83.4992 168.516 83.4368 167.51 83.2212 166.686C83.0056 165.861 82.6603 165.085 82.5772 164.218C82.3288 161.624 84.3913 159.763 85.0873 157.321C85.3604 156.363 85.4161 155.322 85.469 154.298C85.5257 153.198 85.53 151.921 84.9028 151.212C84.3016 150.533 83.3622 150.685 82.7332 150.053C82.1564 149.473 81.9574 148.348 81.3273 147.88C80.7551 147.456 80.0377 147.726 79.4013 147.526C78.2808 147.174 77.5756 145.435 76.4312 145.274C75.7856 145.184 75.0548 145.609 74.5256 145.102C74.0593 144.656 74.0406 143.76 73.9519 142.999C73.7963 141.817 73.3754 140.727 72.7457 139.876C72.116 139.026 71.3079 138.456 70.4302 138.243C69.7644 138.099 69.0398 138.153 68.4735 137.661C67.9 137.162 67.637 136.228 67.1866 135.538C66.4606 134.425 65.3171 134.029 64.246 133.69L59.8891 132.311C59.1156 132.066 58.1187 131.937 57.7036 132.849C57.5808 133.196 57.4938 133.564 57.4451 133.943C57.2896 134.629 56.9766 135.231 56.5512 135.662C56.1257 136.093 55.6097 136.331 55.0772 136.343C54.7121 135.504 54.1205 134.888 53.426 134.623C52.9842 134.457 52.5113 134.438 52.0899 134.195C51.8604 134.044 51.6562 133.832 51.4898 133.571C51.3234 133.31 51.1982 133.006 51.122 132.678C51.0457 132.35 51.02 132.005 51.0464 131.663C51.0729 131.321 51.1508 130.99 51.2756 130.69C51.5268 130.088 51.6238 129.391 51.5516 128.707C51.4795 128.024 51.2422 127.391 50.8764 126.907C50.1354 126.011 49.0636 125.795 48.0701 125.884C47.8099 125.12 48.245 124.258 48.7138 123.702C49.1827 123.147 49.752 122.601 49.8541 121.771C50.0147 120.466 48.7781 119.475 47.8391 119.864C46.9002 120.253 46.3009 121.481 45.9047 122.692C45.6774 123.386 45.4842 124.117 45.1256 124.703C44.7671 125.288 44.1897 125.708 43.6436 125.52C42.8705 125.254 42.5719 124.017 42.4008 122.968C42.1712 121.56 41.9403 120.132 41.9884 118.692C42.0365 117.253 42.397 115.774 43.1857 114.799C44.471 113.211 46.4426 113.367 48.1771 113.62C47.7673 112.998 47.8686 111.951 48.307 111.366C48.5385 111.089 48.8166 110.892 49.1173 110.793C49.4179 110.693 49.7321 110.694 50.0325 110.795C50.5552 110.941 51.026 111.32 51.3692 111.871C51.8621 112.68 52.0023 113.772 52.3748 114.691C52.7474 115.609 53.5851 116.392 54.2708 115.9C54.8631 115.474 54.9571 114.368 54.8097 113.487C54.6623 112.605 54.3492 111.748 54.4026 110.847C54.5045 109.128 55.8281 108.093 56.9962 107.385C58.1642 106.677 59.5017 105.725 59.6867 104.018C59.693 103.684 59.7399 103.354 59.8253 103.04C59.9548 102.763 60.1349 102.535 60.3483 102.378C63.7572 99.345 67.2229 96.275 71.1191 94.6178C71.3218 94.5316 71.3456 94.6274 71.5522 94.5598C71.8413 94.3349 71.6498 93.7125 71.3726 93.4618C71.0954 93.2111 70.7249 93.0189 70.6545 92.5794C70.6028 92.2563 70.7442 91.9391 70.781 91.6124C70.8712 90.8094 70.1577 90.0681 69.6036 90.3891C69.2906 89.8311 69.9099 89.1827 70.4107 88.9971C71.9144 88.44 73.4579 88.1005 75.0151 87.9845C75.1948 87.946 75.3789 87.9882 75.5391 88.1044C75.8006 88.3484 75.7672 88.9078 75.5818 89.2559C75.3965 89.604 75.1081 89.8226 74.8772 90.1172C74.6248 90.4482 74.4448 90.8661 74.3568 91.3254C74.2688 91.7847 74.2762 92.2677 74.3782 92.7217C75.1912 93.2784 76.075 93.8514 76.9753 93.6553C77.8757 93.4592 78.6748 92.0973 78.2516 91.0096C77.8575 89.9967 76.6737 89.7682 76.4702 88.6581C76.2318 87.3584 77.5985 86.2024 77.2906 84.9294C77.1558 84.3718 76.743 84.0436 76.4263 83.6411C76.0522 83.1475 75.7977 82.5131 75.6963 81.8213C75.5949 81.1295 75.6513 80.4126 75.858 79.7647C75.3421 79.8868 74.8119 79.8407 74.312 79.6301C73.812 79.4195 73.3569 79.0505 72.9848 78.5542C72.2975 77.6205 71.7492 76.1475 70.7733 76.1893C69.8778 76.2276 69.1064 77.6342 68.269 77.2051C68.063 77.0995 67.8458 76.8846 67.6462 77.0105C67.5808 77.0677 67.5259 77.1442 67.4856 77.2341C67.4454 77.324 67.4209 77.4251 67.4139 77.5297C67.2011 78.8994 67.5672 80.46 67.0126 81.6436C66.4092 82.9316 65.0135 83.1102 64.282 84.2716C63.8849 84.9021 63.731 85.7516 63.366 86.4163C63.001 87.081 62.2263 87.5036 61.7883 86.9244C62.0036 86.3286 62.0624 85.6521 61.9551 85.0054C61.8477 84.3588 61.5807 83.7803 61.1975 83.3645C60.7908 83.0073 60.3525 82.7202 59.8927 82.51C59.3789 82.2172 58.8901 81.8505 58.4349 81.4163C58.2069 81.2311 58.0216 80.9642 57.8998 80.6454C57.8034 80.2462 57.8164 79.8137 57.9364 79.4263C58.1585 78.569 58.5503 77.8096 59.0696 77.2302C59.5889 76.6508 60.2158 76.2733 60.8828 76.1386C61.466 76.0318 62.1448 76.0694 62.5308 75.4712C62.735 75.1546 62.8422 74.676 63.1386 74.5475C63.3282 74.4962 63.525 74.5288 63.6998 74.6405L65.8766 75.672C66.1195 75.8197 66.3869 75.8792 66.6521 75.8447C66.7836 75.8209 66.9036 75.7309 66.9879 75.593C67.0722 75.455 67.1147 75.2792 67.1067 75.1009C67.0372 74.6142 66.4809 74.3806 66.5315 73.8897C66.5599 73.7307 66.6234 73.5869 66.7137 73.4774C67.4993 72.3517 68.4601 71.4738 69.5272 70.9065C70.5944 70.3391 71.7415 70.0965 72.8864 70.1958C73.1612 70.8033 72.7266 71.5227 72.3651 72.0413C72.0035 72.56 71.7129 73.4866 72.1502 73.8858C72.3294 74.0089 72.5287 74.0694 72.7298 74.0615C73.2658 74.1592 73.7866 74.3719 74.2726 74.6915C75.0248 75.1322 75.7626 75.6144 76.486 76.1381C76.4221 75.496 76.3611 74.8196 76.5419 74.2192C76.7226 73.6188 77.2364 73.1479 77.6852 73.3817C78.1177 73.6071 78.3395 74.378 78.8003 74.4487C79.4149 74.5429 79.6574 73.3204 79.4007 72.5627C79.1439 71.805 78.6357 71.1705 78.5933 70.3397C78.5646 69.7791 78.7231 69.0839 78.3905 68.7445C78.2721 68.6426 78.1378 68.5792 77.9981 68.5593L69.6937 66.502C69.2006 66.3798 68.4881 66.4734 68.4662 67.1478C68.454 67.5243 68.7038 67.8967 68.5932 68.2428C68.4751 68.6122 68.0872 68.5784 67.8047 68.7091C67.3664 68.9118 67.1464 69.6125 67.1885 70.2339C67.2656 70.8514 67.4432 71.4383 67.7086 71.9524C67.1685 71.6483 66.3506 71.5924 65.8105 71.2883Z" fill="#3F3D56"/>
<path d="M59.1844 61.7979C58.6607 61.5646 58.0964 61.5537 57.568 61.7667C57.0396 61.9798 56.5727 62.4064 56.2305 62.9888C56.0937 63.2312 55.9789 63.5654 56.0934 63.8278C56.2575 64.2041 56.6757 64.0554 56.984 63.9209C57.4371 63.7029 57.9303 63.6871 58.3907 63.8757C58.6802 64.0095 58.9392 64.246 59.23 64.3747C59.3715 64.4544 59.5265 64.4808 59.6783 64.4509C59.8301 64.421 59.973 64.3361 60.0917 64.2052C60.2913 63.9312 60.3038 63.5052 60.3041 63.1215C60.318 62.9931 60.3103 62.8622 60.2818 62.7383C60.2533 62.6143 60.2045 62.5005 60.1392 62.4052C60.0228 62.3144 59.892 62.2624 59.7577 62.2533C59.4568 62.1783 59.1848 61.9644 58.9886 61.6483" fill="#3F3D56"/>
<path d="M62.1788 60.6755C62.0616 60.6669 61.9447 60.699 61.8394 60.7688C61.7341 60.8386 61.644 60.9437 61.5775 61.074C61.5111 61.2042 61.4707 61.3553 61.4602 61.5127C61.4497 61.6701 61.4695 61.8284 61.5176 61.9725C61.8775 62.1047 62.2535 62.1377 62.6231 62.0696C62.8075 62.0311 62.9792 61.9199 63.1167 61.7502C63.2542 61.5805 63.3513 61.3597 63.3958 61.1158C62.9607 61.2224 62.5116 61.107 62.1363 60.792" fill="#3F3D56"/>
<path d="M72.2253 58.801C71.2457 59.0814 70.2942 59.5166 69.3904 60.0975C69.8165 60.3179 70.1786 60.7168 70.4236 61.2354C70.6685 61.7539 70.7832 62.3646 70.7508 62.9775C70.7126 63.2129 70.717 63.4571 70.7637 63.6896C70.8678 64.0294 71.1695 64.1569 71.4348 64.2442C71.9113 64.4394 72.4089 64.5249 72.9066 64.4971C73.1555 64.4795 73.3973 64.3787 73.61 64.2037C73.8227 64.0287 73.9997 63.7851 74.1249 63.4948C74.197 63.2193 74.2816 62.9501 74.3782 62.6885C75.014 61.385 76.9027 62.9612 77.5853 61.7013C77.8257 61.2575 77.8037 60.5894 78.1172 60.2377C78.2793 60.0845 78.4672 59.988 78.664 59.9568C80.0367 59.5896 81.4233 59.3238 82.8175 59.1604C83.4782 59.083 84.3393 58.7636 84.3448 57.8709C81.8564 57.213 79.2763 57.6803 77.0056 59.2001C76.1875 59.7518 75.1054 60.9122 74.3174 60.1809C74.0223 59.907 74.0369 59.1696 73.6308 58.8617C73.2156 58.5469 72.666 58.6749 72.2253 58.801Z" fill="#3F3D56"/>
<path d="M80.3629 60.8497L81.531 61.1518C81.316 61.139 81.1014 61.1881 80.9016 61.2957C80.7018 61.4034 80.5213 61.5672 80.3722 61.7762C80.2232 61.9852 80.1089 62.2346 80.0371 62.5077C79.9653 62.7808 79.9376 63.0715 79.9558 63.3602C81.0497 63.8521 82.2422 63.3734 83.3944 63.4388C84.5467 63.5042 85.8873 64.6123 85.6906 66.1421C85.6312 66.6047 85.4327 67.067 85.5359 67.5154C85.6082 67.8297 85.8141 68.0527 85.9303 68.3421C86.1725 68.9453 85.979 69.7083 85.6732 70.2566C85.3674 70.8049 84.9564 71.2424 84.688 71.8251C84.0204 73.2744 84.3997 75.1481 84.7973 76.7672C84.9123 77.3789 85.1246 77.9498 85.4196 78.4402C86.0088 79.2836 86.9689 79.3569 87.8288 79.3738C88.4546 79.3861 89.1715 79.3445 89.5673 78.6917C90.084 77.8394 89.7227 76.5097 90.0629 75.5095C90.3718 74.6011 91.159 74.2113 91.8721 73.9349C93.1787 73.4286 94.5102 72.9981 95.7454 72.2332C97.2792 71.2834 98.7126 69.8033 100.398 69.681C100.871 69.6467 101.356 69.7219 101.812 69.5474C102.267 69.373 102.7 68.8427 102.665 68.2068C102.636 67.6634 102.294 67.2644 102.028 66.8548C101.761 66.4451 101.551 65.8153 101.797 65.3819L106.215 64.2707C105.902 63.1215 105.658 61.608 106.378 60.86C106.638 60.5901 106.985 60.4823 107.206 60.156C107.583 59.5999 107.394 58.6419 106.959 58.169C106.524 57.696 105.935 57.5863 105.378 57.5239C103.441 57.3073 101.492 57.4505 99.5507 57.5937C95.756 57.8737 91.9612 58.1538 88.1664 58.4338C87.4025 58.4902 86.5205 58.4041 85.8199 58.7549C85.2267 59.052 84.805 59.5972 84.1266 59.7888C82.8743 60.1425 81.4961 59.9031 80.3629 60.8497Z" fill="#3F3D56"/>
<path d="M101.288 73.2793C101.169 73.254 101.048 73.2911 100.948 73.3831C100.883 73.4804 100.844 73.6049 100.838 73.7361C100.762 74.315 100.852 74.9109 101.089 75.4044C101.21 75.6466 101.377 75.8407 101.572 75.9668C101.767 76.0929 101.984 76.1463 102.2 76.1214C102.726 76.0311 103.114 75.427 103.597 75.1323C104.342 74.6784 107.507 73.9708 105.318 72.3784C104.563 71.8296 104.076 72.3141 103.481 72.6755C102.805 73.1414 102.047 73.3502 101.288 73.2793Z" fill="#3F3D56"/>
<path d="M120.464 59.9508C120.209 60.0914 119.995 60.342 119.856 60.6635C119.792 60.8267 119.777 61.0168 119.815 61.1944C119.852 61.3719 119.939 61.5234 120.056 61.6175C120.152 61.6641 120.253 61.6857 120.355 61.6811L121.394 61.7229C121.836 61.7407 122.387 61.8673 122.506 62.4402C122.594 62.8656 122.397 63.4122 122.635 63.7162C122.737 63.8227 122.86 63.8872 122.988 63.9019C123.331 64.0203 123.688 64.0358 124.036 63.9474C124.792 63.6743 124.395 63.0529 124.633 62.4995C124.997 61.6529 124.934 62.1654 125.576 61.6801C126.051 61.3218 126.664 60.6717 126.268 59.7584C125.579 58.1701 121.48 59.2685 120.464 59.9508Z" fill="#3F3D56"/>
<path d="M140.981 59.1522L140.377 59.2607C139.016 59.5052 137.647 59.752 136.336 60.3022C136.904 60.6043 137.499 60.801 138.106 60.8868C138.44 60.9089 138.772 60.9724 139.097 61.0765C139.676 61.3086 140.26 61.9078 140.819 61.6009C141.166 61.4105 141.279 60.9243 141.566 60.6667C141.765 60.4888 142.517 60.2008 142.601 60.0212C143.281 58.5694 141.503 59.0583 140.981 59.1522Z" fill="#3F3D56"/>
<path d="M143.631 62.8455C142.825 63.4524 142.077 64.1899 141.404 65.0415C141.12 65.4004 140.83 65.8468 140.856 66.3696C140.89 67.0645 141.44 67.4676 141.917 67.7391L143.846 68.8389C144.08 68.3948 143.866 67.7817 143.624 67.3452C143.382 66.9087 143.095 66.4037 143.202 65.8785C143.323 65.2791 143.866 65.0748 144.322 64.9715C145.063 64.8033 147.064 64.8168 146.824 63.2076C146.54 61.3114 144.376 62.2852 143.631 62.8455Z" fill="#3F3D56"/>
<path d="M143.243 170.15C143.059 170.866 143.042 171.709 143.36 172.334C143.716 173.036 144.43 173.297 145.047 173.119C145.662 172.899 146.21 172.425 146.614 171.763C146.983 171.209 147.287 170.581 147.515 169.903C147.833 168.845 148.057 167.741 148.183 166.612L148.782 162.378C148.916 161.431 148.911 158.53 147.619 159.475C147.266 159.733 146.448 161.773 146.078 162.351C145.412 163.393 145.324 164.404 144.973 165.667C144.533 167.248 143.65 168.566 143.243 170.15Z" fill="#3F3D56"/>
<path d="M211.486 191.82C211.064 191.598 210.653 191.335 210.259 191.033C209.863 192.498 209.653 194.042 209.636 195.6L212.529 193.396C212.965 193.064 213.458 192.604 213.448 191.931C213.452 191.848 213.44 191.765 213.411 191.69C213.383 191.616 213.341 191.554 213.289 191.509C213.224 191.474 213.154 191.463 213.086 191.477C212.657 191.525 212.266 191.809 211.861 192.007C211.456 192.205 210.983 192.309 210.612 192.016" fill="#3F3D56"/>
<path d="M226.748 193.129C226.43 193.245 226.12 193.395 225.82 193.577C225.156 194.032 224.705 194.895 224.107 195.494C223.535 196.068 222.847 196.382 222.172 196.688C221.973 196.925 222.064 197.401 222.28 197.609C222.512 197.786 222.778 197.867 223.044 197.84C223.746 197.861 224.485 197.87 225.1 197.414C225.447 197.111 225.771 196.765 226.068 196.379C226.787 195.572 227.65 195.039 228.505 194.524C228.816 194.366 229.103 194.135 229.354 193.841C229.891 193.128 229.929 192.03 229.155 191.787C228.529 191.591 227.344 192.869 226.748 193.129Z" fill="#3F3D56"/>
<path d="M233.491 187.199C233.526 186.709 233.477 186.214 233.349 185.753C233.221 185.292 233.017 184.876 232.753 184.536C232.745 185.517 232.722 186.562 232.313 187.372C232.021 187.95 231.563 188.34 231.244 188.89C230.924 189.441 230.782 190.313 231.157 190.796C231.397 191.041 231.689 191.177 231.99 191.182C232.737 191.3 233.601 191.366 234.124 190.64C234.41 190.244 234.549 189.657 234.898 189.365C235.028 189.292 235.144 189.18 235.237 189.038C235.381 188.73 235.152 188.325 234.895 188.214C234.637 188.103 234.354 188.155 234.095 188.049C233.836 187.944 233.599 187.552 233.732 187.235" fill="#3F3D56"/>
<path d="M221.506 151.251C221.115 151.379 220.709 151.411 220.309 151.346C219.644 151.181 219.127 150.507 218.59 149.954C217.315 148.646 215.764 147.917 214.161 147.87C212.703 147.833 211.231 148.365 209.799 147.994C209.893 148.695 210.338 149.22 210.813 149.533C211.288 149.845 211.813 150.002 212.29 150.308C213.055 150.803 213.661 151.652 213.998 152.7C214.152 153.184 214.249 153.709 214.482 154.131C214.958 154.994 215.86 155.183 216.656 155.113C217.695 155.021 218.779 154.619 219.745 155.139C220.484 155.538 221.013 156.409 221.63 157.086C222.247 157.763 223.116 158.265 223.825 157.777C223.089 157.456 222.448 156.827 221.997 155.981C221.545 155.136 221.306 154.118 221.314 153.077C222.009 153.163 224.011 153.13 223.903 151.54C223.812 150.193 222.103 151.105 221.506 151.251Z" fill="#3F3D56"/>
<path d="M212.416 162.211C212.539 161.3 213.214 160.496 213.004 159.614C212.859 159.004 212.334 158.703 211.858 158.688C211.382 158.673 210.915 158.864 210.44 158.882C210.13 158.86 209.82 158.866 209.511 158.9C208.567 159.108 207.985 160.44 207.096 160.914C206.555 161.202 205.947 161.147 205.385 161.346C204.108 161.798 203.3 163.422 202.407 164.732C200.965 166.839 199.086 168.314 197.013 168.967C196.287 169.193 195.507 169.338 194.93 169.973C194.165 170.813 193.977 172.254 193.807 173.563C193.338 177.178 192.62 180.726 191.663 184.161L194.695 184.683C195.271 184.782 195.869 184.879 196.424 184.649C196.828 184.444 197.21 184.17 197.562 183.833C198.912 182.704 200.424 181.97 201.998 181.677C202.792 181.531 203.625 181.504 204.37 181.901C205.115 182.298 205.754 183.199 205.817 184.275C206.139 184.14 206.482 184.126 206.81 184.233C207.138 184.34 207.438 184.566 207.678 184.885C208.153 185.536 208.464 186.372 208.567 187.273C208.647 187.832 208.727 188.501 209.112 188.735C209.426 188.927 209.786 188.721 210.13 188.684C211.296 188.558 212.263 190.388 213.409 190.073C214.638 189.735 214.939 187.257 216.138 186.761C216.827 186.476 217.793 186.823 218.122 185.96C218.413 185.2 217.833 184.323 217.893 183.472C217.966 182.424 218.885 181.98 219.592 181.533C222.032 179.991 223.19 175.57 222.008 172.309C221.307 170.377 219.929 168.856 219.674 166.734C219.478 165.101 219.957 163.197 219.183 161.911C218.79 161.257 218.124 160.896 217.89 160.116C217.742 159.625 217.802 159.068 217.722 158.549C217.643 158.03 217.307 157.488 216.926 157.622C215.822 158.012 215.469 162.606 214.878 163.723C213.979 165.419 212.133 164.302 212.416 162.211Z" fill="#3F3D56"/>
<path d="M191.998 152.986C191.621 152.844 191.209 152.704 190.847 152.907C190.485 153.111 190.274 153.826 190.564 154.18C192.835 154.061 195.12 153.943 197.372 154.358C199.966 154.837 202.534 156.022 205.14 155.673C203.651 155.082 202.138 154.609 200.608 154.258L198.057 153.601C197.373 153.409 196.682 153.265 195.986 153.171C194.531 153.009 193.429 153.527 191.998 152.986Z" fill="#3F3D56"/>
<path d="M194.272 142.338C194.083 142.317 193.85 142.299 193.752 142.517C193.659 142.725 193.766 143.001 193.716 143.235C193.647 143.554 193.336 143.636 193.092 143.592C192.847 143.549 192.582 143.445 192.365 143.603C192.255 143.705 192.172 143.851 192.13 144.021C192.087 144.191 192.086 144.375 192.127 144.545C192.216 144.884 192.359 145.191 192.547 145.446C192.868 145.99 193.233 146.484 193.636 146.917C194.417 147.693 195.474 148.067 195.966 149.193C196.035 149.411 196.142 149.604 196.277 149.757C196.513 149.958 196.821 149.805 197.075 149.648L197.966 149.101C198.126 149.023 198.269 148.892 198.382 148.719C198.586 148.348 198.461 147.819 198.29 147.419C198.119 147.018 197.9 146.604 197.937 146.145C198.002 145.326 198.784 145.013 199.106 144.313C199.43 143.607 199.219 142.697 199.256 141.869C199.3 140.9 199.752 139.64 199.024 138.916C198.406 138.301 197.815 138.869 197.371 139.548C196.435 140.98 195.993 142.531 194.272 142.338Z" fill="#3F3D56"/>
<path d="M199.678 127.863C199.983 128.647 200.616 129.115 200.948 129.878C201.307 130.706 201.267 131.775 201.656 132.577C202.057 133.399 202.862 133.836 203.086 134.772C203.331 135.794 202.775 137.036 203.218 137.928C203.301 138.074 203.405 138.196 203.524 138.285C203.643 138.373 203.775 138.428 203.911 138.445C204.047 138.462 204.183 138.44 204.313 138.382C204.442 138.324 204.561 138.23 204.662 138.107C204.849 137.833 204.949 137.472 204.94 137.101C204.932 136.729 204.817 136.376 204.618 136.118C204.356 135.796 203.979 135.657 203.76 135.281C203.646 135.064 203.57 134.815 203.538 134.553C203.419 133.796 203.438 133.012 203.594 132.267C203.652 132.078 203.667 131.87 203.636 131.669C203.538 131.284 203.15 131.256 202.877 131.077C202.259 130.671 202.274 129.496 202.382 128.58C202.31 129.19 200.698 128.153 200.529 127.808C200.194 127.123 200.376 125.8 200.31 125.043C199.586 125.512 199.307 126.905 199.678 127.863Z" fill="#3F3D56"/>
<path d="M183.437 139.923C183.14 139.475 182.692 139.006 182.293 139.276C181.988 139.483 181.905 140.05 182.024 140.479C182.169 140.897 182.393 141.256 182.673 141.521C183.504 142.444 184.4 143.277 185.125 144.35C186.423 146.27 187.11 148.861 188.522 150.63C188.805 151.04 189.181 151.314 189.591 151.409C190.002 151.461 190.464 151.107 190.512 150.554C190.55 150.099 190.315 149.692 190.085 149.355C189.536 148.552 188.936 147.813 188.418 146.974C188.179 146.652 188.029 146.229 187.993 145.776C187.99 145.325 188.296 144.852 188.621 144.964C188.226 144.828 187.932 143.941 187.352 143.774C186.867 143.635 186.75 144.039 186.173 143.706C185.072 143.07 184.208 141.085 183.437 139.923Z" fill="#3F3D56"/>
<path d="M209.303 96.2592C208.987 96.1329 208.676 95.9836 208.373 95.812C207.555 95.4817 206.474 96.2905 206.583 97.4299C206.655 98.1869 207.179 98.6973 207.468 99.354C207.896 100.328 207.782 101.563 207.557 102.654C207.501 102.991 207.396 103.31 207.247 103.592C207.039 103.89 206.791 104.131 206.515 104.302C205.411 105.135 204.438 106.248 203.649 107.58C203.563 107.703 203.503 107.855 203.476 108.019C203.437 108.404 203.724 108.684 203.886 109.005C204.247 109.718 203.986 110.677 204.022 111.538C204.017 111.66 204.034 111.781 204.073 111.891C204.113 112.001 204.172 112.096 204.246 112.166C204.464 112.315 204.721 112.062 204.839 111.775C205.23 110.821 204.936 109.29 205.669 108.83C205.808 108.743 205.976 108.706 206.069 108.542C206.216 108.282 206.074 107.896 206.148 107.585C206.26 107.118 206.735 107.097 207.099 107.118C207.727 107.153 208.354 107.04 208.953 106.785C209.188 106.71 209.401 106.544 209.566 106.307C209.786 105.938 209.766 105.415 209.723 104.946C209.503 102.61 208.954 100.353 208.104 98.2955C208.748 98.4064 209.449 98.5023 210.005 98.0502C210.317 97.797 210.69 97.0398 210.536 96.5244C210.291 95.7095 209.85 96.3955 209.303 96.2592Z" fill="#3F3D56"/>
<path d="M126.682 109.105C126.759 109.661 126.835 110.248 126.699 110.784C126.563 111.32 126.137 111.768 125.734 111.604C125.422 111.477 125.241 111.054 125.019 110.731C123.785 108.937 121.001 109.976 120.239 107.757C119.928 106.851 120.139 105.766 119.927 104.81C119.793 104.258 119.526 103.781 119.169 103.454C118.812 103.128 118.385 102.97 117.954 103.006C117.561 103.082 117.178 103.236 116.819 103.462C114.408 104.762 111.878 105.614 109.297 105.995C108.806 106.035 108.321 106.154 107.851 106.349C106.792 106.866 106.067 108.189 105.552 109.539C105.037 110.889 104.656 112.35 103.965 113.549C103.239 114.809 102.222 115.692 101.273 116.646C100.907 116.964 100.603 117.393 100.384 117.9C100.179 118.468 100.19 119.13 100.206 119.762L100.4 127.441C100.425 128.428 100.457 129.451 100.785 130.335C101.195 131.439 102.005 132.162 102.567 133.137C103.14 134.139 103.439 135.377 103.412 136.641C103.4 137.149 103.363 137.751 103.657 138.07C103.836 138.226 104.045 138.307 104.258 138.303L111.974 139.153C113.331 139.302 114.835 139.548 115.721 140.94C116.139 141.597 116.475 142.542 117.116 142.612C117.39 142.643 117.658 142.491 117.933 142.462C118.626 142.388 119.235 143.096 119.619 143.876C120.201 145.066 120.465 146.486 120.368 147.904C120.305 148.794 120.1 149.66 120.056 150.552C119.888 153.946 122.025 156.896 122.067 160.298C122.091 162.299 121.386 164.168 120.698 165.942C121.808 168.207 120.899 171.222 121.341 173.869C121.76 176.38 123.316 178.347 123.703 180.867C123.881 182.021 123.891 183.441 124.647 184.036C124.978 184.253 125.346 184.352 125.714 184.323C127.936 184.359 130.132 183.686 132.124 182.359C133.058 181.735 134.027 180.802 134.19 179.415C134.322 178.296 133.9 177.045 134.329 176.07C134.835 174.922 136.13 175.013 136.873 174.13C138.08 172.697 137.139 169.965 137.628 167.902C138.067 166.047 139.58 165.061 140.33 163.397C140.625 162.681 140.837 161.908 140.958 161.106C141.301 159.188 141.515 157.233 141.597 155.263C141.617 154.066 141.682 152.872 141.793 151.684C142.601 144.923 147.567 140.395 149.179 133.899C149.333 133.279 149.405 132.453 148.995 132.102C148.752 131.946 148.476 131.907 148.214 131.992L144.658 132.595C144.216 132.67 143.748 132.74 143.342 132.493C142.936 132.246 142.646 131.555 142.861 131.031C143.465 129.558 142.222 127.696 141.67 126.186C140.183 122.122 138.413 118.256 136.383 114.643C136.253 114.457 136.171 114.219 136.151 113.965L137.16 114.01C136.82 112.364 136.257 110.563 135.069 109.961C134.4 109.622 133.659 109.739 132.945 109.791C130.899 109.942 128.706 109.526 126.682 109.105Z" fill="#3F3D56"/>
<path d="M132.946 72.0111C133.482 72.7763 134.081 73.5877 134.856 73.7211C136.224 73.9567 137.207 72.0523 137.834 70.3982C137.857 70.8199 138.001 71.2128 138.236 71.4933C138.471 71.7738 138.778 71.9198 139.092 71.9003C139.43 71.8238 139.752 71.6542 140.039 71.402C142.749 69.4081 145.785 68.3516 148.873 68.3275C148.843 68.0125 148.901 67.6939 149.036 67.4331C149.171 67.1724 149.372 66.9879 149.602 66.9154C150.23 66.7478 150.795 67.4787 151.098 68.238C151.401 68.9972 151.59 69.8772 152.071 70.4456C152.553 71.0139 153.484 70.9891 153.674 70.1661C153.857 69.3761 153.246 68.7023 152.738 68.2365C152.23 67.7706 151.694 66.9085 152.036 66.2211C154.631 65.4478 157.242 64.6715 159.898 64.5178C160.35 64.539 160.8 64.4345 161.221 64.2109C161.626 63.9433 161.948 63.3361 161.839 62.7467C161.26 62.9301 160.653 62.877 160.096 62.5942C159.539 62.3114 159.057 61.8116 158.712 61.1587C162.396 60.7494 166.315 60.4005 169.581 62.7345C169.973 63.867 167.975 64.8092 168.51 65.8306C168.68 66.1564 169.022 66.1946 169.318 66.202C171.587 66.2587 173.869 66.3143 176.112 65.8531C176.932 65.6846 177.76 65.4467 178.584 65.5833C179.955 65.811 181.127 67.0425 182.476 67.4441C183.025 67.6075 183.641 67.613 184.103 67.1832C184.566 66.7533 184.765 65.7744 184.386 65.2156C185.656 63.5399 187.764 63.9552 189.439 64.7575C191.115 65.5597 192.702 66.8534 194.475 67.0323C195.747 67.1605 197.036 66.7 198.292 66.9927C199.082 67.1766 199.817 67.6495 200.589 67.9401C202.048 68.4896 203.592 68.3736 205.108 68.4C208.974 68.4702 212.799 69.4932 216.391 71.4186C216.859 71.6234 217.287 71.964 217.646 72.4163C217.98 72.8982 218.151 73.6472 217.926 74.2331L214.213 73.5028C214.563 74.4298 215.468 74.5878 216.203 74.9076C216.938 75.2274 217.7 76.32 217.258 77.173C216.462 76.8317 215.74 77.9035 215.338 78.8896C214.936 79.8757 214.446 81.0567 213.611 81.1168C212.864 81.1705 211.96 80.314 211.473 81.0788C212.146 82.2216 212.722 83.4618 213.191 84.7764C213.672 86.126 214.015 87.8266 213.365 89.0408C213.262 89.2576 213.107 89.4196 212.926 89.4991C212.395 89.6801 212.049 88.8053 211.669 88.2751C211.189 87.6069 210.463 87.4177 209.813 87.1043C209.163 86.791 208.478 86.1745 208.427 85.2475C208.395 84.6708 208.621 84.1346 208.788 83.6016C209.068 82.703 209.191 81.7297 209.146 80.7572C209.11 79.9748 208.947 79.1609 208.529 78.6142C208.112 78.0676 207.391 77.8941 206.943 78.3948C206.734 78.6285 206.566 79.0022 206.295 79.0161C205.815 79.0408 205.447 77.9149 205.061 78.2992C205.106 78.7088 205.043 79.1267 204.883 79.48C203.731 80.8285 201.962 80.258 200.477 80.7344C199.771 81.0064 199.095 81.4039 198.467 81.9162C198.232 82.0515 198.032 82.2774 197.892 82.5655C197.707 83.0504 197.911 83.6714 198.238 83.9938C198.584 84.2799 198.974 84.4588 199.378 84.5176C201.188 84.9792 203.024 85.6937 204.454 87.2589C205.883 88.8242 206.82 91.4118 206.368 93.8162L202.798 89.2241C202.933 91.1522 203.01 93.0856 203.029 95.0244C203.052 95.4029 203.013 95.7837 202.916 96.1401C202.661 96.8968 201.971 97.1514 201.367 97.3185C201.199 97.3615 201.039 97.4519 200.899 97.5837C200.759 97.7156 200.641 97.8859 200.553 98.0835C200.465 98.2811 200.409 98.5016 200.389 98.7303C200.369 98.9591 200.385 99.191 200.436 99.4109C200.65 100.353 201.186 101.088 201.676 101.82C202.166 102.552 202.649 103.384 202.713 104.366C202.777 105.348 202.227 106.455 201.497 106.386C200.943 106.335 200.532 105.667 200.296 104.991C200.06 104.315 199.919 103.562 199.564 102.987C198.49 101.248 196.078 101.993 195.116 100.139C194.87 100.514 194.7 100.966 194.622 101.454C194.543 101.942 194.558 102.449 194.666 102.927C195.113 102.55 195.726 102.9 196.062 103.448C196.399 103.996 196.557 104.699 196.822 105.315C197.178 106.146 197.745 106.882 197.795 107.839C197.782 108.201 197.786 108.564 197.808 108.925C197.897 109.505 198.261 109.921 198.513 110.406C199.101 111.534 199.072 113.083 198.693 114.363C198.314 115.642 197.634 116.711 196.961 117.748C195.784 119.559 194.583 121.359 193.188 122.863C192.79 123.292 192.366 123.714 192.118 124.313C191.87 124.913 191.857 125.755 192.238 126.212C191.965 126.23 191.477 126.41 191.204 126.429C191.108 124.957 191.087 123.478 191.142 122.002C190.066 121.306 188.908 123.168 189.047 124.764C189.185 126.359 190.043 127.64 190.653 129.02C191.099 130.03 191.431 131.207 191.282 132.364C191.133 133.522 190.365 134.59 189.496 134.488C188.113 134.325 187.535 131.653 186.166 131.347C186.045 131.309 185.918 131.326 185.805 131.395C185.602 131.545 185.567 131.911 185.555 132.223C185.499 133.753 185.451 135.344 185.895 136.755C186.544 138.819 188.22 140.552 187.869 142.743C185.974 141.557 184.989 138.696 184.541 135.948C184.094 133.201 184.02 130.316 183.218 127.718C182.609 128.769 181.329 127.9 180.773 126.798C180.245 125.753 179.921 124.544 179.409 123.485C178.897 122.427 178.114 121.478 177.176 121.42C176.193 121.359 175.341 122.267 174.591 123.125C173.975 123.83 173.342 124.564 172.982 125.539C172.458 126.958 172.595 128.631 172.57 130.215C172.542 131.928 172.273 133.736 171.405 134.99C170.538 136.244 168.937 136.681 167.981 135.55C167.481 134.96 167.24 134.079 167.024 133.232C165.986 129.153 165.121 124.998 164.435 120.786C164.274 121.747 163.647 122.986 163.048 122.42C162.913 122.268 162.805 122.079 162.728 121.866C161.611 119.317 159.542 117.788 157.452 116.871C155.361 115.954 153.162 115.526 151.094 114.519C149.936 113.954 148.829 113.212 147.796 112.307C147.533 112.828 147.379 113.435 147.351 114.064C147.324 114.692 147.423 115.32 147.638 115.879C148.096 116.972 149.134 117.605 150.022 117.222C150.482 117.025 150.869 116.596 151.325 116.384C151.78 116.172 152.391 116.276 152.591 116.867C152.781 117.433 152.493 118.117 152.636 118.707C152.854 119.606 153.861 119.676 154.213 120.494C154.476 121.103 154.26 121.911 153.886 122.402C153.511 122.894 153.012 123.163 152.555 123.505C151.073 124.615 150.019 126.509 148.724 127.983C147.428 129.457 145.6 130.533 144.057 129.587C144.425 127.079 142.205 125.237 141.797 122.74C141.662 121.918 141.732 121.044 141.54 120.243C141.262 119.084 140.498 118.286 139.871 117.407C139.11 116.33 138.518 115.058 138.128 113.667C137.739 112.276 137.56 110.795 137.603 109.309C137.637 108.277 137.778 107.228 137.603 106.222C137.428 105.216 136.81 104.242 136.043 104.288C134.292 104.392 132.086 104.568 131.168 102.558C130.84 101.841 130.697 100.79 131.171 100.241C131.505 99.8532 131.999 99.8897 132.438 99.9479L136.384 100.47C137.306 100.593 138.304 100.693 139.096 100.044C139.887 99.3946 140.231 97.6707 139.497 96.9066C138.962 96.3483 138.002 96.3786 137.846 95.4909C137.716 94.7517 138.324 93.9129 137.996 93.2951C137.761 92.8521 137.231 92.975 136.911 93.3071C136.59 93.6392 136.357 94.1248 135.998 94.3762C135.369 94.8173 134.617 94.3975 133.939 94.1122C133.262 93.8269 132.354 93.8027 132.026 94.6496C131.658 95.5968 132.351 96.8379 131.987 97.787C131.505 99.0418 129.872 98.3275 129.195 99.4068C128.418 100.645 129.724 102.492 129.462 104.074C129.127 104.297 128.755 104.4 128.383 104.372C128.01 104.343 127.649 104.186 127.335 103.914C127.027 103.631 126.781 103.241 126.624 102.785C126.466 102.329 126.404 101.825 126.443 101.325C126.508 100.613 126.783 99.8864 126.599 99.2137C126.449 98.6699 126.044 98.3462 125.667 98.0657L121.833 95.2135C121.477 96.1025 121.927 97.2046 122.49 97.8723C123.053 98.54 123.757 99.0428 124.127 99.9216C124.361 100.53 124.413 101.236 124.274 101.896C124.134 102.555 123.813 103.117 123.375 103.468C123.321 103.519 123.258 103.553 123.193 103.569C123.127 103.584 123.06 103.58 122.995 103.557C122.934 103.509 122.881 103.444 122.838 103.368C122.796 103.291 122.766 103.204 122.749 103.111C122.072 100.78 121.057 98.4826 119.433 97.2652C117.809 96.0477 115.476 96.298 114.411 98.3489C114.158 98.836 113.989 99.3912 113.768 99.9062C112.598 102.642 110.088 103.938 107.744 103.853C107.514 103.87 107.286 103.798 107.087 103.646C106.708 103.293 106.725 102.546 106.783 101.931L107.029 99.3206C107.078 98.7965 107.15 98.2172 107.458 97.89C107.892 97.4288 108.519 97.7199 109.072 97.7092C109.491 97.6828 109.894 97.4835 110.226 97.1385C110.558 96.7934 110.803 96.3192 110.929 95.7802C111.04 95.2358 111.04 94.6607 110.927 94.1169C110.813 93.573 110.592 93.081 110.287 92.6939C110.033 92.3734 109.693 91.9707 109.827 91.5385C109.88 91.419 109.953 91.3167 110.039 91.2387C110.124 91.1608 110.222 91.1092 110.324 91.0875C111.318 90.6991 112.368 90.5972 113.345 90.1389C114.322 89.6806 115.269 88.7429 115.501 87.3854C115.572 86.9693 115.604 86.4653 115.881 86.2591C116.021 86.1799 116.17 86.1388 116.321 86.138C116.851 86.0366 117.333 85.6719 117.673 85.1157C118.013 84.5595 118.186 83.8522 118.158 83.1329C118.626 82.6924 119.282 83.0164 119.735 83.4849C120.188 83.9534 120.588 84.5723 121.139 84.7743C122.166 85.1506 123.159 83.9263 124.224 83.9206C124.671 83.9182 125.135 84.1313 125.556 83.927C125.983 83.7199 126.238 83.1477 126.565 82.725C126.893 82.3023 127.468 82.0445 127.771 82.4999L127.513 79.9306C128.032 80.107 128.573 80.132 129.099 80.0038C129.626 79.8757 130.126 79.5973 130.566 79.1874L127.236 77.6727C127.12 77.6337 127.013 77.5567 126.925 77.4485C126.683 77.0976 126.923 76.5507 127.12 76.1517C127.591 75.1974 127.67 73.6253 126.896 73.1501C126.367 72.8258 125.76 73.2151 125.253 73.596L122.823 75.4204C122.745 76.0423 123.31 76.3948 123.66 76.8137C123.872 77.0672 124.022 77.401 124.09 77.7713C124.159 78.1415 124.142 78.5309 124.043 78.8884C123.944 79.2458 123.767 79.5545 123.535 79.774C123.303 79.9935 123.028 80.1134 122.744 80.1181C122.904 80.3982 123.016 80.7232 123.07 81.069C123.124 81.4149 123.119 81.7726 123.057 82.1159L121.422 82.2742C121.238 82.3239 121.047 82.2738 120.891 82.1348C120.716 81.9257 120.74 81.5593 120.7 81.2491C120.602 80.5006 120.057 79.9759 119.502 79.8414C118.946 79.7069 118.378 79.8793 117.827 80.0496C117.594 80.1627 117.337 80.1548 117.108 80.0272C116.976 79.9121 116.876 79.7422 116.823 79.5434C116.582 78.7559 116.807 77.8304 117.195 77.157C117.582 76.4836 118.112 75.9914 118.589 75.4308C119.728 74.0853 120.565 72.3377 121.005 70.3856C121.905 69.8778 122.837 69.1879 123.737 68.6801C125.125 67.7341 126.681 67.3281 128.231 67.5078L131.28 67.5862C132.182 67.6095 133.11 67.6392 133.944 68.1024C134.779 68.5657 135.512 69.5676 135.57 70.7805C135.587 70.9178 135.578 71.0588 135.544 71.1903C135.51 71.3218 135.451 71.4394 135.374 71.5321C135.256 71.6187 135.123 71.6592 134.989 71.6491C134.147 71.6889 133.788 71.9713 132.946 72.0111Z" fill="#3F3D56"/>
<path d="M108.647 84.874C108.766 84.7222 108.852 84.5291 108.895 84.316C108.938 84.103 108.936 83.8781 108.89 83.6661C108.6 83.5155 108.285 83.4769 107.98 83.5545C107.675 83.6321 107.391 83.8228 107.162 84.1053C106.982 84.3513 106.826 84.6283 106.699 84.9292C106.299 85.809 105.945 86.8601 106.177 87.8436C106.196 87.9509 106.23 88.052 106.279 88.1409C106.327 88.2299 106.388 88.305 106.458 88.3619C106.562 88.4181 106.674 88.4417 106.786 88.431C107.228 88.4303 107.668 88.3937 108.107 88.3216C108.376 88.2774 108.688 88.1751 108.792 87.8381C108.929 87.3952 108.598 86.894 108.694 86.4323C108.758 86.2258 108.854 86.0404 108.976 85.8891C109.037 85.813 109.083 85.7188 109.112 85.6142C109.141 85.5095 109.151 85.3973 109.142 85.2864C109.103 85.0697 108.857 84.9468 108.768 85.135" fill="#3F3D56"/>
<path d="M110.935 80.8798C110.543 80.7586 110.139 80.7244 109.739 80.7786C109.65 80.7751 109.563 80.8019 109.484 80.8566C109.408 80.9323 109.353 81.0401 109.327 81.1629C109.242 81.5281 109.263 81.9229 109.385 82.2684C109.507 82.614 109.721 82.885 109.985 83.0275C110.129 83.072 110.266 83.1465 110.393 83.2483C110.731 83.6017 110.516 84.3242 110.58 84.8942C110.652 85.5344 111.112 86.0717 111.028 86.7091C110.961 87.2113 110.563 87.6089 110.627 88.1116C110.694 88.6381 111.19 88.7964 111.586 88.8385C111.815 88.8926 112.051 88.8562 112.265 88.7337C112.48 88.536 112.633 88.2382 112.694 87.8979C112.856 87.2489 112.924 86.5641 112.895 85.8807C112.893 85.5698 112.835 85.2642 112.726 84.9903C112.606 84.7733 112.474 84.5698 112.331 84.3817C111.573 83.1948 112.371 81.4244 110.935 80.8798Z" fill="#3F3D56"/>
<path opacity="0.8" d="M210.599 173.856C210.599 173.856 152.551 128.997 127.56 137.496C127.56 137.496 74.5974 145.17 68.4593 162.051C68.4593 162.051 51.6235 91.2209 45.4854 88.8599" stroke="#008E3A" stroke-width="2" stroke-miterlimit="10"/>
<path opacity="0.8" d="M68.4593 162.051C78.1925 127.108 165.879 88.3878 165.879 88.3878C153.428 92.6375 127.56 137.496 127.56 137.496C127.56 137.496 72.8436 83.9019 45.4853 88.86C45.4853 88.86 165.967 94.1722 210.599 173.856" stroke="#008E3A" stroke-width="2" stroke-miterlimit="10"/>
<path d="M45.4854 92.2834C46.8898 92.2834 48.0283 90.7507 48.0283 88.86C48.0283 86.9692 46.8898 85.4365 45.4854 85.4365C44.081 85.4365 42.9425 86.9692 42.9425 88.86C42.9425 90.7507 44.081 92.2834 45.4854 92.2834Z" fill="#008E3A"/>
<path d="M68.4593 165.474C69.8637 165.474 71.0022 163.941 71.0022 162.051C71.0022 160.16 69.8637 158.627 68.4593 158.627C67.0549 158.627 65.9164 160.16 65.9164 162.051C65.9164 163.941 67.0549 165.474 68.4593 165.474Z" fill="#008E3A"/>
<path d="M165.879 91.8112C167.284 91.8112 168.422 90.2785 168.422 88.3878C168.422 86.4971 167.284 84.9644 165.879 84.9644C164.475 84.9644 163.336 86.4971 163.336 88.3878C163.336 90.2785 164.475 91.8112 165.879 91.8112Z" fill="#008E3A"/>
<path d="M210.599 177.279C212.004 177.279 213.142 175.746 213.142 173.856C213.142 171.965 212.004 170.432 210.599 170.432C209.195 170.432 208.057 171.965 208.057 173.856C208.057 175.746 209.195 177.279 210.599 177.279Z" fill="#008E3A"/>
<path d="M127.56 140.92C128.965 140.92 130.103 139.387 130.103 137.496C130.103 135.606 128.965 134.073 127.56 134.073C126.156 134.073 125.017 135.606 125.017 137.496C125.017 139.387 126.156 140.92 127.56 140.92Z" fill="#008E3A"/>
</g>
<defs>
<clipPath id="clip0">
<rect width="250" height="250" fill="white"/>
</clipPath>
</defs>
</svg>
