<svg width="24" height="24" viewBox="0 0 24 24" fill="none" xmlns="http://www.w3.org/2000/svg">
<path fill-rule="evenodd" clip-rule="evenodd" d="M5.5 1C5.31705 1 5.14865 1.09995 5.06105 1.26058L2.20319 6.5H8.5H16H21.7968L18.9389 1.26058C18.8513 1.09995 18.6829 1 18.5 1H5.5ZM2 7.5H8V13.5C8 13.6844 8.1015 13.8539 8.26405 13.9409C8.42665 14.0279 8.6239 14.0183 8.77735 13.916L12.25 11.601L15.7226 13.916C15.8761 14.0183 16.0734 14.0279 16.236 13.9409C16.3985 13.8539 16.5 13.6844 16.5 13.5V7.5H22V22.5C22 22.7761 21.7761 23 21.5 23H2.5C2.22386 23 2 22.7761 2 22.5V7.5ZM9 7.5H15.5V12.5658L12.5274 10.584C12.3594 10.472 12.1406 10.472 11.9726 10.584L9 12.5658V7.5ZM5.5 17C5.22385 17 5 17.2239 5 17.5V19.5C5 19.7761 5.22385 20 5.5 20H10.5C10.7761 20 11 19.7761 11 19.5V17.5C11 17.2239 10.7761 17 10.5 17H5.5ZM6 19V18H10V19H6Z" fill="white"/>
</svg>
