<svg width="24" height="24" viewBox="0 0 24 24" fill="none" xmlns="http://www.w3.org/2000/svg">
<path d="M4.25 1.5C3.83579 1.5 3.5 1.83579 3.5 2.25C3.5 2.66421 3.83579 3 4.25 3H19.75C20.1642 3 20.5 2.66421 20.5 2.25C20.5 1.83579 20.1642 1.5 19.75 1.5H4.25Z" fill="white"/>
<path d="M1.03125 9.71475C1.01067 9.58155 1 9.44515 1 9.30635V5.23685C1 4.8299 1.33619 4.5 1.75091 4.5H22.2491C22.6638 4.5 23 4.8299 23 5.23685V9.30635C23 9.4531 22.9881 9.5971 22.9652 9.7375C22.5659 10.4797 21.8187 10.9558 21.0114 10.9558H20.9079C20.2816 10.9558 19.7045 10.6786 19.2859 10.2093C19.1433 10.0496 18.9373 9.95795 18.7209 9.95795C18.5044 9.95795 18.2985 10.0496 18.156 10.2093C17.7373 10.6786 17.1602 10.9558 16.5339 10.9558H16.4303C15.804 10.9558 15.2269 10.6786 14.8082 10.2092C14.6656 10.0494 14.4597 9.9578 14.2431 9.9578C14.0267 9.9578 13.8208 10.0494 13.6782 10.2092C13.2595 10.6786 12.6824 10.9558 12.056 10.9558H11.9524C11.3261 10.9558 10.7491 10.6786 10.3304 10.2093C10.1878 10.0496 9.9819 9.95795 9.76545 9.95795C9.549 9.95795 9.3431 10.0496 9.2005 10.2093C8.7818 10.6786 8.2047 10.9558 7.5784 10.9558H7.47485C6.8485 10.9558 6.27135 10.6786 5.8527 10.2092C5.7101 10.0494 5.50415 9.9578 5.2877 9.9578C5.07125 9.9578 4.86532 10.0494 4.72273 10.2092C4.30405 10.6786 3.7269 10.9558 3.10055 10.9558H2.99699C2.18156 10.9558 1.42741 10.47 1.03125 9.71475Z" fill="white"/>
<path d="M3.24368 12.4268V21.2719C3.24368 21.9501 3.804 22.5 4.49519 22.5H8.24971V18.8157C8.24971 16.7809 9.93066 15.1314 12.0043 15.1314C14.0778 15.1314 15.7588 16.7809 15.7588 18.8157V22.5H19.5133C20.2045 22.5 20.7648 21.9501 20.7648 21.2719V12.4268C19.999 12.3969 19.2968 12.1284 18.7209 11.6983C18.1093 12.1551 17.3553 12.4296 16.5339 12.4296H16.4303C15.6089 12.4296 14.8548 12.155 14.2432 11.6982C13.6316 12.155 12.8775 12.4296 12.056 12.4296H11.9525C11.1311 12.4296 10.3771 12.1551 9.76546 11.6983C9.15386 12.1551 8.39981 12.4296 7.57841 12.4296H7.47486C6.65346 12.4296 5.89936 12.1551 5.28771 11.6982C4.71178 12.1284 4.00953 12.3969 3.24368 12.4268Z" fill="white"/>
<path d="M14.2569 22.4999V18.8156C14.2569 17.5947 13.2484 16.605 12.0042 16.605C10.7601 16.605 9.7515 17.5947 9.7515 18.8156V22.4999H14.2569Z" fill="white"/>
</svg>
