<svg width="24" height="24" viewBox="0 0 24 24" fill="none" xmlns="http://www.w3.org/2000/svg">
<path fill-rule="evenodd" clip-rule="evenodd" d="M7.25 7.12988V7.49976H5.74887C5.30166 7.49976 4.92212 7.82774 4.85728 8.27023L4.63861 9.76268C4.21159 12.6771 4.21159 15.6382 4.63861 18.5526C4.82995 19.8585 5.883 20.8681 7.19579 21.0042L7.82466 21.0694C10.6008 21.3573 13.3992 21.3573 16.1753 21.0694L16.8042 21.0042C18.117 20.8681 19.17 19.8585 19.3614 18.5526C19.7884 15.6382 19.7884 12.6771 19.3614 9.76268L19.1427 8.27023C19.0779 7.82774 18.6983 7.49976 18.2511 7.49976H16.75V7.12988C16.75 4.96214 15.2824 3.0694 13.1829 2.52954C12.4069 2.33 11.5931 2.33 10.8171 2.52954C8.71761 3.0694 7.25 4.96214 7.25 7.12988ZM12.8094 3.98228C12.2784 3.84575 11.7216 3.84575 11.1906 3.98228C9.75415 4.35166 8.75 5.64669 8.75 7.12988V7.49976H15.25V7.12988C15.25 5.64669 14.2458 4.35166 12.8094 3.98228ZM8.75 8.99976C8.75 8.58554 8.41421 8.24976 8 8.24976C7.58579 8.24976 7.25 8.58554 7.25 8.99976V10.9998C7.25 11.414 7.58579 11.7498 8 11.7498C8.41421 11.7498 8.75 11.414 8.75 10.9998V8.99976ZM16.75 8.99976C16.75 8.58554 16.4142 8.24976 16 8.24976C15.5858 8.24976 15.25 8.58554 15.25 8.99976V10.9998C15.25 11.414 15.5858 11.7498 16 11.7498C16.4142 11.7498 16.75 11.414 16.75 10.9998V8.99976Z" fill="#008E3A"/>
</svg>
